<svg width="77" height="72" viewBox="0 0 77 72" fill="none" xmlns="http://www.w3.org/2000/svg">
<g clip-path="url(#clip0_14_393)">
<path d="M29.3963 71.4762C27.4925 71.449 25.418 71.4368 22.8622 71.4368H18.6706C17.2754 71.4368 15.8793 71.4368 14.4821 71.4368H14.0861C11.7252 71.4368 10.0772 69.7853 10.0742 67.4245V53.1329V52.8147V49.2509C10.0742 45.5134 10.0742 41.7758 10.0742 38.0383C10.0472 37.7486 10.1071 37.4575 10.2465 37.2018C10.3859 36.9461 10.5984 36.7373 10.8571 36.6018C11.0863 36.4712 11.3454 36.4013 11.6095 36.3988C11.8971 36.4031 12.1781 36.4848 12.4228 36.6352C12.6563 36.7659 12.8479 36.9595 12.9757 37.1938C13.1034 37.4281 13.162 37.6935 13.1448 37.9595V67.3063C13.1448 68.1791 13.4128 68.4458 14.2902 68.4458H19.423C22.2377 68.4458 25.0524 68.4458 27.8671 68.4458C27.984 68.4671 28.1043 68.4597 28.2176 68.4244C28.331 68.389 28.434 68.3267 28.5177 68.2428C28.6014 68.159 28.6633 68.0561 28.698 67.9431C28.7327 67.8301 28.7393 67.7103 28.717 67.5942C28.717 63.6971 28.717 59.7908 28.717 55.7967C28.6953 55.0039 28.7929 54.2122 29.0064 53.4481C29.375 52.2359 30.0391 51.745 31.3033 51.745H41.6939H45.8489C46.3048 51.7087 46.7595 51.8279 47.1382 52.0829C47.5169 52.3379 47.797 52.7136 47.9326 53.1481C48.2217 53.9146 48.3573 54.7299 48.3316 55.5482V67.1548C48.3316 67.7124 48.3316 68.0155 48.5509 68.2306C48.7703 68.4458 49.0779 68.4428 49.6415 68.4428H62.7189C63.6937 68.4428 63.9039 68.2337 63.9039 67.267V41.7809C63.9039 40.5111 63.9039 39.2383 63.9039 37.9686C63.894 37.7624 63.9252 37.5563 63.9955 37.362C64.0659 37.1678 64.174 36.9893 64.3138 36.8368C64.4536 36.6842 64.6222 36.5606 64.8101 36.4729C64.998 36.3853 65.2014 36.3354 65.4087 36.326C65.6051 36.3263 65.7995 36.3644 65.9814 36.4382C66.2777 36.5575 66.5297 36.7651 66.7026 37.0327C66.8755 37.3002 66.9609 37.6144 66.947 37.9322V62.7395C66.947 63.2031 66.947 63.6698 66.947 64.1335C66.947 65.2456 66.947 66.3972 66.947 67.5276C66.9196 69.8277 65.296 71.4369 62.9869 71.4429C59.8737 71.4429 56.7595 71.4429 53.6442 71.4429H46.973C45.9038 71.4429 45.3128 70.852 45.3128 69.7822V56.0634C45.3128 55.9361 45.3128 55.8058 45.3128 55.6785C45.3244 55.5544 45.3112 55.4292 45.2741 55.3101C45.237 55.191 45.1766 55.0804 45.0965 54.9845C45.0002 54.9009 44.8881 54.8372 44.7668 54.7971C44.6454 54.7571 44.5173 54.7414 44.3898 54.7512C42.4159 54.7633 40.451 54.7694 38.4954 54.7694C36.5397 54.7694 34.5983 54.7633 32.671 54.7512C32.5361 54.7382 32.3998 54.7519 32.2702 54.7914C32.1405 54.8309 32.02 54.8955 31.9156 54.9815C31.8308 55.0833 31.7672 55.2008 31.7285 55.3272C31.6898 55.4536 31.6768 55.5864 31.6901 55.7179C31.6901 57.3119 31.6901 58.9059 31.6901 60.4969C31.6901 63.3274 31.6901 66.2548 31.7236 69.1337C31.7389 70.0428 31.5866 70.6489 31.2423 70.9853C30.8981 71.3217 30.3589 71.4762 29.4999 71.4762H29.3963Z" fill="white"/>
<path d="M74.9921 38.3348C74.7832 38.3326 74.5768 38.2892 74.3848 38.207C74.1929 38.1248 74.0193 38.0055 73.8741 37.856C66.5632 30.583 59.2523 23.3028 51.9414 16.0156L42.623 6.75453C41.8107 5.93226 40.9862 5.11303 40.1495 4.29683L39.3605 3.51195C39.0285 3.18466 38.7909 2.9695 38.4771 2.9695C38.1634 2.9695 37.9197 3.19072 37.6029 3.50588L8.51459 32.4406C6.75185 34.1963 4.99418 35.9519 3.24159 37.7075C2.91912 38.0528 2.47212 38.2566 1.99874 38.2742C1.61812 38.2703 1.25454 38.1167 0.987394 37.8469C0.839565 37.7175 0.720026 37.5593 0.636187 37.3821C0.552347 37.2049 0.505994 37.0124 0.5 36.8166C0.508281 36.5818 0.563453 36.3511 0.662299 36.1378C0.761145 35.9244 0.901688 35.7328 1.07573 35.5741C5.32216 31.3436 9.57061 27.1161 13.8211 22.8917L22.5759 14.1822C26.9056 9.87892 31.2332 5.57265 35.5589 1.26335C35.9108 0.87688 36.3379 0.565579 36.8145 0.348348C37.291 0.131116 37.8069 0.0124846 38.3309 -0.000345441H38.3614C38.9253 -0.0132373 39.4856 0.0917707 40.0062 0.307886C40.5267 0.524002 40.9958 0.846411 41.3832 1.25426C48.0423 7.90307 54.7165 14.5488 61.406 21.1916L61.7106 21.4946L70.962 30.7011L76.0126 35.7226C76.1607 35.86 76.2794 36.0258 76.3616 36.2099C76.4438 36.3941 76.4878 36.5929 76.4909 36.7943C76.4941 36.9958 76.4563 37.1958 76.3798 37.3824C76.3034 37.569 76.1899 37.7384 76.0461 37.8803C75.9097 38.0221 75.7462 38.1353 75.5652 38.2134C75.3842 38.2915 75.1894 38.3328 74.9921 38.3348Z" fill="white"/>
<path d="M65.5549 22.2071C65.2655 22.2045 64.9825 22.1221 64.7373 21.9691C64.492 21.8161 64.2943 21.5985 64.1659 21.3404C64.0592 21.0718 64.0135 20.7831 64.0318 20.4949C64.0318 18.814 64.0318 17.1331 64.0318 15.4522C64.0318 14.2673 63.6206 13.8673 62.4052 13.8643H59.3315C58.6522 13.8643 57.976 13.8643 57.2967 13.8643C56.9781 13.8809 56.6627 13.795 56.3971 13.6192C56.1315 13.4435 55.9299 13.1872 55.8223 12.8885C55.7339 12.6564 55.7042 12.4062 55.7357 12.16C55.7673 11.9138 55.8592 11.6791 56.0033 11.4765C56.1474 11.2739 56.3393 11.1096 56.5621 10.9981C56.785 10.8865 57.032 10.8312 57.2814 10.8369H60.3886C60.5256 10.8369 60.6932 10.8369 60.8607 10.8369C61.0801 10.8369 61.3085 10.8369 61.5431 10.8369C61.7776 10.8369 62.0305 10.8369 62.2833 10.8369C62.7262 10.8308 63.1688 10.8653 63.6054 10.9399C64.5433 11.125 65.3923 11.6164 66.0175 12.3362C66.6428 13.0559 67.0085 13.9627 67.0567 14.9128C67.0872 16.6311 67.0781 18.3796 67.0567 20.0646V20.6919C67.0589 21.0427 66.9386 21.3835 66.7164 21.656C66.4942 21.9284 66.1838 22.1157 65.8382 22.1859C65.7449 22.2036 65.6499 22.2107 65.5549 22.2071Z" fill="white"/>
<path d="M32.4852 27.359H38.3644C39.4519 27.359 40.1282 27.9226 40.1221 28.8227C40.116 29.7227 39.4428 30.2652 38.3858 30.2652C36.1925 30.2652 33.9992 30.2652 31.809 30.2652C31.4709 30.2652 31.3246 30.344 31.2911 30.6925C31.2272 31.416 31.218 32.1434 31.2637 32.8683C31.282 33.2229 31.5044 33.1714 31.7359 33.1714C34.0368 33.1714 36.3357 33.1714 38.6325 33.1714C38.9512 33.1652 39.2631 33.2629 39.5207 33.4497C39.7783 33.6365 39.9672 33.9021 40.0588 34.2059C40.1503 34.5096 40.1393 34.8348 40.0275 35.1317C39.9158 35.4287 39.7093 35.6811 39.4397 35.8503C39.1494 36.0186 38.8158 36.0987 38.4802 36.0806C36.4575 36.0806 34.4318 36.0806 32.406 36.0806C32.3299 36.2715 32.4731 36.3836 32.5431 36.4927C33.717 38.3808 35.5676 39.755 37.7209 40.3378C39.8742 40.9206 42.1695 40.6684 44.1431 39.6323C44.533 39.4262 44.9168 39.205 45.389 39.2868C45.6839 39.3324 45.958 39.4657 46.1755 39.669C46.3929 39.8723 46.5435 40.1363 46.6075 40.4263C46.6742 40.7334 46.6384 41.0538 46.5053 41.3388C46.3722 41.6238 46.1493 41.8578 45.8703 42.0051C44.5689 42.7699 43.1236 43.2608 41.6239 43.4476C36.1773 44.087 31.4587 41.4021 29.2075 36.3927C29.1798 36.2947 29.1173 36.21 29.0316 36.1543C28.9459 36.0986 28.8428 36.0756 28.7414 36.0897C28.1627 36.1109 27.5839 36.0897 27.0051 36.0897C26.8077 36.0987 26.6105 36.0677 26.4254 35.9987C26.2403 35.9298 26.0712 35.8242 25.9283 35.6884C25.7854 35.5525 25.6717 35.3893 25.594 35.2085C25.5163 35.0278 25.4762 34.8332 25.4762 34.6366C25.4762 34.44 25.5163 34.2454 25.594 34.0646C25.6717 33.8839 25.7854 33.7206 25.9283 33.5848C26.0712 33.449 26.2403 33.3434 26.4254 33.2744C26.6105 33.2055 26.8077 33.1745 27.0051 33.1835C27.3706 33.1835 27.7362 33.1835 28.1017 33.1835C28.3028 33.1835 28.3668 33.1168 28.3546 32.9198C28.2865 32.1043 28.3008 31.284 28.3972 30.4712C28.4216 30.2803 28.3211 30.2743 28.187 30.2743H27.0904C26.1765 30.2743 25.5094 29.65 25.5185 28.8075C25.5211 28.6101 25.5638 28.4153 25.6442 28.2348C25.7245 28.0543 25.8408 27.8919 25.986 27.7574C26.1312 27.6228 26.3023 27.519 26.489 27.4521C26.6757 27.3852 26.874 27.3566 27.0721 27.3681C27.6814 27.3681 28.2601 27.3681 28.8511 27.3681C28.9678 27.3815 29.0854 27.3536 29.1835 27.2893C29.2815 27.225 29.3537 27.1285 29.3872 27.0165C30.9499 23.777 33.4539 21.6102 36.9327 20.6526C38.4157 20.2295 39.9692 20.1087 41.5003 20.2972C43.0313 20.4857 44.5083 20.9797 45.8429 21.7496C46.0207 21.8355 46.1792 21.9565 46.3086 22.1051C46.438 22.2538 46.5357 22.4271 46.5957 22.6145C46.6558 22.8019 46.6769 22.9994 46.6579 23.1952C46.6388 23.3909 46.58 23.5808 46.485 23.7532C46.3899 23.9257 46.2607 24.0771 46.105 24.1984C45.9493 24.3196 45.7705 24.4081 45.5794 24.4585C45.3883 24.5089 45.189 24.5201 44.9934 24.4915C44.7978 24.4629 44.6101 24.3951 44.4416 24.2921C42.4409 23.1487 40.0698 22.8293 37.8354 23.4024C35.6011 23.9756 33.6808 25.3956 32.4852 27.359Z" fill="white"/>
</g>
<defs>
<clipPath id="clip0_14_393">
<rect width="76" height="71.4762" fill="white" transform="translate(0.5)"/>
</clipPath>
</defs>
</svg>
