<svg width="74" height="73" viewBox="0 0 74 73" fill="none" xmlns="http://www.w3.org/2000/svg">
<g clip-path="url(#clip0_14_388)">
<path d="M36.9745 73C16.822 72.9585 0.46173 56.5758 0.500067 36.4744C0.538404 16.3731 16.8923 0 36.9522 0H37.0224C46.6992 0.0194511 55.9734 3.87544 62.8115 10.7225C69.6495 17.5695 73.4933 26.8487 73.5001 36.5256C73.4585 56.6525 57.1078 73 37.048 73H36.9745ZM37.0033 2.78582C28.0617 2.78031 19.4842 6.32705 13.1577 12.6458C6.83113 18.9645 3.27382 27.5377 3.26832 36.4792C3.26281 45.4208 6.80955 53.9983 13.1283 60.3248C19.447 66.6514 28.0202 70.2087 36.9617 70.2142H37.0001C45.9416 70.2222 54.5202 66.6779 60.8485 60.361C67.1768 54.044 70.7366 45.4719 70.7446 36.5304C70.7527 27.5888 67.2084 19.0103 60.8914 12.6819C54.5745 6.35361 46.0023 2.79387 37.0608 2.78582H37.0033Z" fill="white"/>
<path d="M35.4218 58.6779C28.0484 58.3585 21.5854 54.3714 17.2118 47.442C16.7837 46.7615 16.8444 46.3558 16.9594 46.0459C17.0335 45.7838 17.1894 45.5523 17.4043 45.3851C17.6193 45.2178 17.882 45.1237 18.1542 45.1162H18.3172C18.555 45.1101 18.7897 45.1718 18.9939 45.294C19.1981 45.4161 19.3634 45.5938 19.4705 45.8063C20.4118 47.4215 21.5695 48.9005 22.9112 50.2023C25.1116 52.3392 27.7693 53.9476 30.6831 54.9058C33.5969 55.864 36.6905 56.1467 39.7297 55.7327C42.7689 55.3188 45.6742 54.2188 48.2255 52.5162C50.7769 50.8136 52.9075 48.553 54.4562 45.9053C54.8747 45.2057 55.3283 45.1162 55.6797 45.1162C55.7266 45.1131 55.7735 45.1131 55.8203 45.1162C56.0968 45.1162 56.3659 45.2059 56.5871 45.3718C56.8083 45.5377 56.9697 45.7709 57.0471 46.0363C57.1589 46.3334 57.2228 46.7232 56.8426 47.3653C54.9469 50.5595 52.3106 53.2506 49.1561 55.2116C45.3735 57.5757 41.0254 58.6779 35.473 58.6779H35.4218Z" fill="white"/>
<path d="M25.2752 30.7175C24.7876 30.7176 24.3047 30.6211 23.8545 30.4336C23.4043 30.246 22.9958 29.9712 22.6524 29.6249C21.9615 28.9199 21.5779 27.97 21.5853 26.9829C21.5872 26.2454 21.808 25.5252 22.2196 24.9133C22.6312 24.3014 23.2151 23.8255 23.8975 23.5458C24.5798 23.2661 25.3298 23.1952 26.0524 23.3421C26.7751 23.489 27.4379 23.8471 27.9568 24.371C28.4758 24.8949 28.8276 25.561 28.9676 26.285C29.1077 27.009 29.0297 27.7583 28.7436 28.438C28.4574 29.1176 27.976 29.697 27.3603 30.1029C26.7446 30.5087 26.0222 30.7226 25.2848 30.7175H25.2752Z" fill="white"/>
<path d="M48.648 30.7175C48.1621 30.7154 47.6814 30.6163 47.2343 30.4259C46.7872 30.2356 46.3826 29.9578 46.0443 29.6089C45.351 28.899 44.9673 27.9432 44.9772 26.9509C44.9855 26.2147 45.2116 25.4975 45.6272 24.8899C46.0428 24.2822 46.6291 23.8112 47.3121 23.5365C47.9951 23.2618 48.7442 23.1956 49.4648 23.3464C50.1854 23.4971 50.8452 23.858 51.3608 24.3834C51.8764 24.9089 52.2248 25.5753 52.362 26.2986C52.4991 27.0219 52.4188 27.7697 52.1313 28.4474C51.8438 29.1251 51.3619 29.7024 50.7465 30.1065C50.1311 30.5105 49.4097 30.7231 48.6736 30.7175H48.648Z" fill="white"/>
</g>
<defs>
<clipPath id="clip0_14_388">
<rect width="73" height="73" fill="white" transform="translate(0.5)"/>
</clipPath>
</defs>
</svg>
