<svg width="79" height="74" viewBox="0 0 79 74" fill="none" xmlns="http://www.w3.org/2000/svg">
<g clip-path="url(#clip0_17_678)">
<path d="M51.2932 74.0094C49.9055 74.0094 48.493 73.9937 47.1333 73.9779L45.6056 73.959C44.4917 73.959 43.3436 73.937 42.2204 73.8583C41.8696 73.8466 41.5257 73.7558 41.214 73.5923C40.9023 73.4288 40.6307 73.1969 40.419 72.9135C39.7669 72.1367 39.4183 71.1453 39.4389 70.1263C39.4612 70.0284 39.4593 69.9265 39.4335 69.8295C39.4076 69.7325 39.3585 69.6435 39.2905 69.5703C39.2225 69.4971 39.1377 69.442 39.0436 69.4099C38.9496 69.3778 38.8492 69.3697 38.7513 69.3862C37.9174 69.3862 37.1054 69.3862 36.2933 69.3862C35.4812 69.3862 34.6443 69.3862 33.8042 69.3862C33.7086 69.3688 33.6103 69.3744 33.5172 69.4023C33.4241 69.4303 33.3387 69.4799 33.268 69.5473C33.1972 69.6146 33.143 69.6978 33.1097 69.7901C33.0764 69.8825 33.0649 69.9814 33.0761 70.0791C33.0593 70.446 33.024 70.8118 32.9703 71.175C32.8241 72.1734 32.2796 72.9702 31.3058 73.6126C30.9624 73.7921 30.5777 73.8748 30.1919 73.852H30.1452C28.4744 73.9276 26.8192 73.937 25.5622 73.937H23.5211H21.4738H20.0457C18.9879 73.937 17.8678 73.915 16.7601 73.8709C15.5871 73.8268 14.8093 73.263 14.3053 72.0915C13.9835 71.2249 13.8119 70.3087 13.7981 69.3831C13.5492 65.7204 12.1678 62.4986 9.5791 59.5351C5.64713 55.0267 2.80331 49.6556 1.27175 43.8451C0.615251 41.3917 0.388121 38.7369 0.553023 35.4206C0.973058 26.9489 4.5978 19.8282 11.645 13.6524C16.4179 9.47006 22.2486 6.6703 28.9754 5.33183C31.4851 4.84296 34.0362 4.60457 36.592 4.62008C38.0979 4.62008 39.6411 4.69251 41.3088 4.83738C43.4108 5.02447 45.4928 5.39538 47.5315 5.94595C47.6325 5.9775 47.7371 5.9955 47.8427 5.99949C47.9462 5.99999 48.0483 5.97434 48.1395 5.92484C48.2308 5.87535 48.3084 5.80358 48.3654 5.71605C49.9211 3.59024 52.2141 2.36515 54.2396 1.44555C56.0437 0.588779 57.9959 0.0976996 59.9863 0L60.1948 0C62.1581 0 63.3342 1.02668 63.888 3.22807C64.0591 3.89573 63.8444 4.54449 63.5769 5.209C63.3093 5.87352 62.9795 6.57267 62.6434 7.22773L62.3728 7.78201C61.9525 8.63543 61.7392 9.57791 61.7505 10.5314C61.7505 11.3408 61.7505 12.0494 61.7505 12.7013C61.749 12.8607 61.782 13.0186 61.847 13.1638C61.912 13.309 62.0076 13.4382 62.127 13.5422L62.8021 14.2193C64.4086 15.7662 65.9077 17.4236 67.2887 19.1795C68.7704 21.1062 69.9915 23.2245 70.9197 25.4781C70.9508 25.56 70.9881 25.6419 71.0255 25.7238C71.0628 25.8057 71.0939 25.8781 71.125 25.9568C71.2004 26.1647 71.3314 26.3472 71.5034 26.4841C71.6754 26.6209 71.8815 26.7066 72.0989 26.7316C72.3882 26.7757 72.6776 26.8072 72.9607 26.8355C73.3689 26.8706 73.775 26.9273 74.1773 27.0056C75.7112 27.3205 78.1505 28.9361 78.1723 31.8367V31.8933C78.1619 32.0823 78.1872 32.2715 78.2469 32.4508V38.5384V38.6928C78.2314 38.8376 78.2158 38.9857 78.2127 39.1337C78.2127 39.3415 78.2127 39.5525 78.1878 39.7635C78.1459 40.2942 78.1521 40.8276 78.2065 41.3571C78.3994 42.768 77.7149 43.8356 76.9433 44.7773C76.1568 45.7056 75.0626 46.3115 73.8661 46.4811C73.2439 46.5945 72.7398 46.6732 72.2669 46.7267C72.0936 46.7404 71.9275 46.8027 71.7873 46.9068C71.6471 47.0108 71.5385 47.1524 71.4735 47.3157C71.2993 47.6747 71.1281 48.0337 70.9539 48.3896C70.3316 49.7123 69.6658 51.076 68.9097 52.3546C67.471 54.7255 65.7361 56.8986 63.748 58.8202C62.8364 59.7272 61.7847 60.7948 60.8513 61.9286C59.6623 63.3754 58.9594 65.1679 58.8445 67.0463L58.8227 67.3171C58.7387 68.4351 58.6516 69.5878 58.6049 70.7278C58.5396 72.2679 57.5315 73.8551 55.4282 73.9307C54.1805 73.9811 52.8333 74.0094 51.2932 74.0094ZM36.2559 7.90799C34.9446 7.89505 33.6336 7.95814 32.3294 8.09695C28.6187 8.53909 25.0008 9.57445 21.6107 11.1644C15.6058 13.9421 10.9357 17.9701 7.73094 23.1319C5.16718 27.2575 3.85418 31.5942 3.80129 36.0221C3.7764 38.3526 3.83863 40.8406 4.47646 43.2467C5.54323 47.1425 7.25489 50.8269 9.53865 54.1434C10.1375 55.0072 10.7793 55.8397 11.4615 56.6377C11.9095 57.1794 12.37 57.7368 12.7962 58.3037C14.0812 60.0201 15.4969 62.1081 16.2685 64.6024C16.8286 66.4164 17.0121 68.2997 17.1677 70.2271C17.1596 70.3207 17.1722 70.4149 17.2047 70.503C17.2373 70.591 17.2888 70.6705 17.3557 70.7357C17.4225 70.801 17.5029 70.8502 17.5909 70.8799C17.679 70.9096 17.7725 70.919 17.8647 70.9073C21.4458 70.8632 25.1577 70.8318 29.2336 70.8034C29.3193 70.8151 29.4065 70.8071 29.4887 70.7801C29.5709 70.753 29.6461 70.7075 29.7086 70.647C29.771 70.5865 29.8192 70.5125 29.8496 70.4305C29.8799 70.3485 29.8917 70.2607 29.8839 70.1735C29.9305 69.2602 29.9897 68.2021 30.083 67.1596C30.1639 66.2463 30.5995 65.8243 31.4613 65.8243C31.5204 65.8243 31.5827 65.8243 31.6449 65.8243C31.9809 65.8464 32.317 65.8747 32.653 65.903C33.0792 65.9408 33.5211 65.9786 33.9566 66.0038C35.5652 66.0889 37.1987 66.1014 38.7762 66.114C39.7531 66.114 40.7643 66.114 41.7568 66.155C41.8798 66.144 42.003 66.1745 42.1071 66.2418C42.2112 66.309 42.2904 66.4091 42.3324 66.5266C42.4095 66.6972 42.475 66.873 42.5285 67.0526C42.741 67.9639 42.8176 68.9023 42.7556 69.8366V70.2302C42.7463 70.3205 42.7553 70.4118 42.7821 70.4984C42.8088 70.585 42.8528 70.6653 42.9112 70.7341C42.9767 70.7924 43.0532 70.8367 43.1361 70.8643C43.219 70.8919 43.3065 70.9023 43.3934 70.8947C44.3611 70.8947 45.3162 70.8947 46.2745 70.8947H49.3859V70.794H51.9155H54.8028C54.8943 70.8059 54.9873 70.7971 55.075 70.7681C55.1628 70.7392 55.243 70.6909 55.3101 70.6267C55.3771 70.5625 55.4291 70.484 55.4625 70.3969C55.4958 70.3098 55.5096 70.2163 55.5029 70.1232C55.5029 69.7736 55.5309 69.424 55.5495 69.0744C55.5744 68.6083 55.5993 68.1296 55.6024 67.6509C55.5804 64.4801 56.788 61.4271 58.9658 59.1477L60.2321 57.7935C61.1127 56.8487 62.0243 55.8756 62.9079 54.9024C65.6397 51.9042 67.5034 48.799 68.6048 45.4009C68.7223 45.0478 68.8691 44.7054 69.0435 44.3773C69.1741 44.1174 69.367 43.8947 69.6045 43.7296C69.842 43.5646 70.1166 43.4624 70.4032 43.4325C70.7999 43.3751 71.2004 43.3488 71.6011 43.3538C71.7971 43.3538 71.99 43.3538 72.186 43.3538H72.298C72.7539 43.3724 73.2086 43.2928 73.6318 43.1201C74.055 42.9475 74.4371 42.6857 74.7529 42.3523C74.8571 42.2562 74.9409 42.1396 74.9992 42.0097C75.0575 41.8797 75.0891 41.7391 75.092 41.5965C75.092 40.3903 75.1169 39.1841 75.1325 37.9779C75.1491 36.8378 75.1625 35.6988 75.1729 34.5608C75.1984 33.6916 75.1443 32.8218 75.0111 31.9626C74.9571 31.492 74.7398 31.0561 74.398 30.7326C74.0561 30.409 73.6118 30.2188 73.1443 30.1958C72.6068 30.1412 72.0665 30.1191 71.5264 30.1297H70.8792C69.7778 30.1045 69.1244 29.6447 68.7013 28.5897C66.8718 24.0798 64.7467 20.7163 62.0087 18.0583C61.1313 17.1985 60.2321 16.3199 59.3952 15.4097C59.1465 15.1629 58.9681 14.8529 58.8787 14.5121C58.3747 12.1848 58.3498 10.4023 58.7978 8.73311L58.8942 8.38039C59.2583 7.01672 59.6348 5.60582 60.4935 4.44686C60.5768 4.35443 60.6328 4.24027 60.6554 4.11728C60.6779 3.99429 60.666 3.86738 60.6211 3.75086C60.5638 3.63266 60.4754 3.53276 60.3656 3.46219C60.2558 3.39161 60.1288 3.3531 59.9988 3.3509C59.8862 3.33835 59.7729 3.33204 59.6596 3.332C59.5654 3.32565 59.4708 3.32565 59.3765 3.332C57.5973 3.57058 55.8817 4.16014 54.3268 5.06728C52.8769 5.86092 51.5763 7.00728 50.1078 8.7835C49.6535 9.33149 49.1743 9.58973 48.6547 9.58973C48.4294 9.58688 48.2058 9.54863 47.992 9.47636C47.9268 9.45514 47.8603 9.43831 47.7929 9.42597C47.7519 9.4206 47.7113 9.41218 47.6716 9.40077C44.751 8.50891 41.726 8.01536 38.6766 7.93318H38.2317C37.5721 7.91744 36.9031 7.90799 36.2559 7.90799Z" fill="white"/>
<path d="M41.1718 34.3089H43.5613C44.8961 34.3089 45.1761 34.7435 44.6067 35.9371C42.6341 40.0816 40.6636 44.2241 38.6951 48.3644C38.0293 49.7627 37.351 51.1547 36.6945 52.5593C36.4767 53.0254 36.2216 53.4285 35.6398 53.2837C34.9895 53.1231 34.9957 52.5971 35.0704 52.0617C35.618 48.251 36.1469 44.434 36.7287 40.6265C36.8407 39.8958 36.6976 39.6628 35.954 39.6817C34.1836 39.7226 32.4102 39.7006 30.6398 39.6817C29.5508 39.6817 29.2366 39.1967 29.7064 38.2204C32.3656 32.6251 35.0299 27.0297 37.6995 21.4344C37.9204 20.9746 38.1693 20.5589 38.7573 20.7101C39.3983 20.8738 39.4014 21.3935 39.3236 21.932C38.7698 25.7553 38.2315 29.5692 37.6497 33.383C37.5377 34.1136 37.6808 34.3687 38.4244 34.3278C39.3392 34.2711 40.2539 34.3089 41.1718 34.3089Z" fill="white"/>
</g>
<defs>
<clipPath id="clip0_17_678">
<rect width="77.7468" height="74" fill="white" transform="translate(0.5)"/>
</clipPath>
</defs>
</svg>
