<svg width="71" height="70" viewBox="0 0 71 70" fill="none" xmlns="http://www.w3.org/2000/svg">
<path d="M35.9892 43.1634C35.1335 43.1634 34.5342 42.4931 34.5311 41.5292C34.5311 38.9054 34.5311 36.2826 34.5311 33.6608V30.4696C34.5311 30.278 34.5311 30.0896 34.5311 29.8981C34.5311 29.4779 34.5311 29.0454 34.5311 28.6253C34.5712 27.8869 34.2221 27.473 33.4467 27.3896C28.1097 26.8978 23.0636 24.7358 19.026 21.211C13.1965 16.1044 10.135 9.53352 9.93422 1.67748C9.91259 0.861909 10.2431 0.358357 11.0773 0.00308928H13.2892C13.4714 0.0308928 13.6661 0.0556071 13.8823 0.0834106H13.9348C14.4168 0.145196 14.9172 0.210071 15.3992 0.296571C24.4446 1.92771 31.0803 6.96324 35.1304 15.2672C35.142 15.2914 35.1523 15.3161 35.1613 15.3414C35.2393 15.6389 35.4254 15.8967 35.6834 16.0643L36.017 16.2589L36.3259 16.0488C36.574 15.8724 36.754 15.6161 36.8357 15.3228C36.848 15.284 36.8625 15.2458 36.8789 15.2085C40.5057 7.74174 46.3723 2.8823 54.321 0.766142C55.2536 0.539155 56.1984 0.365871 57.1508 0.247142C57.676 0.173 58.2135 0.0957677 58.7448 0H60.9321C61.7909 0.355267 62.1091 0.942231 62.072 2.08835C61.9183 7.83009 59.8785 13.3615 56.2676 17.8283C52.6567 22.2952 47.6756 25.4489 42.0936 26.8026C40.9795 27.0909 39.8425 27.2821 38.6954 27.3741C37.8551 27.4359 37.4597 27.8808 37.4597 28.7365C37.4813 32.9843 37.4597 37.3865 37.4597 41.2543V41.5323C37.4597 42.4375 36.95 43.0769 36.1684 43.1542C36.1107 43.1603 36.051 43.1634 35.9892 43.1634ZM58.1826 3.06457C58.112 3.06502 58.0417 3.07226 57.9725 3.08619C56.752 3.2392 55.5433 3.47557 54.355 3.79364C45.6247 6.10751 38.5997 14.2725 37.6296 23.2098C37.5958 23.3727 37.5971 23.541 37.6333 23.7035C37.6695 23.8659 37.7399 24.0188 37.8397 24.152C37.9325 24.2498 38.0456 24.3262 38.1709 24.3758C38.2963 24.4255 38.431 24.4471 38.5657 24.4393C38.6617 24.4384 38.7576 24.4322 38.853 24.4208C43.8082 23.8127 48.4282 21.5993 52.0071 18.1186C55.8532 14.4565 58.3042 9.56969 58.9395 4.29719C58.9395 4.2663 58.9395 4.2354 58.9395 4.20142C58.9821 4.0556 58.9904 3.90186 58.9636 3.75231C58.9368 3.60275 58.8757 3.46145 58.785 3.33951C58.7114 3.25172 58.6191 3.18147 58.5149 3.1339C58.4107 3.08633 58.2972 3.06264 58.1826 3.06457ZM13.8761 3.06457C13.7488 3.06211 13.6225 3.08864 13.5069 3.14216C13.3913 3.19568 13.2894 3.27479 13.2089 3.37349C13.1121 3.50975 13.0474 3.66609 13.0196 3.83086C12.9918 3.99562 13.0016 4.16454 13.0482 4.32499C13.1007 4.58758 13.1409 4.85635 13.1841 5.13747C13.2274 5.4186 13.2799 5.78313 13.351 6.11369C15.5011 15.9716 23.0451 22.9812 33.0482 24.4053C33.1617 24.4227 33.2763 24.432 33.3911 24.4331C33.5347 24.4423 33.6786 24.4194 33.8122 24.366C33.9458 24.3125 34.0658 24.2299 34.1634 24.1242C34.2708 23.9735 34.3429 23.8005 34.3744 23.6182C34.4059 23.4359 34.3961 23.2488 34.3457 23.0708C33.6032 17.3932 30.7741 12.1953 26.4094 8.48934C22.9575 5.50799 18.6927 3.62736 14.1634 3.08928C14.0688 3.0713 13.9724 3.06405 13.8761 3.06766V3.06457Z" fill="white"/>
<path d="M23.7588 70C21.1823 70 18.6079 70 16.0356 70C15.013 70 14.4353 69.4315 14.4075 68.3966C14.3797 67.3617 14.3828 66.4751 14.4075 65.6564C14.4279 65.3438 14.378 65.0306 14.2614 64.7398C14.1449 64.4489 13.9647 64.1879 13.734 63.9759C11.3532 61.6116 8.97656 59.2431 6.60399 56.8705C5.06347 55.3259 3.51883 53.7813 1.97007 52.2366C1.58297 51.8782 1.25459 51.4612 0.996948 51.0009V23.4445C1.35222 22.6753 1.89902 22.3633 2.87523 22.3633H3.11928C8.35252 22.629 12.7146 27.0652 12.8412 32.249C12.8845 34.0068 12.8783 35.7862 12.8721 37.5008C12.8721 38.409 12.8721 39.3173 12.8721 40.2255C12.8721 40.2626 12.8721 40.3027 12.8721 40.3398C12.8294 40.6669 12.8853 40.9993 13.0328 41.2944L13.3417 41.8814L13.9009 41.523C14.0739 41.4118 14.2438 41.2975 14.4137 41.1801C14.7595 40.9306 15.1301 40.7173 15.5196 40.5437C16.3962 40.1552 17.3414 39.9451 18.3 39.9258C19.7973 39.9406 21.2292 40.5417 22.2883 41.6002C25.152 44.2879 27.9386 47.1609 30.2864 49.5829C32.0434 51.3933 33.0167 53.8227 32.9957 56.3454C33.0359 59.6169 33.0266 62.9379 33.0142 66.1538V68.3657C33.0142 69.3914 32.4304 69.9814 31.4171 69.9814C28.8509 69.9959 26.2981 70.002 23.7588 70ZM23.7093 67.0559C25.4187 67.0559 27.1261 67.061 28.8314 67.0713C29.169 67.0951 29.5023 66.984 29.7581 66.7624C29.8699 66.637 29.955 66.4902 30.0081 66.3308C30.0612 66.1715 30.0813 66.003 30.0671 65.8356C30.0454 62.802 30.0423 59.8115 30.0671 56.9447C30.0942 55.8519 29.8932 54.7654 29.4767 53.7548C29.0602 52.7441 28.4374 51.8314 27.6482 51.075C26.5051 49.9536 25.3374 48.7797 24.3086 47.7448L24.2221 47.6583L22.6775 46.1137C22.452 45.8912 22.2296 45.6626 22.0071 45.4371C21.4511 44.8718 20.8826 44.291 20.2833 43.7473C19.655 43.1862 18.8339 42.8899 17.9921 42.9204C17.1502 42.9509 16.3528 43.306 15.7668 43.9111C15.1808 44.5163 14.8516 45.3247 14.8481 46.1672C14.8447 47.0096 15.1672 47.8207 15.7483 48.4306C16.017 48.7179 16.292 48.9898 16.5607 49.2555L16.8913 49.5829L18.3463 51.0349L21.3151 54.0068C21.5459 54.2054 21.7075 54.4724 21.7763 54.769C21.8452 55.0656 21.8179 55.3764 21.6982 55.6565C21.6142 55.9262 21.4458 56.1619 21.2177 56.3287C20.9897 56.4955 20.7141 56.5848 20.4316 56.5832H20.3204C19.9002 56.5832 19.5203 56.3855 19.0847 55.9407L18.5533 55.4093C16.017 52.8576 13.3942 50.2224 10.7652 47.6336C10.4854 47.3784 10.2648 47.065 10.1191 46.7154C9.97339 46.3658 9.90607 45.9885 9.92187 45.6101C9.94041 43.114 9.93732 40.5375 9.93732 38.2669V38.0414C9.93732 36.367 9.93732 34.6936 9.93732 33.0213C9.95616 31.4812 9.52684 29.9689 8.70161 28.6685C7.79458 27.2337 6.39869 26.1758 4.77205 25.6904L4.03062 25.4587L3.97192 26.2311V26.3855C3.97192 26.4967 3.95339 26.5894 3.95339 26.6945V31.9215C3.95339 37.7355 3.95339 43.5496 3.95339 49.3636C3.95694 49.6143 4.01389 49.8613 4.12043 50.0882C4.22697 50.3151 4.38066 50.5168 4.57124 50.6796L5.27869 51.3871C8.68925 54.7873 12.0926 58.1855 15.4888 61.5817L16.1808 62.2675C17.3763 63.4383 17.3763 63.4383 17.3578 65.0479C17.3578 65.295 17.3578 65.5761 17.3578 65.8943C17.3363 66.0569 17.3526 66.2223 17.4055 66.3776C17.4584 66.5329 17.5464 66.6739 17.6627 66.7896C17.779 66.9053 17.9204 66.9926 18.076 67.0446C18.2315 67.0967 18.397 67.1122 18.5595 67.0899C20.2679 67.0621 21.9886 67.0559 23.7093 67.0559Z" fill="white"/>
<path d="M48.3648 70.0001H40.7127C39.5727 70.0001 38.995 69.4255 38.995 68.2917V66.4381C38.995 63.2314 38.995 59.9167 38.995 56.6204C38.9828 55.2476 39.247 53.8865 39.7719 52.618C40.2968 51.3495 41.0717 50.1997 42.0503 49.237C44.1016 47.1703 46.2456 45.0294 48.1362 43.1419L49.2236 42.0575C50.5984 40.6859 52.1894 39.963 53.8236 39.963C55.2831 39.9936 56.6933 40.4966 57.8427 41.3964C57.9109 41.4434 57.9821 41.4857 58.0559 41.5231L58.2104 41.6065L59.1372 42.1162V41.0659C59.1372 40.5561 59.1372 40.0526 59.1372 39.5552V39.3606C59.1372 38.165 59.1372 36.9293 59.1372 35.706C59.1372 35.2395 59.1372 34.7792 59.1372 34.3096C59.1186 32.9194 59.1032 31.6065 59.4152 30.2935C59.9617 28.0689 61.2265 26.0865 63.0136 24.6534C64.8008 23.2203 67.0106 22.4165 69.3009 22.3665H69.338C70.4254 22.3665 71 22.9318 71 23.9976C71 27.5606 71 31.1246 71 34.6896C71 39.9311 71 45.1746 71 50.4202C70.9991 50.7086 70.9369 50.9935 70.8176 51.2561C70.6983 51.5186 70.5246 51.7529 70.308 51.9432L65.0562 57.195L64.6948 57.5595C62.5508 59.7035 60.4048 61.8444 58.2567 63.9821C58.0324 64.1842 57.856 64.4339 57.7406 64.7129C57.6251 64.9919 57.5735 65.2932 57.5894 65.5947C57.6234 66.4567 57.611 67.3402 57.5894 68.1928V68.2732C57.574 69.4285 57.0117 69.9939 55.8718 69.9939L48.3648 70.0001ZM53.9255 42.8947C53.0147 42.9091 52.1468 43.2847 51.5128 43.9389C49.2762 46.1508 46.9314 48.4956 44.1325 51.3161C43.4237 52.0204 42.8646 52.8607 42.4887 53.7866C42.1128 54.7124 41.928 55.7047 41.9453 56.7038C41.9453 57.7624 41.9453 58.823 41.9453 59.8858V59.963C41.9453 61.8783 41.9453 63.8617 41.9453 65.8079C41.9178 65.9798 41.9314 66.1558 41.985 66.3214C42.0386 66.487 42.1306 66.6376 42.2536 66.7608C42.3765 66.8841 42.5269 66.9765 42.6924 67.0304C42.8578 67.0844 43.0338 67.0985 43.2057 67.0714C44.8091 67.0714 46.3815 67.056 47.957 67.056H52.591C53.4529 67.056 53.975 67.056 54.3426 66.6667C54.7102 66.2775 54.6793 65.6936 54.633 64.9614C54.5712 63.9327 54.9048 63.145 55.7482 62.317C58.1949 59.9197 60.6571 57.4545 63.0358 55.0727L63.0667 55.0418C64.5084 53.6001 65.95 52.1646 67.3917 50.7353C67.6187 50.527 67.7979 50.2719 67.9168 49.9876C68.0357 49.7033 68.0916 49.3967 68.0806 49.0887C68.0806 43.1728 68.0806 37.1765 68.0806 31.381V25.5484L67.3577 25.672C67.2729 25.6818 67.1891 25.6994 67.1075 25.7245C64.1202 26.6822 62.1059 29.5429 62.0936 32.8484C62.0781 37.1178 62.0936 41.2327 62.0936 45.7832C62.1161 46.0608 62.0802 46.34 61.9881 46.6029C61.8961 46.8658 61.7499 47.1064 61.5591 47.3093L52.7547 56.1076C52.6208 56.2527 52.4584 56.3688 52.2777 56.4485C52.097 56.5282 51.9018 56.5699 51.7043 56.571C51.6539 56.574 51.6034 56.574 51.553 56.571C51.2799 56.5683 51.0144 56.4811 50.7931 56.3211C50.5717 56.1612 50.4055 55.9366 50.3173 55.6782C50.1928 55.402 50.1604 55.0932 50.2249 54.7972C50.2895 54.5013 50.4475 54.2339 50.6756 54.0347C51.4088 53.2974 52.144 52.5611 52.8814 51.8258C53.9688 50.7405 55.0511 49.6541 56.1282 48.5666C57.4844 47.1919 57.5307 45.2302 56.2394 43.9018C55.9401 43.5851 55.5796 43.3325 55.1797 43.1594C54.7798 42.9863 54.3489 42.8962 53.9132 42.8947H53.9255Z" fill="white"/>
</svg>
