<svg id="Calque_1" width="274" height="102" data-name="Calque 1" xmlns="http://www.w3.org/2000/svg" viewBox="0 0 274 102"><defs><style>.cls-1{fill:#fff;}.cls-2{fill:#046c9b;}.cls-3{fill:#02a9d1;}.cls-4{fill:#76b801;}</style></defs><polygon class="cls-1" points="43.04 5.34 43.04 99.27 273.8 99.27 259.93 52.89 273.8 5.34 43.04 5.34"/><polygon class="cls-2" points="113.17 18.84 115.8 18.84 115.8 34.58 121.01 34.58 121.01 37.21 113.17 37.21 113.17 18.84"/><path class="cls-2" d="M124.7,29.6h2.58V28.1c0-1-.49-1.49-1.29-1.49s-1.29.51-1.29,1.49Zm0,2.06v1.78A1.18,1.18,0,0,0,126,34.73a1.24,1.24,0,0,0,1.29-1.31h2.63a4,4,0,0,1-1.06,2.78A3.83,3.83,0,0,1,126,37.36a3.75,3.75,0,0,1-3.43-1.88,5.78,5.78,0,0,1-.49-2.66V28.51a5.76,5.76,0,0,1,.49-2.65A3.74,3.74,0,0,1,126,24a3.82,3.82,0,0,1,3.92,4.08v3.61Z"/><path class="cls-2" d="M136.39,27.79A1.31,1.31,0,0,0,135,26.45a1.26,1.26,0,0,0-1.28,1.32c0,.49.12.95,1.1,1.34l1.55.62A3.64,3.64,0,0,1,139,33.42a3.87,3.87,0,0,1-3.92,3.94,3.8,3.8,0,0,1-3.92-3.94h2.48c.1.72.43,1.47,1.41,1.47a1.44,1.44,0,0,0,1.48-1.42c0-.72-.31-1.21-1.32-1.6l-1.26-.47a3.71,3.71,0,0,1-2.66-3.61A3.79,3.79,0,0,1,135.15,24a3.69,3.69,0,0,1,3.71,3.82Z"/><path class="cls-2" d="M234.19,26.29a1.51,1.51,0,0,0-1.55-1.55,1.47,1.47,0,0,0-1.5,1.52c0,.57.15,1.11,1.29,1.56l1.79.72a4.22,4.22,0,0,1,3,4.27,4.5,4.5,0,0,1-4.54,4.58,4.42,4.42,0,0,1-4.55-4.58H231c.12.84.51,1.71,1.65,1.71a1.65,1.65,0,0,0,1.7-1.65c0-.83-.36-1.4-1.52-1.85l-1.47-.54a4.32,4.32,0,0,1-3.08-4.19,4.39,4.39,0,0,1,4.49-4.42,4.27,4.27,0,0,1,4.3,4.42Zm-11.63-8.85h3.05v4.61h1.88v2.39h-1.88v8.4c0,1.41.54,1.5,1.88,1.5v2.87h-1.25a3.39,3.39,0,0,1-3.68-3.56V24.44H221V22.05h1.53Zm-5.29,13.25a4.46,4.46,0,0,0-.84-.09c-1.32,0-2.39.54-2.39,2.15,0,1.17.59,2,1.58,2s1.65-.72,1.65-2Zm0,5h-.06a3.25,3.25,0,0,1-2.93,1.74c-1.41,0-3.29-.69-3.29-4s1-5.14,4.81-5.14c.42,0,.84.06,1.47.09V26.71c0-1-.39-1.79-1.53-1.79A1.77,1.77,0,0,0,214,26.44h-3a5,5,0,0,1,1.37-3.29,4.6,4.6,0,0,1,3.32-1.28c2.54,0,4.58,1.61,4.58,4.78V37.21h-3Zm-13.61-2.81a1.37,1.37,0,0,0,1.49,1.5c1.17,0,1.44-.87,1.5-1.53h3A4.64,4.64,0,0,1,208.47,36a4.44,4.44,0,0,1-3.32,1.35,4.32,4.32,0,0,1-4-2.19,6.63,6.63,0,0,1-.57-3.08v-5a6.68,6.68,0,0,1,.57-3.08,4.33,4.33,0,0,1,4-2.18c2.81,0,4.55,2,4.55,4.84h-3c0-1.22-.57-1.79-1.5-1.79s-1.49.6-1.49,1.73Zm-8.8-10.79h3V37.21h-3Zm0-6.13h3v3h-3Zm-6.21,8.52h-1.5V22.05h1.5V20a3.7,3.7,0,0,1,3.91-4.06H194v2.87h-1.38c-.57,0-.9.39-.9,1.05v2.21H194v2.39h-2.28V37.21h-3Zm-6-2.39h3.05V37.21h-3.05Zm0-6.13h3.05v3h-3.05Zm-6.1,1.52h3v4.61h1.89v2.39h-1.89v8.4c0,1.41.54,1.5,1.89,1.5v2.87h-1.26a3.39,3.39,0,0,1-3.68-3.56V24.44h-1.52V22.05h1.52Zm-8.31,4.61h3.05v1.61a5.57,5.57,0,0,1,4-1.79V25.1a2.36,2.36,0,0,0-.92-.18,3,3,0,0,0-3.11,3.29v9h-3.05ZM160,28.39h3V26.65c0-1.13-.56-1.73-1.49-1.73s-1.5.6-1.5,1.73Zm0,2.39v2.06a1.37,1.37,0,0,0,1.5,1.5c1.16,0,1.43-.87,1.49-1.53H166A4.63,4.63,0,0,1,164.81,36a4.46,4.46,0,0,1-3.32,1.35,4.34,4.34,0,0,1-4-2.19,6.63,6.63,0,0,1-.57-3.08v-5a6.68,6.68,0,0,1,.57-3.08,4.35,4.35,0,0,1,4-2.18A4.42,4.42,0,0,1,166,26.59v4.19Zm-10.61,2.06a1.37,1.37,0,0,0,1.49,1.5c1.17,0,1.44-.87,1.5-1.53h3A4.64,4.64,0,0,1,154.19,36a4.44,4.44,0,0,1-3.32,1.35,4.35,4.35,0,0,1-4-2.19,6.76,6.76,0,0,1-.56-3.08v-5a6.82,6.82,0,0,1,.56-3.08,4.36,4.36,0,0,1,4-2.18c2.81,0,4.55,2,4.55,4.84h-3c0-1.22-.57-1.79-1.5-1.79s-1.49.6-1.49,1.73Z"/><path class="cls-3" d="M237.8,48.39A4.75,4.75,0,0,0,233,43.81c-3.34,0-5,2.48-5,5.55,0,2.54.65,4.19,3.16,5.21l2.08.86c1.43.57,1.69.91,1.69,3.07,0,1.85-.14,3-2.11,3a1.92,1.92,0,0,1-2.06-2.08v-.91h-2.91v1.08a4.8,4.8,0,0,0,5,4.82c3.76,0,5-2.54,5-6,0-3-.49-4.58-3.05-5.55L232.52,52c-1.51-.6-1.65-1.14-1.65-2.71,0-1.34.37-2.62,2-2.62s2.06,1.11,2.06,2.45v.66h2.91ZM217.26,64.25h8.67v-2.9h-5.76v-6h5V52.66h-5V46.71h5.76V44h-8.67Zm-6.3,0h2.91V44H211Zm-16.51,0h2.91V51.92h0l2.85,8.72h1.46l2.88-8.72h.06V64.25h2.91V44h-2.83L201,54.71H201L197.24,44h-2.79Zm-12.89-4.78a4.88,4.88,0,1,0,9.75,0V48.76a4.88,4.88,0,1,0-9.75,0Zm2.9-10.71a2,2,0,1,1,3.94,0V59.47a2,2,0,1,1-3.94,0ZM168.38,64.25h2.91V52.07h.06l4.44,12.18h2.74V44h-2.91V56.2h-.05L171.17,44h-2.79ZM155.6,59.47a4.88,4.88,0,1,0,9.76,0V48.76a4.88,4.88,0,1,0-9.76,0Zm2.91-10.71a2,2,0,1,1,3.94,0V59.47a2,2,0,1,1-3.94,0Zm-5.67,9.71h-2.91v1a1.79,1.79,0,0,1-1.83,2.05c-1.31,0-1.77-.91-1.77-2.08V49.08c0-1.37.35-2.37,1.8-2.37a1.91,1.91,0,0,1,1.8,2.11v1h2.91V48.65a4.62,4.62,0,0,0-4.68-4.84,4.54,4.54,0,0,0-4.74,4.67V59.64c0,3.7,2.57,4.79,4.8,4.79a4.7,4.7,0,0,0,4.62-4.7Zm-20.37,5.78h8.67v-2.9h-5.76v-6h5V52.66h-5V46.71h5.76V44h-8.67Zm2.34-21.18h1.88l3.77-4h-3.08ZM126.43,49l2.91-2.11V44h-2.91ZM113.88,64.25h4.05c3.42,0,5.36-1.79,5.36-5.55V49.22c0-3.28-1.83-5.24-5.11-5.24h-4.3Zm2.91-17.54h1.34c1.71,0,2.25.91,2.25,2.51V59c0,1.73-.63,2.53-2.25,2.53h-1.34Z"/><path class="cls-3" d="M237.8,48.39A4.75,4.75,0,0,0,233,43.81c-3.34,0-5,2.48-5,5.55,0,2.54.65,4.19,3.16,5.21l2.08.86c1.43.57,1.69.91,1.69,3.07,0,1.85-.14,3-2.11,3a1.92,1.92,0,0,1-2.06-2.08v-.91h-2.91v1.08a4.8,4.8,0,0,0,5,4.82c3.76,0,5-2.54,5-6,0-3-.49-4.58-3.05-5.55L232.52,52c-1.51-.6-1.65-1.14-1.65-2.71,0-1.34.37-2.62,2-2.62s2.06,1.11,2.06,2.45v.66h2.91ZM217.26,64.25h8.67v-2.9h-5.76v-6h5V52.66h-5V46.71h5.76V44h-8.67Zm-6.3,0h2.91V44H211Zm-16.51,0h2.91V51.92h0l2.85,8.72h1.46l2.88-8.72h.06V64.25h2.91V44h-2.83L201,54.71H201L197.24,44h-2.79Zm-12.89-4.78a4.88,4.88,0,1,0,9.75,0V48.76a4.88,4.88,0,1,0-9.75,0Zm2.9-10.71a2,2,0,1,1,3.94,0V59.47a2,2,0,1,1-3.94,0ZM168.38,64.25h2.91V52.07h.06l4.44,12.18h2.74V44h-2.91V56.2h-.05L171.17,44h-2.79ZM155.6,59.47a4.88,4.88,0,1,0,9.76,0V48.76a4.88,4.88,0,1,0-9.76,0Zm2.91-10.71a2,2,0,1,1,3.94,0V59.47a2,2,0,1,1-3.94,0Zm-5.67,9.71h-2.91v1a1.79,1.79,0,0,1-1.83,2.05c-1.31,0-1.77-.91-1.77-2.08V49.08c0-1.37.35-2.37,1.8-2.37a1.91,1.91,0,0,1,1.8,2.11v1h2.91V48.65a4.62,4.62,0,0,0-4.68-4.84,4.54,4.54,0,0,0-4.74,4.67V59.64c0,3.7,2.57,4.79,4.8,4.79a4.7,4.7,0,0,0,4.62-4.7Zm-20.37,5.78h8.67v-2.9h-5.76v-6h5V52.66h-5V46.71h5.76V44h-8.67Zm2.34-21.18h1.88l3.77-4h-3.08ZM126.43,49l2.91-2.11V44h-2.91ZM113.88,64.25h4.05c3.42,0,5.36-1.79,5.36-5.55V49.22c0-3.28-1.83-5.24-5.11-5.24h-4.3Zm2.91-17.54h1.34c1.71,0,2.25.91,2.25,2.51V59c0,1.73-.63,2.53-2.25,2.53h-1.34Z"/><path class="cls-3" d="M116.77,61.54h1.34c1.62,0,2.25-.8,2.25-2.54V49.21c0-1.6-.54-2.51-2.25-2.51h-1.34ZM113.85,44h4.31c3.28,0,5.11,2,5.11,5.25v9.5c0,3.77-1.94,5.57-5.36,5.57h-4.06Z"/><path class="cls-4" d="M119.06,84.6h1.33a2.57,2.57,0,0,0,2.15-1.24,5.73,5.73,0,0,0,.87-3.36,6.07,6.07,0,0,0-.78-3.14,2.45,2.45,0,0,0-2.24-1.32h-1.33Zm-5.12,3.83V71.75h6.45q4.2,0,6.3,2.49A8.76,8.76,0,0,1,128.78,80a8.4,8.4,0,0,1-2.25,6.08,7.68,7.68,0,0,1-5.82,2.34Z"/><polygon class="cls-4" points="135.03 71.75 135.03 75.25 132.75 78.95 130.82 78.95 132.5 75.63 130.82 75.63 130.82 71.75 135.03 71.75"/><path class="cls-4" d="M141.84,68.65l5.59-2.74.89,2.38-5.84,2Zm8.53,15.8v4H137.82V71.75h12.55V75.6h-7.53V78h6.09v3.71h-6.09v2.72Z"/><path class="cls-4" d="M166.66,88.43h-4.17l-4.56-7.37a27.74,27.74,0,0,1-1.78-3.44,11.5,11.5,0,0,1,.4,2.74v8.07H152.4V71.75h4.84l3.89,6.11a24.58,24.58,0,0,1,1.76,3.2,23.37,23.37,0,0,1-.4-4.37V71.75h4.17Z"/><polygon class="cls-4" points="182.12 84.45 182.12 88.43 169.57 88.43 169.57 71.75 182.12 71.75 182.12 75.6 174.59 75.6 174.59 78.02 180.68 78.02 180.68 81.72 174.59 81.72 174.59 84.45 182.12 84.45"/><path class="cls-4" d="M189.27,78.49h2.19a2.68,2.68,0,0,0,1.55-.41,1.35,1.35,0,0,0,.59-1.18c0-1.07-.66-1.6-2-1.6h-2.36ZM199,88.43h-5.68l-2.43-6.38h-1.62v6.38h-5.12V71.75h8.72a6.7,6.7,0,0,1,4.47,1.35,4.43,4.43,0,0,1,1.6,3.57,5.32,5.32,0,0,1-.59,2.54,4.9,4.9,0,0,1-2.37,2Z"/><path class="cls-4" d="M215.66,79.09v9.34h-2.51a9.92,9.92,0,0,0-.67-1.74,5.48,5.48,0,0,1-4.6,2,6.89,6.89,0,0,1-5.3-2.25,8.66,8.66,0,0,1-2.08-6.11,9.85,9.85,0,0,1,2-6.29,7.18,7.18,0,0,1,6-2.54A7.29,7.29,0,0,1,213.3,73a7.15,7.15,0,0,1,2.36,4.3l-5,.49c-.24-1.73-1-2.6-2.28-2.6q-2.52,0-2.52,4.79c0,1.93.27,3.2.81,3.82a2.51,2.51,0,0,0,2,.92,2.39,2.39,0,0,0,1.59-.56,2,2,0,0,0,.66-1.54h-2.76V79.09Z"/><rect class="cls-4" x="218.36" y="71.75" width="5.12" height="16.68"/><polygon class="cls-4" points="238.94 84.45 238.94 88.43 226.38 88.43 226.38 71.75 238.94 71.75 238.94 75.6 231.41 75.6 231.41 78.02 237.5 78.02 237.5 81.72 231.41 81.72 231.41 84.45 238.94 84.45"/><path class="cls-4" d="M99.08,39.19c-1.33-5.3-.75-11.35-3.48-15.75-2.84-4.56-8.55-6.67-12.56-10S75.92,4.68,71,2.68c-3.12-1.27-6.63-1.06-10.16-.84a44,44,0,0,1-5.84.1C49.89,1.57,44.35-.94,39.09.38s-9,6.12-13.34,8.86C21.23,12.08,15.32,13.38,12,17.4S8.37,27.58,6.39,32.5.39,41.91,0,47.27c-.35,5.17,3,10.24,4.32,15.54s.74,11.35,3.48,15.75c2.83,4.57,8.54,6.67,12.56,10s7.11,8.71,12,10.71c3.11,1.28,6.63,1.06,10.16.85a45.59,45.59,0,0,1,5.83-.11c5.14.37,10.68,2.88,15.94,1.57s9-6.13,13.34-8.87c4.53-2.84,10.43-4.14,13.78-8.16S95.06,74.43,97,69.5s6-9.41,6.37-14.76c.35-5.18-3-10.24-4.32-15.55"/><path class="cls-1" d="M94.17,40.41A43.76,43.76,0,1,0,62.38,93.79,43.93,43.93,0,0,0,94.17,40.41"/><path class="cls-2" d="M42.68,11.78a.81.81,0,0,1-1-.61.84.84,0,0,1,.61-1,.83.83,0,0,1,.39,1.61ZM38.94,12a.82.82,0,1,1,1.57-.49.85.85,0,0,1-.55,1h0a.83.83,0,0,1-1-.56m6.51-.72h0a.77.77,0,1,1,.07,0ZM36.24,13a.82.82,0,1,1,1.53-.59.83.83,0,0,1-.47,1.07l-.1,0a.81.81,0,0,1-1-.51m12-2a.83.83,0,0,1-.15-1.65A.85.85,0,0,1,49,10a.84.84,0,0,1-.62.87ZM33.61,14.13A.82.82,0,0,1,34,13a.81.81,0,0,1,1.09.4.83.83,0,0,1-.39,1.1l-.15.05a.83.83,0,0,1-1-.46m17.45-3.36a.8.8,0,1,1,.19,0Zm-20,4.73a.83.83,0,0,1,.32-1.13.83.83,0,0,1,.8,1.45l-.2.08a.83.83,0,0,1-.92-.4m22.8-4.66A.83.83,0,0,1,54,9.18a.83.83,0,0,1,.16,1.63.69.69,0,0,1-.25,0M28.65,17a.82.82,0,0,1,.24-1.14.81.81,0,0,1,1.13.24.82.82,0,0,1-.23,1.14.68.68,0,0,1-.25.11.82.82,0,0,1-.89-.35m28-5.94a.83.83,0,0,1-.71-.93.81.81,0,0,1,.91-.71.83.83,0,0,1,.71.93.81.81,0,0,1-.61.69.76.76,0,0,1-.3,0M26.33,18.76a.84.84,0,0,1,.16-1.16.82.82,0,0,1,1.15.16.85.85,0,0,1-.15,1.16,1,1,0,0,1-.3.14.83.83,0,0,1-.86-.3m33.14-7.2a.83.83,0,0,1-.65-1,.81.81,0,0,1,1-.64.83.83,0,0,1,0,1.61.73.73,0,0,1-.36,0M24.15,20.63a.82.82,0,1,1,1.23-1.08.83.83,0,0,1-.07,1.16.86.86,0,0,1-.34.18.81.81,0,0,1-.82-.26m38.06-8.4a.84.84,0,0,1-.58-1,.82.82,0,0,1,1-.58.83.83,0,0,1,.58,1,.84.84,0,0,1-1,.58M22.1,22.66a.81.81,0,0,1,0-1.16h0a.82.82,0,0,1,1.16,0,.83.83,0,0,1,0,1.17.9.9,0,0,1-.39.22.83.83,0,0,1-.77-.22m42.8-9.58A.82.82,0,0,1,64.4,12a.8.8,0,0,1,1-.51.83.83,0,0,1,.5,1.06.79.79,0,0,1-.57.52.84.84,0,0,1-.47,0M20.19,24.83a.84.84,0,0,1-.09-1.17.82.82,0,0,1,1.16-.08.81.81,0,0,1,.09,1.16.77.77,0,0,1-.42.27.85.85,0,0,1-.74-.18M67.52,14.12A.84.84,0,0,1,67.09,13a.82.82,0,0,1,1.51.66.8.8,0,0,1-.55.47.75.75,0,0,1-.53,0m-49.07,13a.82.82,0,0,1,1-1.33A.84.84,0,0,1,19.6,27a.82.82,0,0,1-1.15.17M70.07,15.35a.84.84,0,0,1-.35-1.12.82.82,0,0,1,1.11-.35A.84.84,0,0,1,71.18,15a.83.83,0,0,1-.53.43.91.91,0,0,1-.58-.07M16.87,29.54a.81.81,0,0,1-.25-1.13.8.8,0,0,1,1.13-.25A.83.83,0,0,1,18,29.3a.82.82,0,0,1-.49.35.78.78,0,0,1-.64-.11M72.53,16.75a.84.84,0,0,1-.28-1.14.82.82,0,0,1,1.13-.27.83.83,0,0,1,.27,1.14.81.81,0,0,1-1.12.27M15.46,32.07A.83.83,0,0,1,15.13,31a.81.81,0,0,1,1.11-.33.82.82,0,1,1-.78,1.45M74.88,18.32a.83.83,0,0,1-.2-1.15.82.82,0,0,1,1.34,1,.74.74,0,0,1-.47.32.78.78,0,0,1-.67-.13M14.24,34.68a.82.82,0,0,1-.41-1.09.8.8,0,0,1,1.08-.41.84.84,0,0,1,.41,1.1.8.8,0,0,1-.55.45.75.75,0,0,1-.53,0M77.12,20.05h0A.84.84,0,0,1,77,18.89a.81.81,0,0,1,1.15-.11A.84.84,0,0,1,78.27,20a.76.76,0,0,1-.43.27.8.8,0,0,1-.72-.17M13.19,37.38a.83.83,0,0,1-.48-1.06.82.82,0,0,1,1-.49.83.83,0,1,1-.57,1.55M79.23,22a.85.85,0,0,1,0-1.18.81.81,0,0,1,1.16,0,.82.82,0,0,1,0,1.17.92.92,0,0,1-.39.23.84.84,0,0,1-.77-.2M12.34,40.14a.82.82,0,0,1-.55-1,.81.81,0,0,1,1-.56.83.83,0,0,1,.56,1,.81.81,0,0,1-.59.56.9.9,0,0,1-.43,0M81.21,24a.83.83,0,0,1,.05-1.17.81.81,0,0,1,1.16.06.83.83,0,0,1,0,1.16.76.76,0,0,1-.35.19.8.8,0,0,1-.81-.24M11.69,43a.83.83,0,1,1,1-.63.8.8,0,0,1-.6.62.77.77,0,0,1-.37,0M83,26.15A.84.84,0,0,1,83.17,25a.83.83,0,0,1,1,1.31.73.73,0,0,1-.31.14.81.81,0,0,1-.84-.28M11.23,45.81a.82.82,0,0,1,.24-1.63.82.82,0,0,1,.69.94.81.81,0,0,1-.61.68.86.86,0,0,1-.32,0M84.71,28.44a.82.82,0,0,1,.22-1.15.81.81,0,0,1,1.14.22.83.83,0,0,1-.22,1.15.88.88,0,0,1-.26.12.84.84,0,0,1-.88-.34M11,48.7a.83.83,0,1,1,.88-.76.85.85,0,0,1-.62.74.74.74,0,0,1-.26,0M86.22,30.85a.84.84,0,0,1,.29-1.14.82.82,0,0,1,1.12.31.81.81,0,0,1-.29,1.12l-.21.09a.81.81,0,0,1-.91-.38M10.93,51.6a.83.83,0,1,1,.82-.83.82.82,0,0,1-.61.8ZM87.55,33.35a.82.82,0,0,1,.38-1.1.8.8,0,0,1,1.09.37.83.83,0,0,1-.37,1.11l-.17.06a.81.81,0,0,1-.93-.44M11.09,54.49a.84.84,0,0,1-.88-.77.82.82,0,1,1,1,.74ZM88.7,35.94a.82.82,0,0,1,1.52-.62.83.83,0,0,1-.45,1.08l-.11,0a.83.83,0,0,1-1-.5M11.45,57.36a.83.83,0,0,1-.93-.7.82.82,0,1,1,1.62-.23h0a.82.82,0,0,1-.61.91ZM89.67,38.61a.83.83,0,0,1,.53-1,.83.83,0,0,1,.51,1.57l-.06,0a.83.83,0,0,1-1-.55M12,60.21a.83.83,0,0,1-.34-1.62.81.81,0,0,1,1,.64.83.83,0,0,1-.6,1ZM90.47,41.43Zm0,0v0l0,0a.83.83,0,0,1,.6-1,.82.82,0,0,1,1,.6V41l0,0h0a.82.82,0,1,1-1.6.39m-78.72,21a.82.82,0,1,1,1,.56l0,0a.83.83,0,0,1-1-.58M92,44.88a.82.82,0,0,1-1-.67.81.81,0,0,1,.67-1,.82.82,0,0,1,.34,1.61ZM12.65,65.25a.82.82,0,1,1,1.06.5l-.09,0a.83.83,0,0,1-1-.52m79.7-17.48a.83.83,0,0,1-.9-.75.82.82,0,0,1,.73-.9.83.83,0,0,1,.29,1.63ZM13.76,68a.81.81,0,0,1,.41-1.09.83.83,0,0,1,1.08.42h0a.82.82,0,0,1-.41,1.09l-.13,0a.82.82,0,0,1-1-.47M92.49,50.66a.83.83,0,0,1,0-1.66.84.84,0,0,1,.23,1.64Zm-77.44,20a.82.82,0,0,1,.33-1.12A.83.83,0,1,1,16.16,71l-.19.07a.81.81,0,0,1-.92-.41m77.38-17.1a.83.83,0,0,1,.06-1.65.83.83,0,0,1,.17,1.63.9.9,0,0,1-.23,0M16.52,73.21a.83.83,0,0,1,.26-1.14.82.82,0,0,1,1.13.26h0a.82.82,0,1,1-1.39.87M92.16,56.44a.84.84,0,0,1-.73-.92.82.82,0,1,1,1,.9,1,1,0,0,1-.29,0m-74,19.22A.79.79,0,1,1,19,76a.82.82,0,0,1-.86-.32M91.69,59.29a.85.85,0,0,1-.67-1,.82.82,0,1,1,1.62.31h0a.83.83,0,0,1-.61.66.78.78,0,0,1-.34,0M20,78a.84.84,0,0,1,.09-1.17.82.82,0,0,1,1.16.1.84.84,0,0,1-.09,1.17.91.91,0,0,1-.34.17A.84.84,0,0,1,20,78M91,62.1a.83.83,0,0,1-.59-1,.82.82,0,0,1,1-.6.83.83,0,0,1,.59,1,.8.8,0,0,1-.59.59.72.72,0,0,1-.41,0M22,80.18h0A.83.83,0,0,1,22,79a.81.81,0,0,1,1.16,0,.83.83,0,0,1,0,1.17,1,1,0,0,1-.38.21.83.83,0,0,1-.78-.23M90.15,64.86a.83.83,0,1,1,1-.52.81.81,0,0,1-.57.54.8.8,0,0,1-.46,0m-66,17.37A.83.83,0,0,1,25.2,81a.83.83,0,0,1,.07,1.17.85.85,0,0,1-.41.25.83.83,0,0,1-.75-.18m65-14.68a.82.82,0,0,1-.44-1.08A.81.81,0,0,1,89.71,66a.83.83,0,1,1-.62,1.53M26.37,84.11A.82.82,0,1,1,27.52,84a.73.73,0,0,1-.45.3.79.79,0,0,1-.7-.15m61.48-14a.83.83,0,0,1-.37-1.11.81.81,0,0,1,1.1-.37.83.83,0,0,1-.73,1.48M28.76,85.84h0a.84.84,0,0,1-.23-1.15.82.82,0,0,1,1.14-.23.84.84,0,0,1,.23,1.15.83.83,0,0,1-1.14.23M86.43,72.67a.81.81,0,0,1-.29-1.13.8.8,0,0,1,1.12-.29.82.82,0,0,1,.28,1.13.76.76,0,0,1-.5.38.82.82,0,0,1-.61-.09M31.27,87.39a.82.82,0,1,1,1.11-.31.81.81,0,0,1-1.11.31M84.83,75.07a.82.82,0,1,1,.93-1.35A.84.84,0,0,1,86,74.87a.89.89,0,0,1-.48.33.79.79,0,0,1-.66-.13m-51,13.69a.83.83,0,0,1-.39-1.1.82.82,0,0,1,1.09-.39A.83.83,0,0,1,35,88.38a.85.85,0,0,1-.54.44.82.82,0,0,1-.55-.06m49.2-11.4a.82.82,0,0,1,1-1.29.84.84,0,0,1,.13,1.17.82.82,0,0,1-1.15.12M36.56,90a.83.83,0,0,1-.46-1.08.82.82,0,1,1,1.52.61.8.8,0,0,1-.56.5.86.86,0,0,1-.5,0m44.6-10.43a.83.83,0,0,1-.06-1.17.82.82,0,0,1,1.21,1.12.7.7,0,0,1-.4.24.8.8,0,0,1-.75-.19M39.33,90.94a.84.84,0,0,1-.54-1,.82.82,0,0,1,1-.54.83.83,0,0,1,0,1.59.86.86,0,0,1-.45,0m39.76-9.4a.84.84,0,0,1,0-1.18.81.81,0,0,1,1.15,0,.82.82,0,0,1,0,1.17.76.76,0,0,1-.36.2.83.83,0,0,1-.8-.23M42.16,91.73a.84.84,0,0,1-.61-1,.81.81,0,0,1,1-.61.83.83,0,0,1,0,1.61.86.86,0,0,1-.39,0M76.89,83.4A.85.85,0,0,1,77,82.23a.82.82,0,0,1,1.15.12.84.84,0,0,1-.11,1.17.88.88,0,0,1-.32.16.85.85,0,0,1-.84-.28M45,92.32a.84.84,0,0,1-.68-.95.82.82,0,1,1,1.62.27.79.79,0,0,1-.61.66.72.72,0,0,1-.33,0M74.57,85.1a.82.82,0,1,1,1.14.2.8.8,0,0,1-.27.12.81.81,0,0,1-.87-.32M47.94,92.7a.83.83,0,0,1,.15-1.65.84.84,0,0,1,.74.91.82.82,0,0,1-.61.72.88.88,0,0,1-.28,0m24.18-6.07a.82.82,0,1,1,1.13.28A.67.67,0,0,1,73,87a.83.83,0,0,1-.9-.38M50.87,92.87a.8.8,0,1,1,.22,0ZM69.58,88a.82.82,0,0,1,.36-1.11.81.81,0,0,1,1.1.36.82.82,0,0,1-.35,1.11l-.18.07a.83.83,0,0,1-.93-.43M53.8,92.84a.84.84,0,0,1-.86-.79.82.82,0,1,1,1,.76ZM67,89.14a.82.82,0,1,1,1.08.44l-.12,0a.82.82,0,0,1-1-.48M56.73,92.59a.83.83,0,1,1,.71-.92.82.82,0,0,1-.61.9Zm7.52-2.48a.82.82,0,0,1,1.55-.53.82.82,0,0,1-.51,1l-.07,0a.81.81,0,0,1-1-.54m-4.63,2a.83.83,0,0,1-.31-1.63.84.84,0,0,1,1,.66.83.83,0,0,1-.61,1Zm1.86-1.24a.82.82,0,1,1,1.59-.42.84.84,0,0,1-.59,1h0a.83.83,0,0,1-1-.59"/><path class="cls-3" d="M39.36,63.41a9.4,9.4,0,0,1-8,10.48c-4.42.54-9.78-1-10.68-8.35L17.92,43.33a9.08,9.08,0,0,1,8.26-10.45c5.33-.65,9.79,2.88,10.47,8.49l.28,2.27-5.77.71-.24-1.93c-.28-2.26-1.87-4-4.08-3.75-2.89.35-3.33,2.42-3,5.14l2.54,20.62c.28,2.32,1.41,4,4,3.7,1.58-.19,3.51-1.35,3.12-4.52l-.24-2,5.78-.71Z"/><polygon class="cls-3" points="39.65 31.57 56.87 29.46 57.54 34.9 46.09 36.3 47.55 48.14 57.52 46.92 58.19 52.36 48.22 53.58 49.67 65.42 61.12 64.02 61.82 69.8 44.6 71.91 39.65 31.57"/><polygon class="cls-3" points="62.02 28.83 79.25 26.71 79.92 32.15 68.47 33.56 69.92 45.4 79.89 44.17 80.56 49.61 70.59 50.84 72.05 62.67 83.49 61.27 84.2 67.05 66.98 69.16 62.02 28.83"/></svg>