<svg id="Calque_1" data-name="Calque 1" xmlns="http://www.w3.org/2000/svg" viewBox="0 0 336.76 94.48"><defs><style>.cls-1{fill:#e20613;}.cls-2{fill:#fff;}.cls-3{fill:#ffec00;}</style></defs><rect class="cls-1" width="336.76" height="94.48" rx="10.86"/><path class="cls-2" d="M78.45,41H71l-1.48,3.47H66.61l6.75-15H76.1l6.76,15H80Zm-.92-2.18-2.82-6.55L71.9,38.82Z"/><path class="cls-2" d="M84.64,30.7a1.59,1.59,0,0,1,0-2.3,1.74,1.74,0,0,1,1.22-.46,1.79,1.79,0,0,1,1.22.44,1.42,1.42,0,0,1,.49,1.11,1.6,1.6,0,0,1-.48,1.18,1.63,1.63,0,0,1-1.23.49A1.74,1.74,0,0,1,84.64,30.7ZM84.51,33h2.68V44.47H84.51Z"/><path class="cls-2" d="M101.89,28.59V44.47H99.32V43a4.08,4.08,0,0,1-1.63,1.22,5.58,5.58,0,0,1-2.16.41,6,6,0,0,1-3-.73,5.19,5.19,0,0,1-2.07-2.06,6.66,6.66,0,0,1,0-6.14,5.23,5.23,0,0,1,2.07-2,6,6,0,0,1,3-.73,5.39,5.39,0,0,1,2.08.39,4.19,4.19,0,0,1,1.61,1.15V28.59Zm-4.3,13.3a3.19,3.19,0,0,0,1.22-1.25,4.17,4.17,0,0,0,0-3.77,3.19,3.19,0,0,0-1.22-1.25,3.64,3.64,0,0,0-3.47,0,3.19,3.19,0,0,0-1.22,1.25,4.17,4.17,0,0,0,0,3.77,3.19,3.19,0,0,0,1.22,1.25,3.64,3.64,0,0,0,3.47,0Z"/><path class="cls-2" d="M116.1,39.61h-9a3.05,3.05,0,0,0,1.23,2,4,4,0,0,0,2.47.74,4.15,4.15,0,0,0,3.1-1.24l1.44,1.65a4.91,4.91,0,0,1-1.95,1.39,7.2,7.2,0,0,1-2.66.47,7,7,0,0,1-3.31-.75,5.34,5.34,0,0,1-2.22-2.09,6.29,6.29,0,0,1,0-6,5.43,5.43,0,0,1,2.11-2.09,6.14,6.14,0,0,1,3-.75,6,6,0,0,1,3,.74,5.16,5.16,0,0,1,2.06,2.08,6.31,6.31,0,0,1,.74,3.09C116.15,39,116.13,39.27,116.1,39.61Zm-7.91-3.8a3.22,3.22,0,0,0-1.08,2h6.49a3.14,3.14,0,0,0-1-2,3.19,3.19,0,0,0-2.18-.77A3.29,3.29,0,0,0,108.19,35.81Z"/><path class="cls-2" d="M119.53,44.26a7,7,0,0,1-2.12-.92l1-2a6.44,6.44,0,0,0,1.85.83,8,8,0,0,0,2.13.31c1.6,0,2.4-.42,2.4-1.27a.85.85,0,0,0-.61-.83,10.14,10.14,0,0,0-2-.45,16.29,16.29,0,0,1-2.3-.49,3.45,3.45,0,0,1-1.54-1,2.69,2.69,0,0,1-.66-1.93,3,3,0,0,1,1.36-2.6,6.19,6.19,0,0,1,3.67-1,10.55,10.55,0,0,1,2.36.27,6.65,6.65,0,0,1,1.92.72l-1,2a6.37,6.37,0,0,0-3.28-.86,3.6,3.6,0,0,0-1.79.36,1.05,1.05,0,0,0-.61.93.93.93,0,0,0,.66.91,10.44,10.44,0,0,0,2,.5,16.35,16.35,0,0,1,2.25.49,3.61,3.61,0,0,1,1.51.94,2.65,2.65,0,0,1,.63,1.89A3,3,0,0,1,126,43.66a6.58,6.58,0,0,1-3.79,1A10.31,10.31,0,0,1,119.53,44.26Z"/><path class="cls-2" d="M129.31,38.24h5.5v1h-5.5Z"/><path class="cls-2" d="M146.92,44.47l-3.06-4.39a4.47,4.47,0,0,1-.58,0H139.9v4.37h-2.78v-15h6.16a8.32,8.32,0,0,1,3.4.64A4.92,4.92,0,0,1,148.89,32a5.62,5.62,0,0,1,0,5.76,4.93,4.93,0,0,1-2.37,1.82l3.45,4.92Zm-1-11.86a4.3,4.3,0,0,0-2.76-.77H139.9v6h3.26a4.24,4.24,0,0,0,2.76-.78,3.07,3.07,0,0,0,0-4.42Z"/><path class="cls-2" d="M163.21,39.61h-9a3.13,3.13,0,0,0,1.23,2,4,4,0,0,0,2.48.74,4.15,4.15,0,0,0,3.1-1.24l1.44,1.65a4.91,4.91,0,0,1-2,1.39,7.2,7.2,0,0,1-2.66.47,7,7,0,0,1-3.31-.75,5.34,5.34,0,0,1-2.22-2.09,6.29,6.29,0,0,1,0-6,5.37,5.37,0,0,1,2.11-2.09,6.14,6.14,0,0,1,3-.75,6,6,0,0,1,3,.74,5.16,5.16,0,0,1,2.06,2.08,6.31,6.31,0,0,1,.74,3.09C163.26,39,163.24,39.27,163.21,39.61Zm-7.91-3.8a3.22,3.22,0,0,0-1.08,2h6.49a3.13,3.13,0,0,0-3.23-2.78A3.29,3.29,0,0,0,155.3,35.81Zm3.2-7.27h3.15l-3.72,2.94h-2.32Z"/><path class="cls-2" d="M175.78,34.17a5,5,0,0,1,1.3,3.75v6.55h-2.67V38.26A3.22,3.22,0,0,0,173.7,36a2.63,2.63,0,0,0-2-.76,3.08,3.08,0,0,0-2.33.89,3.53,3.53,0,0,0-.86,2.56v5.78h-2.68V33h2.55v1.48a4.15,4.15,0,0,1,1.67-1.2,6,6,0,0,1,2.27-.41A4.79,4.79,0,0,1,175.78,34.17Z"/><path class="cls-2" d="M182.61,43.87a5.42,5.42,0,0,1-2.18-2.09,5.89,5.89,0,0,1-.78-3,5.82,5.82,0,0,1,.78-3,5.46,5.46,0,0,1,2.18-2.08,6.43,6.43,0,0,1,3.12-.75,6.55,6.55,0,0,1,3.15.75,5.43,5.43,0,0,1,2.17,2.08,5.82,5.82,0,0,1,.78,3,5.89,5.89,0,0,1-.78,3,5.39,5.39,0,0,1-2.17,2.09,6.55,6.55,0,0,1-3.15.75A6.43,6.43,0,0,1,182.61,43.87Zm5.56-2.52a4,4,0,0,0,0-5.19,3.52,3.52,0,0,0-4.87,0,4,4,0,0,0,0,5.19,3.52,3.52,0,0,0,4.87,0Z"/><path class="cls-2" d="M204.78,33l-4.9,11.43h-2.76L192.22,33H195l3.55,8.48L202.21,33Z"/><path class="cls-2" d="M204.78,38.24h5.5v1h-5.5Z"/><path class="cls-2" d="M216.46,44.45a7.38,7.38,0,0,1-2.89-2.76,8,8,0,0,1,0-7.9A7.25,7.25,0,0,1,216.46,31a9,9,0,0,1,8.26,0,7.42,7.42,0,0,1,2.89,2.75,7.63,7.63,0,0,1-2.89,10.67,9.11,9.11,0,0,1-8.26,0Zm6.82-2.12a4.9,4.9,0,0,0,1.89-1.89,5.72,5.72,0,0,0,0-5.41,4.9,4.9,0,0,0-1.89-1.89,5.76,5.76,0,0,0-5.39,0A4.9,4.9,0,0,0,216,35a5.72,5.72,0,0,0,0,5.41,4.9,4.9,0,0,0,1.89,1.89,5.76,5.76,0,0,0,5.39,0Z"/><path class="cls-2" d="M233.41,44.63a5.56,5.56,0,0,1-2.21-2.09,5.8,5.8,0,0,1-.79-3,5.73,5.73,0,0,1,.79-3,5.51,5.51,0,0,1,2.2-2.08,6.66,6.66,0,0,1,3.2-.75,6.25,6.25,0,0,1,3,.68,4.51,4.51,0,0,1,1.92,2l-2.06,1.2a3.48,3.48,0,0,0-5.33-.61,4,4,0,0,0,0,5.2,3.38,3.38,0,0,0,2.5,1,3.29,3.29,0,0,0,1.61-.4,3.25,3.25,0,0,0,1.23-1.19l2.06,1.2a4.58,4.58,0,0,1-1.94,2,6,6,0,0,1-2.94.7A6.68,6.68,0,0,1,233.41,44.63Z"/><path class="cls-2" d="M245.67,44.63a5.54,5.54,0,0,1-2.2-2.09,5.8,5.8,0,0,1-.79-3,5.73,5.73,0,0,1,.79-3,5.55,5.55,0,0,1,2.19-2.08,6.69,6.69,0,0,1,3.2-.75,6.26,6.26,0,0,1,3,.68,4.43,4.43,0,0,1,1.91,2l-2.05,1.2a3.21,3.21,0,0,0-2.85-1.58,3.36,3.36,0,0,0-2.48,1,3.92,3.92,0,0,0,0,5.2,3.38,3.38,0,0,0,2.49,1,3.3,3.3,0,0,0,1.62-.4,3.25,3.25,0,0,0,1.23-1.19l2.05,1.2a4.56,4.56,0,0,1-1.93,2,6,6,0,0,1-2.95.7A6.73,6.73,0,0,1,245.67,44.63Z"/><path class="cls-2" d="M256.18,31.45a1.5,1.5,0,0,1-.49-1.14,1.54,1.54,0,0,1,.49-1.15,1.88,1.88,0,0,1,2.44,0,1.41,1.41,0,0,1,.5,1.1,1.58,1.58,0,0,1-.49,1.19,1.67,1.67,0,0,1-1.23.48A1.72,1.72,0,0,1,256.18,31.45Zm-.13,2.35h2.68V45.23h-2.68Z"/><path class="cls-2" d="M269.11,44.61a3.23,3.23,0,0,1-1.14.58,5.55,5.55,0,0,1-1.43.19,4,4,0,0,1-2.91-1,3.78,3.78,0,0,1-1-2.86V36h-1.89V33.88h1.89V31.27h2.67v2.61h3.06V36h-3.06v5.44a1.79,1.79,0,0,0,.41,1.27,1.5,1.5,0,0,0,1.18.44,2.31,2.31,0,0,0,1.49-.47Z"/><path class="cls-2" d="M279.55,34.88a4.68,4.68,0,0,1,1.34,3.65v6.7h-2.53V43.84A3.11,3.11,0,0,1,277,45a6.08,6.08,0,0,1-4.44,0A3.42,3.42,0,0,1,271,43.72,3.1,3.1,0,0,1,270.5,42a3,3,0,0,1,1.15-2.47,5.7,5.7,0,0,1,3.61-.93h2.95v-.17a2.34,2.34,0,0,0-.72-1.84,3.08,3.08,0,0,0-2.13-.64,6.12,6.12,0,0,0-1.89.3,4.51,4.51,0,0,0-1.57.83l-1-2A6.79,6.79,0,0,1,273,34a9.68,9.68,0,0,1,2.67-.36A5.56,5.56,0,0,1,279.55,34.88ZM277.11,43a2.51,2.51,0,0,0,1.1-1.32V40.33h-2.76c-1.54,0-2.31.5-2.31,1.52a1.36,1.36,0,0,0,.57,1.15,2.65,2.65,0,0,0,1.61.43A3.43,3.43,0,0,0,277.11,43Z"/><path class="cls-2" d="M294.26,34.93a5,5,0,0,1,1.31,3.75v6.55h-2.68V39a3.22,3.22,0,0,0-.7-2.26,2.63,2.63,0,0,0-2-.76,3.1,3.1,0,0,0-2.34.89,3.55,3.55,0,0,0-.85,2.56v5.78h-2.68V33.8h2.55v1.47a4.22,4.22,0,0,1,1.67-1.19,5.85,5.85,0,0,1,2.27-.41A4.77,4.77,0,0,1,294.26,34.93Z"/><path class="cls-2" d="M299.1,31.45a1.47,1.47,0,0,1-.49-1.14,1.51,1.51,0,0,1,.49-1.15,1.88,1.88,0,0,1,2.44,0,1.4,1.4,0,0,1,.49,1.1,1.61,1.61,0,0,1-.48,1.19,1.67,1.67,0,0,1-1.23.48A1.72,1.72,0,0,1,299.1,31.45ZM299,33.8h2.68V45.23H299Z"/><path class="cls-2" d="M315.86,40.37h-9a3.13,3.13,0,0,0,1.23,2,4.08,4.08,0,0,0,2.48.74,4.15,4.15,0,0,0,3.1-1.24l1.43,1.65a4.9,4.9,0,0,1-1.94,1.39,7.2,7.2,0,0,1-2.66.47,7.09,7.09,0,0,1-3.32-.75A5.44,5.44,0,0,1,305,42.54a6.29,6.29,0,0,1,0-6,5.3,5.3,0,0,1,2.11-2.09,6.14,6.14,0,0,1,3-.75,6,6,0,0,1,3,.74,5.26,5.26,0,0,1,2.06,2.07,6.37,6.37,0,0,1,.74,3.1C315.91,39.76,315.89,40,315.86,40.37ZM308,36.57a3.22,3.22,0,0,0-1.08,2h6.49a3.34,3.34,0,0,0-5.41-2Z"/><path class="cls-3" d="M75,62.5H69.17l-1.26,2.81H66.75l4.8-10.5h1.1l4.8,10.5H76.28Zm-.41-.9L72.09,56,69.57,61.6Z"/><path class="cls-3" d="M79,55.47a.76.76,0,0,1,.55-1.29.76.76,0,0,1,.56.22.67.67,0,0,1,.22.51.75.75,0,0,1-.78.78A.74.74,0,0,1,79,55.47Zm0,2H80v7.89H79Z"/><path class="cls-3" d="M90.2,54.18V65.31h-1V63.75A3.28,3.28,0,0,1,87.91,65a3.74,3.74,0,0,1-1.78.42,4,4,0,0,1-2-.51,3.63,3.63,0,0,1-1.41-1.42,4.52,4.52,0,0,1,0-4.17,3.63,3.63,0,0,1,1.41-1.42,4.1,4.1,0,0,1,2-.5,3.65,3.65,0,0,1,1.73.4,3.21,3.21,0,0,1,1.27,1.16V54.18Zm-2.49,9.88A2.69,2.69,0,0,0,88.76,63a3.28,3.28,0,0,0,.39-1.61,3.24,3.24,0,0,0-.39-1.6,2.69,2.69,0,0,0-1.05-1.09,3,3,0,0,0-1.49-.38,3.05,3.05,0,0,0-1.51.38,2.82,2.82,0,0,0-1,1.09,3.35,3.35,0,0,0-.38,1.6A3.39,3.39,0,0,0,83.66,63a2.82,2.82,0,0,0,1,1.09,3.05,3.05,0,0,0,1.51.38A3,3,0,0,0,87.71,64.06Z"/><path class="cls-3" d="M100,61.69h-6.6a2.81,2.81,0,0,0,.94,2,3.11,3.11,0,0,0,2.16.76,3.49,3.49,0,0,0,1.35-.26A3,3,0,0,0,99,63.4l.6.69a3.37,3.37,0,0,1-1.32,1,4.75,4.75,0,0,1-3.88-.18,3.74,3.74,0,0,1-1.46-1.44,4.09,4.09,0,0,1-.53-2.07,4.28,4.28,0,0,1,.5-2.07,3.69,3.69,0,0,1,1.38-1.42,3.89,3.89,0,0,1,2-.51,3.79,3.79,0,0,1,2,.51,3.6,3.6,0,0,1,1.37,1.42,4.22,4.22,0,0,1,.49,2.07ZM94.31,59a2.89,2.89,0,0,0-.87,1.9H99a2.85,2.85,0,0,0-.88-1.9,2.7,2.7,0,0,0-1.92-.73A2.73,2.73,0,0,0,94.31,59Z"/><path class="cls-3" d="M102.5,65.11a4.07,4.07,0,0,1-1.37-.7l.48-.84a4.19,4.19,0,0,0,1.25.64,5.09,5.09,0,0,0,1.56.24,3,3,0,0,0,1.59-.33,1.08,1.08,0,0,0,.52-1,.85.85,0,0,0-.28-.68,1.89,1.89,0,0,0-.72-.37,9.31,9.31,0,0,0-1.16-.25,12.13,12.13,0,0,1-1.54-.37,2.21,2.21,0,0,1-1-.64,1.74,1.74,0,0,1-.41-1.24,2,2,0,0,1,.82-1.62,3.72,3.72,0,0,1,2.3-.63,6.18,6.18,0,0,1,1.53.2,4.34,4.34,0,0,1,1.26.53l-.47.86a4,4,0,0,0-2.32-.68,2.69,2.69,0,0,0-1.54.36,1.1,1.1,0,0,0-.52.95,1,1,0,0,0,.29.72,1.91,1.91,0,0,0,.73.4c.29.08.69.17,1.2.26a13.93,13.93,0,0,1,1.52.36,2.2,2.2,0,0,1,1,.61,1.69,1.69,0,0,1,.41,1.2,1.92,1.92,0,0,1-.87,1.65,4.12,4.12,0,0,1-2.39.6A6.25,6.25,0,0,1,102.5,65.11Z"/><path class="cls-3" d="M121.23,65.47,119.78,64a5,5,0,0,1-5.34,1.09,2.94,2.94,0,0,1-1.25-.94,2.29,2.29,0,0,1-.45-1.39,2.66,2.66,0,0,1,.6-1.7,7.24,7.24,0,0,1,2-1.57,6.07,6.07,0,0,1-1-1.33,2.46,2.46,0,0,1-.29-1.16,2,2,0,0,1,.72-1.62,2.9,2.9,0,0,1,1.94-.62,2.67,2.67,0,0,1,1.78.56,1.89,1.89,0,0,1,.66,1.53,2.1,2.1,0,0,1-.52,1.4,7,7,0,0,1-1.82,1.37l2.88,3a6.67,6.67,0,0,0,.71-2l.87.27a7,7,0,0,1-.93,2.41l1.5,1.55Zm-2.08-2.14L116,60.07a6.47,6.47,0,0,0-1.72,1.28,2,2,0,0,0-.47,1.27,1.64,1.64,0,0,0,.7,1.38,3,3,0,0,0,1.84.51A3.63,3.63,0,0,0,119.15,63.33Zm-3.66-7.41a1.32,1.32,0,0,0-.44,1,1.78,1.78,0,0,0,.24.89,6.48,6.48,0,0,0,.95,1.14,7.18,7.18,0,0,0,1.57-1.13,1.47,1.47,0,0,0,.44-1,1.2,1.2,0,0,0-.41-.95,1.67,1.67,0,0,0-1.12-.35A1.81,1.81,0,0,0,115.49,55.92Z"/><path class="cls-3" d="M135.11,64.35v1h-7.43V54.81h7.2v1h-6.09V59.5h5.43v1h-5.43v3.9Zm-2.73-12.26h1.42L131.37,54h-1.05Z"/><path class="cls-3" d="M143.87,58.22a3.35,3.35,0,0,1,.88,2.51v4.58h-1.06V60.84a2.63,2.63,0,0,0-.62-1.88,2.3,2.3,0,0,0-1.75-.64,2.68,2.68,0,0,0-2,.76,2.83,2.83,0,0,0-.74,2.09v4.14h-1.07V57.42h1v1.45a2.89,2.89,0,0,1,1.21-1.11,3.78,3.78,0,0,1,1.79-.4A3.23,3.23,0,0,1,143.87,58.22Z"/><path class="cls-3" d="M154.55,61.69H148a2.81,2.81,0,0,0,.94,2,3.11,3.11,0,0,0,2.16.76,3.49,3.49,0,0,0,1.35-.26,3,3,0,0,0,1.07-.78l.6.69a3.37,3.37,0,0,1-1.32,1,4.75,4.75,0,0,1-3.88-.18,3.74,3.74,0,0,1-1.46-1.44,4.09,4.09,0,0,1-.53-2.07,4.28,4.28,0,0,1,.5-2.07,3.69,3.69,0,0,1,1.38-1.42,3.89,3.89,0,0,1,2-.51,3.79,3.79,0,0,1,2,.51,3.6,3.6,0,0,1,1.37,1.42,4.22,4.22,0,0,1,.49,2.07ZM148.82,59a2.89,2.89,0,0,0-.87,1.9h5.59a2.85,2.85,0,0,0-.88-1.9,2.7,2.7,0,0,0-1.92-.73A2.73,2.73,0,0,0,148.82,59Z"/><path class="cls-3" d="M158.87,57.76a3.82,3.82,0,0,1,1.84-.4v1h-.25a2.52,2.52,0,0,0-2,.76,3.06,3.06,0,0,0-.71,2.15v4h-1.06V57.42h1V59A2.59,2.59,0,0,1,158.87,57.76Z"/><path class="cls-3" d="M169.86,57.42v6.93a3.45,3.45,0,0,1-3.94,3.94,6.76,6.76,0,0,1-2.08-.32,4.18,4.18,0,0,1-1.6-.89l.54-.81a4,4,0,0,0,1.39.79,5.18,5.18,0,0,0,1.72.29,3,3,0,0,0,2.2-.7,2.94,2.94,0,0,0,.71-2.17v-1a3.25,3.25,0,0,1-1.3,1.14,4,4,0,0,1-1.78.39,4.16,4.16,0,0,1-2-.49,3.57,3.57,0,0,1-1.42-1.36,3.81,3.81,0,0,1-.52-2,3.75,3.75,0,0,1,.52-2,3.55,3.55,0,0,1,1.42-1.35,4.22,4.22,0,0,1,2-.48,4,4,0,0,1,1.82.4,3.26,3.26,0,0,1,1.3,1.17V57.42Zm-2.49,6.28a2.66,2.66,0,0,0,1.07-1,2.89,2.89,0,0,0,.39-1.5,2.83,2.83,0,0,0-.39-1.49,2.6,2.6,0,0,0-1.06-1,3.17,3.17,0,0,0-1.55-.37,3.24,3.24,0,0,0-1.54.36,2.63,2.63,0,0,0-1.07,1,3.15,3.15,0,0,0,0,3,2.72,2.72,0,0,0,1.07,1,3.47,3.47,0,0,0,3.08,0Z"/><path class="cls-3" d="M172.83,55.47a.76.76,0,0,1,0-1.07.76.76,0,0,1,.56-.22.74.74,0,0,1,.55.22.68.68,0,0,1,.23.51.77.77,0,0,1-.23.56.74.74,0,0,1-.55.22A.76.76,0,0,1,172.83,55.47Zm0,2h1.06v7.89h-1.06Z"/><path class="cls-3" d="M183.75,61.69h-6.6a2.82,2.82,0,0,0,.95,2,3.11,3.11,0,0,0,2.16.76,3.49,3.49,0,0,0,1.35-.26,3,3,0,0,0,1.06-.78l.6.69a3.41,3.41,0,0,1-1.31,1,4.77,4.77,0,0,1-3.89-.18,3.81,3.81,0,0,1-1.46-1.44,4.08,4.08,0,0,1-.52-2.07,4.17,4.17,0,0,1,.5-2.07A3.56,3.56,0,0,1,178,57.87a4.06,4.06,0,0,1,3.94,0,3.58,3.58,0,0,1,1.36,1.42,4.23,4.23,0,0,1,.5,2.07ZM178,59a2.85,2.85,0,0,0-.88,1.9h5.6a2.9,2.9,0,0,0-.88-1.9,2.74,2.74,0,0,0-1.93-.73A2.69,2.69,0,0,0,178,59Z"/><path class="cls-3" d="M186.22,65.11a4,4,0,0,1-1.38-.7l.49-.84a4.12,4.12,0,0,0,1.24.64,5.09,5.09,0,0,0,1.56.24,3.06,3.06,0,0,0,1.6-.33,1.1,1.1,0,0,0,.52-1,.86.86,0,0,0-.29-.68,1.89,1.89,0,0,0-.72-.37,9.09,9.09,0,0,0-1.15-.25,12.34,12.34,0,0,1-1.55-.37,2.27,2.27,0,0,1-1-.64,1.78,1.78,0,0,1-.41-1.24A2,2,0,0,1,186,58a3.67,3.67,0,0,1,2.29-.63,6.18,6.18,0,0,1,1.53.2,4.34,4.34,0,0,1,1.26.53l-.46.86a4,4,0,0,0-2.33-.68,2.72,2.72,0,0,0-1.54.36,1.12,1.12,0,0,0-.51.95.91.91,0,0,0,.29.72,1.8,1.8,0,0,0,.72.4c.29.08.7.17,1.21.26a13.67,13.67,0,0,1,1.51.36,2.29,2.29,0,0,1,1,.61,1.74,1.74,0,0,1,.4,1.2,1.94,1.94,0,0,1-.86,1.65,4.15,4.15,0,0,1-2.4.6A6.19,6.19,0,0,1,186.22,65.11Z"/><path class="cls-3" d="M206.21,54.81v10.5h-.92l-6.75-8.52v8.52h-1.11V54.81h.92l6.76,8.52V54.81Z"/><path class="cls-3" d="M210.57,64.87a3.83,3.83,0,0,1-1.44-1.44,4.38,4.38,0,0,1,0-4.14,3.71,3.71,0,0,1,1.44-1.42,4.4,4.4,0,0,1,4.11,0,3.62,3.62,0,0,1,1.43,1.42,4.38,4.38,0,0,1,0,4.14,3.73,3.73,0,0,1-1.43,1.44,4.4,4.4,0,0,1-4.11,0Zm3.56-.81a2.67,2.67,0,0,0,1-1.09,3.39,3.39,0,0,0,.38-1.61,3.35,3.35,0,0,0-.38-1.6,2.67,2.67,0,0,0-1-1.09,3.17,3.17,0,0,0-3,0,2.69,2.69,0,0,0-1.05,1.09,3.24,3.24,0,0,0-.39,1.6,3.28,3.28,0,0,0,.39,1.61,2.69,2.69,0,0,0,1.05,1.09,3.17,3.17,0,0,0,3,0Z"/><path class="cls-3" d="M225.92,57.42v7.89h-1V63.87A3,3,0,0,1,223.74,65a3.53,3.53,0,0,1-1.68.39A3,3,0,0,1,218.73,62V57.42h1.07v4.47a2.64,2.64,0,0,0,.61,1.89,2.32,2.32,0,0,0,1.76.64,2.58,2.58,0,0,0,2-.75,3,3,0,0,0,.72-2.11V57.42Z"/><path class="cls-3" d="M235.53,57.42,232,65.31h-1.1l-3.49-7.89h1.11l3,6.72,3-6.72Z"/><path class="cls-3" d="M243.68,61.69h-6.6a2.81,2.81,0,0,0,.94,2,3.11,3.11,0,0,0,2.16.76,3.49,3.49,0,0,0,1.35-.26,3,3,0,0,0,1.07-.78l.6.69a3.44,3.44,0,0,1-1.32,1,4.75,4.75,0,0,1-3.88-.18,3.68,3.68,0,0,1-1.46-1.44,4.09,4.09,0,0,1-.53-2.07,4.28,4.28,0,0,1,.5-2.07,3.69,3.69,0,0,1,1.38-1.42,3.87,3.87,0,0,1,2-.51,3.82,3.82,0,0,1,2,.51,3.6,3.6,0,0,1,1.37,1.42,4.22,4.22,0,0,1,.49,2.07ZM238,59a2.89,2.89,0,0,0-.87,1.9h5.59a2.85,2.85,0,0,0-.88-1.9A2.89,2.89,0,0,0,238,59Z"/><path class="cls-3" d="M245.87,54.18h1.06V65.31h-1.06Z"/><path class="cls-3" d="M249.9,54.18H251V65.31H249.9Z"/><path class="cls-3" d="M260.8,61.69h-6.6a2.82,2.82,0,0,0,1,2,3.11,3.11,0,0,0,2.16.76,3.49,3.49,0,0,0,1.35-.26,3,3,0,0,0,1.06-.78l.6.69a3.33,3.33,0,0,1-1.31,1,4.75,4.75,0,0,1-3.88-.18,3.77,3.77,0,0,1-1.47-1.44,4.08,4.08,0,0,1-.52-2.07,4.28,4.28,0,0,1,.5-2.07A3.69,3.69,0,0,1,255,57.87a4.06,4.06,0,0,1,3.94,0,3.58,3.58,0,0,1,1.36,1.42,4.23,4.23,0,0,1,.5,2.07ZM255.08,59a2.9,2.9,0,0,0-.88,1.9h5.6a2.85,2.85,0,0,0-.88-1.9,2.89,2.89,0,0,0-3.84,0Z"/><path class="cls-3" d="M263.27,65.11a4.07,4.07,0,0,1-1.37-.7l.48-.84a4.19,4.19,0,0,0,1.25.64,5,5,0,0,0,1.55.24,3,3,0,0,0,1.6-.33,1.08,1.08,0,0,0,.52-1,.83.83,0,0,0-.29-.68,1.84,1.84,0,0,0-.71-.37,9.73,9.73,0,0,0-1.16-.25,12.34,12.34,0,0,1-1.55-.37,2.24,2.24,0,0,1-1-.64,1.74,1.74,0,0,1-.42-1.24A2,2,0,0,1,263,58a3.69,3.69,0,0,1,2.29-.63,6.26,6.26,0,0,1,1.54.2,4.39,4.39,0,0,1,1.25.53l-.46.86a4,4,0,0,0-2.33-.68,2.68,2.68,0,0,0-1.53.36,1.1,1.1,0,0,0-.52.95,1,1,0,0,0,.29.72,1.91,1.91,0,0,0,.73.4c.29.08.69.17,1.2.26a13.67,13.67,0,0,1,1.51.36,2.23,2.23,0,0,1,1,.61,1.69,1.69,0,0,1,.41,1.2,1.92,1.92,0,0,1-.87,1.65,4.12,4.12,0,0,1-2.39.6A6.25,6.25,0,0,1,263.27,65.11Z"/><path class="cls-3" d="M45.27,22.82a20.37,20.37,0,0,0,6-4.13,10.58,10.58,0,0,0,2.91-6.09,3.67,3.67,0,0,0,2.26-3.37h0a3.66,3.66,0,0,0-3.65-3.65,2.58,2.58,0,0,0-.29,0,1.45,1.45,0,0,0-.77.07,3.31,3.31,0,0,0-1.91,1.44,3.62,3.62,0,0,0-.69,2.11h0a3.64,3.64,0,0,0,2,3.21c.06.15,0,.34-.23.61-2.78,3.23-5.86,6-10.17,7-1.05.25-1.59.17-2.11-.92a3.48,3.48,0,0,0-4.78-1.42,3.68,3.68,0,0,0-1.62,4.77c.79,1.73,3,2.78,4.64,1.76s2.44-.13,3.32.89c3.8,4.34,5.34,9.62,6.28,15.15.13.73-.07,1-.83.88-6.17-.75-11.66-3-16.11-7.44-.51-.52-.56-.81-.09-1.45a3.54,3.54,0,0,0-.87-5.16,3.64,3.64,0,0,0-5,1,3.52,3.52,0,0,0,1.11,5.1c.87.51.91,1,.69,1.82a19.05,19.05,0,0,1-6.81,10.09c-.56.46-.83.34-1.31-.15a3.61,3.61,0,0,0-5.34-.26,3.65,3.65,0,0,0,0,5.14,3.61,3.61,0,0,0,5.34-.25c.48-.49.75-.61,1.31-.15a19,19,0,0,1,6.81,10.08c.22.86.18,1.31-.69,1.82a3.53,3.53,0,0,0-1.11,5.11,3.64,3.64,0,0,0,5,1,3.53,3.53,0,0,0,.87-5.15c-.47-.65-.42-.94.09-1.45,4.45-4.48,9.94-6.7,16.11-7.44.76-.1,1,.15.83.87C45.53,59.75,44,65,40.19,69.38c-.88,1-1.65,1.93-3.32.88S33,70.29,32.23,72a3.67,3.67,0,0,0,1.62,4.76,3.48,3.48,0,0,0,4.78-1.41c.52-1.09,1.06-1.17,2.11-.92,4.31,1,7.39,3.75,10.17,7,.24.28.29.47.23.61a3.65,3.65,0,0,0-2,3.22h0a3.58,3.58,0,0,0,.69,2.11,3.37,3.37,0,0,0,1.91,1.45,1.56,1.56,0,0,0,.77.07,2.58,2.58,0,0,0,.29,0,3.67,3.67,0,0,0,3.65-3.66h0a3.67,3.67,0,0,0-2.26-3.38,10.64,10.64,0,0,0-2.91-6.09,20.16,20.16,0,0,0-6-4.12c-.71-.37-.8-.59-.35-1.29,3.7-5.71,4.8-12.16,5.31-18.77.11-1.41-.71-1.8-1.89-1.86a30.27,30.27,0,0,0-11.8,2.07A48.56,48.56,0,0,0,29.41,55c-.59.32-1,.54-1.33-.35a18.3,18.3,0,0,0-5.69-7.43h0a18.33,18.33,0,0,0,5.69-7.44c.35-.89.74-.67,1.33-.34a47.48,47.48,0,0,0,7.13,3.2,30.46,30.46,0,0,0,11.8,2.08c1.18-.07,2-.45,1.89-1.86-.51-6.62-1.61-13.07-5.31-18.77C44.47,23.4,44.56,23.19,45.27,22.82Z"/></svg>