<svg width="164" height="63" viewBox="0 0 164 63" fill="none" xmlns="http://www.w3.org/2000/svg">
<path d="M65.1524 49.3053H65.5999V53.6895H67.7479V54.0474H65.1524V49.3053ZM70.2539 54.2263C69.0904 54.2263 68.2849 53.4211 68.2849 52.3474C68.2849 51.2737 69.0009 50.4684 70.0749 50.4684C71.0594 50.4684 71.6859 51.0947 71.6859 51.9C71.6859 51.9895 71.6859 52.079 71.6859 52.1684H68.7324V52.2579C68.7324 53.1526 69.3589 53.779 70.2539 53.779C70.7909 53.779 71.2384 53.5105 71.4174 53.2421L71.7754 53.5105C71.5069 53.9579 70.9699 54.2263 70.2539 54.2263ZM68.8219 51.9H71.3279C71.3279 51.2737 70.8804 50.8263 70.1644 50.8263C69.4484 50.8263 68.9114 51.2737 68.8219 51.9ZM74.7289 53.3316C74.9974 53.6895 75.3554 53.779 75.7134 53.779C76.1609 53.779 76.4294 53.5105 76.4294 53.1526C76.4294 52.2579 74.5499 52.6158 74.5499 51.3632C74.5499 50.8263 74.9974 50.4684 75.7134 50.4684C76.2504 50.4684 76.6084 50.7368 76.8769 51.0053L76.5189 51.2737C76.3399 51.0053 75.9819 50.8263 75.7134 50.8263C75.2659 50.8263 74.9974 51.0947 74.9974 51.4526C74.9974 52.3474 76.8769 52.079 76.8769 53.2421C76.8769 53.8684 76.3399 54.2263 75.7134 54.2263C75.1764 54.2263 74.7289 54.0474 74.3709 53.6L74.7289 53.3316ZM79.5619 54.2263C78.3984 54.2263 77.5929 53.4211 77.5929 52.3474C77.5929 51.2737 78.3089 50.4684 79.3829 50.4684C80.3674 50.4684 80.9939 51.0947 80.9939 51.9C80.9939 51.9895 80.9939 52.079 80.9939 52.1684H78.0404V52.2579C78.0404 53.1526 78.6669 53.779 79.5619 53.779C80.0989 53.779 80.5464 53.5105 80.7254 53.2421L81.0834 53.5105C80.7254 53.9579 80.1884 54.2263 79.5619 54.2263ZM78.0404 51.9H80.5464C80.5464 51.2737 80.0989 50.8263 79.3829 50.8263C78.6669 50.8263 78.2194 51.2737 78.0404 51.9ZM82.1574 50.6474H82.6049V51.0947C82.8734 50.7368 83.2314 50.5579 83.7684 50.5579C83.8579 50.5579 83.9474 50.5579 84.0369 50.5579V50.9158C83.9474 50.9158 83.8579 50.8263 83.6789 50.8263C83.1419 50.8263 82.8734 51.0947 82.6049 51.4526V53.9579H82.1574V50.6474ZM84.9319 50.6474L86.2744 53.6895L87.6169 50.6474H88.0644L86.5429 54.0474H86.0059L84.4844 50.6474H84.9319ZM88.7804 49.2158C88.7804 49.0368 88.9594 48.9474 89.1384 48.9474C89.3174 48.9474 89.4964 49.1263 89.4964 49.2158C89.4964 49.3947 89.3174 49.4842 89.1384 49.4842C88.9594 49.5737 88.7804 49.3947 88.7804 49.2158ZM88.8699 50.6474H89.3174V54.0474H88.8699V50.6474ZM93.6134 53.2421L93.9714 53.5105C93.6134 53.9579 93.0764 54.2263 92.4499 54.2263C91.2864 54.2263 90.4809 53.4211 90.4809 52.3474C90.4809 51.3632 91.2864 50.4684 92.4499 50.4684C93.0764 50.4684 93.6134 50.7368 93.9714 51.1842L93.6134 51.4526C93.3449 51.0947 92.8974 50.9158 92.4499 50.9158C91.5549 50.9158 90.9284 51.5421 90.9284 52.3474C90.9284 53.1526 91.5549 53.779 92.4499 53.779C92.8974 53.779 93.2554 53.6 93.6134 53.2421ZM96.3879 54.2263C95.2244 54.2263 94.4189 53.4211 94.4189 52.3474C94.4189 51.2737 95.1349 50.4684 96.2089 50.4684C97.1934 50.4684 97.8199 51.0947 97.8199 51.9C97.8199 51.9895 97.8199 52.079 97.8199 52.1684H94.8664V52.2579C94.8664 53.1526 95.4929 53.779 96.3879 53.779C96.9249 53.779 97.3724 53.5105 97.5514 53.2421L97.9094 53.5105C97.5514 53.9579 97.0144 54.2263 96.3879 54.2263ZM94.8664 51.9H97.3724C97.3724 51.2737 96.9249 50.8263 96.2089 50.8263C95.4929 50.8263 95.0454 51.2737 94.8664 51.9ZM100.863 50.6474H101.31V51.0947C101.668 50.7368 102.116 50.4684 102.742 50.4684C103.906 50.4684 104.622 51.2737 104.622 52.3474C104.622 53.3316 103.906 54.2263 102.742 54.2263C102.205 54.2263 101.668 53.9579 101.31 53.6V55.7474H100.863V50.6474ZM101.31 51.5421V53.0632C101.579 53.5105 102.116 53.779 102.653 53.779C103.548 53.779 104.085 53.1526 104.085 52.3474C104.085 51.5421 103.458 50.9158 102.653 50.9158C102.116 50.8263 101.579 51.0947 101.31 51.5421ZM108.291 50.6474H108.739V52.6158C108.739 53.6 108.112 54.2263 107.217 54.2263C106.233 54.2263 105.606 53.6 105.606 52.6158V50.6474H106.054V52.6158C106.054 53.4211 106.501 53.8684 107.217 53.8684C107.933 53.8684 108.381 53.4211 108.381 52.6158V50.6474H108.291ZM111.871 54.2263C111.334 54.2263 110.797 53.9579 110.439 53.6V54.0474H109.992V48.9474H110.439V51.0947C110.797 50.7368 111.245 50.4684 111.871 50.4684C113.035 50.4684 113.751 51.3632 113.751 52.3474C113.84 53.3316 113.035 54.2263 111.871 54.2263ZM110.529 51.5421V53.0632C110.797 53.5105 111.334 53.779 111.871 53.779C112.766 53.779 113.303 53.1526 113.303 52.3474C113.303 51.5421 112.677 50.9158 111.871 50.9158C111.334 50.8263 110.797 51.0947 110.529 51.5421ZM114.914 48.9474H115.362V54.0474H114.914V48.9474ZM116.615 49.2158C116.615 49.0368 116.794 48.9474 116.973 48.9474C117.152 48.9474 117.331 49.1263 117.331 49.2158C117.331 49.3947 117.152 49.4842 116.973 49.4842C116.794 49.5737 116.615 49.3947 116.615 49.2158ZM116.794 50.6474H117.241V54.0474H116.794V50.6474ZM121.448 53.2421L121.806 53.5105C121.448 53.9579 120.911 54.2263 120.284 54.2263C119.121 54.2263 118.315 53.4211 118.315 52.3474C118.315 51.3632 119.121 50.4684 120.284 50.4684C120.911 50.4684 121.448 50.7368 121.806 51.1842L121.448 51.4526C121.179 51.0947 120.732 50.9158 120.284 50.9158C119.389 50.9158 118.763 51.5421 118.763 52.3474C118.763 53.1526 119.389 53.779 120.284 53.779C120.732 53.779 121.179 53.6 121.448 53.2421ZM124.67 50.6474H125.117V51.0947C125.475 50.7368 125.923 50.4684 126.549 50.4684C127.713 50.4684 128.429 51.2737 128.429 52.3474C128.429 53.3316 127.713 54.2263 126.549 54.2263C126.012 54.2263 125.475 53.9579 125.117 53.6V55.7474H124.67V50.6474ZM125.117 51.5421V53.0632C125.386 53.5105 125.923 53.779 126.46 53.779C127.355 53.779 127.892 53.1526 127.892 52.3474C127.892 51.5421 127.265 50.9158 126.46 50.9158C125.923 50.8263 125.386 51.0947 125.117 51.5421ZM133.083 52.3474C133.083 53.3316 132.277 54.2263 131.114 54.2263C129.95 54.2263 129.145 53.3316 129.145 52.3474C129.145 51.3632 129.95 50.4684 131.114 50.4684C132.277 50.4684 133.083 51.3632 133.083 52.3474ZM132.635 52.3474C132.635 51.5421 132.009 50.9158 131.114 50.9158C130.219 50.9158 129.592 51.6316 129.592 52.3474C129.592 53.0632 130.219 53.779 131.114 53.779C132.009 53.779 132.635 53.1526 132.635 52.3474ZM136.842 50.6474H137.289V52.6158C137.289 53.6 136.663 54.2263 135.768 54.2263C134.783 54.2263 134.157 53.6 134.157 52.6158V50.6474H134.604V52.6158C134.604 53.4211 135.052 53.8684 135.768 53.8684C136.484 53.8684 136.931 53.4211 136.931 52.6158V50.6474H136.842ZM138.542 50.6474H138.99V51.0947C139.258 50.7368 139.616 50.5579 140.153 50.5579C140.243 50.5579 140.332 50.5579 140.422 50.5579V50.9158C140.332 50.9158 140.243 50.8263 140.064 50.8263C139.527 50.8263 139.258 51.0947 138.99 51.4526V53.9579H138.542V50.6474ZM143.375 50.6474H143.823V51.0947C144.091 50.7368 144.539 50.4684 145.076 50.4684C145.613 50.4684 146.06 50.7368 146.329 51.1842C146.597 50.7368 147.045 50.4684 147.671 50.4684C148.477 50.4684 149.014 50.9158 149.014 51.9V54.0474H148.566V51.9C148.566 51.2737 148.119 50.8263 147.582 50.8263C147.045 50.8263 146.687 51.0947 146.418 51.5421C146.418 51.6316 146.418 51.7211 146.418 51.8105V53.9579H145.971V51.8105C145.971 51.1842 145.613 50.7368 144.986 50.7368C144.449 50.7368 144.091 51.0053 143.823 51.4526V53.9579H143.375V50.6474ZM150.177 49.2158C150.177 49.0368 150.356 48.9474 150.535 48.9474C150.714 48.9474 150.893 49.1263 150.893 49.2158C150.893 49.3947 150.714 49.4842 150.535 49.4842C150.356 49.5737 150.177 49.3947 150.177 49.2158ZM150.356 50.6474H150.804V54.0474H150.356V50.6474ZM153.847 54.2263C152.683 54.2263 151.878 53.4211 151.878 52.3474C151.878 51.2737 152.594 50.4684 153.668 50.4684C154.652 50.4684 155.279 51.0947 155.279 51.9C155.279 51.9895 155.279 52.079 155.279 52.1684H152.325V52.2579C152.325 53.1526 152.952 53.779 153.847 53.779C154.384 53.779 154.831 53.5105 155.1 53.2421L155.458 53.5105C155.01 53.9579 154.473 54.2263 153.847 54.2263ZM152.325 51.9H154.831C154.831 51.2737 154.384 50.8263 153.668 50.8263C152.952 50.8263 152.504 51.2737 152.325 51.9ZM158.948 50.6474H159.396V52.6158C159.396 53.6 158.769 54.2263 157.874 54.2263C156.89 54.2263 156.263 53.6 156.263 52.6158V50.6474H156.711V52.6158C156.711 53.4211 157.158 53.8684 157.874 53.8684C158.59 53.8684 159.038 53.4211 159.038 52.6158V50.6474H158.948ZM160.201 54.0474L161.544 52.2579L160.291 50.6474H160.828L161.902 51.9895L162.976 50.6474H163.513L162.26 52.2579L163.692 54.0474H163.155L161.991 52.5263L160.828 54.0474H160.201ZM65.0629 58.7895H65.5104V59.2368C65.7789 58.8789 66.1369 58.7 66.6739 58.7C66.7634 58.7 66.8529 58.7 66.9424 58.7V59.0579C66.8529 59.0579 66.7634 58.9684 66.5844 58.9684C66.0474 58.9684 65.7789 59.2369 65.5104 59.5947V62.1H65.0629C65.0629 62.1895 65.0629 58.7895 65.0629 58.7895ZM69.2694 62.3684C68.1059 62.3684 67.3004 61.5632 67.3004 60.4895C67.3004 59.4158 68.0164 58.6105 69.0904 58.6105C70.0749 58.6105 70.7014 59.2369 70.7014 60.0421C70.7014 60.1316 70.7014 60.2211 70.7014 60.3105H67.7479V60.4C67.7479 61.2947 68.3744 61.9211 69.2694 61.9211C69.8064 61.9211 70.2539 61.6526 70.4329 61.3842L70.7909 61.6526C70.4329 62.1 69.8959 62.3684 69.2694 62.3684ZM67.7479 60.1316H70.2539C70.2539 59.5053 69.8064 59.0579 69.0904 59.0579C68.3744 59.0579 67.9269 59.4158 67.7479 60.1316ZM68.9114 58.2526L69.6274 57.0895H70.1644L69.3589 58.2526H68.9114ZM71.8649 58.7895H72.3124V59.2368C72.6704 58.8789 73.0284 58.6105 73.6549 58.6105C74.4604 58.6105 75.0869 59.1474 75.0869 60.0421V62.1895H74.5499V60.1316C74.5499 59.4158 74.1024 59.0579 73.4759 59.0579C72.8494 59.0579 72.4914 59.3263 72.2229 59.7737V62.279H71.8649C71.8649 62.1895 71.8649 58.7895 71.8649 58.7895ZM79.9199 60.4895C79.9199 61.4737 79.1144 62.3684 77.9509 62.3684C76.7874 62.3684 75.9819 61.4737 75.9819 60.4895C75.9819 59.5053 76.7874 58.6105 77.9509 58.6105C79.1144 58.7 79.9199 59.5053 79.9199 60.4895ZM79.4724 60.4895C79.4724 59.6842 78.8459 59.0579 77.9509 59.0579C77.0559 59.0579 76.4294 59.7737 76.4294 60.4895C76.4294 61.2053 77.0559 61.9211 77.9509 61.9211C78.8459 62.0105 79.4724 61.2947 79.4724 60.4895ZM80.8149 58.7895L82.1574 61.8316L83.4999 58.7895H83.9474L82.4259 62.1895H81.8889L80.3674 58.7895H80.8149ZM86.3639 62.3684C85.2004 62.3684 84.3949 61.4737 84.3949 60.4895C84.3949 59.4158 85.1109 58.6105 86.1849 58.6105C87.1694 58.6105 87.7959 59.2369 87.7959 60.0421C87.7959 60.1316 87.7959 60.2211 87.7959 60.3105H84.8424V60.4C84.8424 61.2947 85.4689 61.9211 86.3639 61.9211C86.9009 61.9211 87.3484 61.6526 87.5274 61.3842L87.8854 61.6526C87.5274 62.1 86.9904 62.3684 86.3639 62.3684ZM84.8424 60.1316H87.3484C87.3484 59.5053 86.9009 59.0579 86.1849 59.0579C85.5584 59.0579 85.0214 59.4158 84.8424 60.1316ZM88.9594 58.7895H89.4069V59.2368C89.6754 58.8789 90.0334 58.7 90.5704 58.7C90.6599 58.7 90.7494 58.7 90.8389 58.7V59.0579C90.7494 59.0579 90.6599 58.9684 90.4809 58.9684C89.9439 58.9684 89.6754 59.2369 89.4069 59.5947V62.1H88.9594C88.9594 62.1895 88.9594 58.7895 88.9594 58.7895ZM93.7029 58.7895H94.1504V59.2368C94.4189 58.8789 94.8664 58.6105 95.4034 58.6105C95.9404 58.6105 96.3879 58.879 96.6564 59.3263C96.9249 58.879 97.3724 58.6105 97.9989 58.6105C98.8044 58.6105 99.3414 59.0579 99.3414 60.0421V62.1895H98.8939V60.0421C98.8939 59.4158 98.4464 58.9684 97.9094 58.9684C97.3724 58.9684 97.0144 59.2368 96.7459 59.6842C96.7459 59.7737 96.7459 59.8632 96.7459 59.9526V62.1H96.2984V59.9526C96.2984 59.3263 95.9404 58.879 95.3139 58.879C94.7769 58.879 94.4189 59.1474 94.1504 59.5947V62.1H93.7029V58.7895ZM104.264 60.4895C104.264 61.4737 103.458 62.3684 102.295 62.3684C101.131 62.3684 100.326 61.4737 100.326 60.4895C100.326 59.5053 101.131 58.6105 102.295 58.6105C103.458 58.7 104.264 59.5053 104.264 60.4895ZM103.816 60.4895C103.816 59.6842 103.19 59.0579 102.295 59.0579C101.4 59.0579 100.773 59.7737 100.773 60.4895C100.773 61.2053 101.4 61.9211 102.295 61.9211C103.19 62.0105 103.816 61.2947 103.816 60.4895ZM105.338 58.7895H105.785V59.2368C106.143 58.8789 106.591 58.6105 107.128 58.6105C107.933 58.6105 108.56 59.1474 108.56 60.0421V62.1895H108.112V60.1316C108.112 59.4158 107.665 59.0579 107.038 59.0579C106.501 59.0579 106.054 59.3263 105.785 59.7737V62.279H105.338C105.338 62.1895 105.338 58.7895 105.338 58.7895ZM111.871 57.0895H112.319V59.2368C112.587 58.8789 113.124 58.6105 113.661 58.6105C114.467 58.6105 115.093 59.1474 115.093 60.0421V62.1895H114.646V60.1316C114.646 59.4158 114.198 59.0579 113.572 59.0579C113.035 59.0579 112.587 59.3263 112.319 59.7737V62.279H111.871C111.871 62.1895 111.871 57.0895 111.871 57.0895ZM116.167 61.3842C116.167 60.8474 116.615 60.4895 117.331 60.4L118.673 60.2211V59.8632C118.673 59.3263 118.226 59.0579 117.689 59.0579C117.241 59.0579 116.794 59.2369 116.615 59.5947L116.257 59.3263C116.525 58.9684 117.062 58.7 117.689 58.7C118.494 58.7 119.121 59.1474 119.121 59.9526V62.279H118.673V61.7421C118.405 62.1 117.868 62.3684 117.331 62.3684C116.615 62.3684 116.167 62.0105 116.167 61.3842ZM117.331 62.0105C117.868 62.0105 118.315 61.7421 118.584 61.2947V60.4895L117.331 60.6684C116.794 60.7579 116.525 61.0263 116.525 61.3842C116.615 61.7421 116.883 62.0105 117.331 62.0105ZM122.253 62.3684C121.716 62.3684 121.179 62.1 120.821 61.7421V62.1895H120.374V57.0895H120.821V59.2368C121.179 58.8789 121.627 58.6105 122.253 58.6105C123.417 58.6105 124.133 59.4158 124.133 60.4895C124.133 61.4737 123.417 62.3684 122.253 62.3684ZM120.821 59.7737V61.2947C121.09 61.7421 121.627 62.0105 122.164 62.0105C123.059 62.0105 123.596 61.3842 123.596 60.5789C123.596 59.7737 122.969 59.1474 122.164 59.1474C121.627 59.0579 121.179 59.3263 120.821 59.7737ZM125.117 57.4474C125.117 57.2684 125.296 57.1789 125.475 57.1789C125.654 57.1789 125.833 57.3579 125.833 57.4474C125.833 57.6263 125.654 57.7158 125.475 57.7158C125.296 57.7158 125.117 57.6263 125.117 57.4474ZM125.207 58.7895H125.654V62.1895H125.207V58.7895ZM127.265 59.1474H126.549V58.7895H127.265V57.8947H127.713V58.7895H129.055V59.1474H127.713V61.1158C127.713 61.7421 128.071 61.9211 128.518 61.9211C128.787 61.9211 128.876 61.9211 129.055 61.8316V62.1895C128.876 62.279 128.697 62.279 128.518 62.279C127.802 62.279 127.265 62.0105 127.265 61.1158V59.1474ZM129.861 61.3842C129.861 60.8474 130.308 60.4895 131.024 60.4L132.367 60.2211V59.8632C132.367 59.3263 131.919 59.0579 131.382 59.0579C130.935 59.0579 130.487 59.2369 130.308 59.5947L129.95 59.3263C130.219 58.9684 130.756 58.7 131.382 58.7C132.188 58.7 132.814 59.1474 132.814 59.9526V62.279H132.367V61.7421C132.098 62.1 131.561 62.3684 131.024 62.3684C130.308 62.3684 129.861 62.0105 129.861 61.3842ZM131.114 62.0105C131.651 62.0105 132.098 61.7421 132.367 61.2947V60.4895L131.114 60.6684C130.577 60.7579 130.308 61.0263 130.308 61.3842C130.308 61.7421 130.577 62.0105 131.114 62.0105ZM134.336 59.1474H133.62V58.7895H134.336V57.8947H134.783V58.7895H136.126V59.1474H134.783V61.1158C134.783 61.7421 135.141 61.9211 135.589 61.9211C135.857 61.9211 135.947 61.9211 136.126 61.8316V62.1895C135.947 62.279 135.768 62.279 135.589 62.279C134.873 62.279 134.336 62.0105 134.336 61.1158V59.1474ZM64.7944 0.452637H75.3554V3.58422H68.4639V7.78948H74.2814V10.9211H68.4639V18.6158H64.7944V0.452637ZM77.5929 5.55264H80.9044V6.89474C81.7994 6.00001 82.8734 5.37369 84.3054 5.37369C84.7529 5.37369 85.1109 5.46316 85.4689 5.55264V8.95264C85.0214 8.86316 84.4844 8.77369 84.0369 8.77369C82.4259 8.77369 81.4414 9.66843 80.9044 10.4737V18.6158H77.5929V5.55264ZM86.8114 15.1263C86.8114 13.1579 88.3329 11.6368 91.1969 11.1L95.1349 10.3842V10.0263C95.1349 8.68422 94.0609 7.78948 92.6289 7.78948C91.3759 7.78948 90.3019 8.32632 89.6754 9.31053L87.2589 7.43158C88.4224 5.82106 90.3914 4.83685 92.7184 4.83685C96.4774 4.83685 98.4464 7.07369 98.4464 9.93685V18.3474H95.1349V17.0947C94.3294 18.1684 92.8079 18.7947 91.2864 18.7947C88.6014 19.1526 86.8114 17.6316 86.8114 15.1263ZM91.8234 16.4684C93.2554 16.4684 94.3294 15.6632 95.0454 14.5895V12.8L92.0024 13.3368C90.5704 13.6053 90.0334 14.1421 90.0334 14.9474C90.0334 15.7526 90.7494 16.4684 91.8234 16.4684ZM102.116 5.55264H105.427V6.62632C106.322 5.73159 107.575 5.10527 109.276 5.10527C112.14 5.10527 114.377 7.07369 114.377 10.9211V18.7053H111.066V11.1C111.066 9.40001 110.081 8.23685 108.47 8.23685C106.77 8.23685 105.964 9.31053 105.427 10.2053V18.7053H102.116C102.116 18.6158 102.116 5.55264 102.116 5.55264ZM127.265 14.5L129.861 16.4684C128.608 18.079 126.728 19.1526 124.312 19.1526C119.837 19.1526 117.152 15.9316 117.152 12.0842C117.152 8.32632 119.837 5.0158 124.312 5.0158C126.728 5.0158 128.608 6.08948 129.861 7.70001L127.265 9.66843C126.639 8.77369 125.654 8.14738 124.312 8.14738C122.164 8.14738 120.553 9.84737 120.553 12.0842C120.553 14.4105 122.164 16.0211 124.312 16.0211C125.475 16.0211 126.639 15.4842 127.265 14.5ZM138.095 19.1526C133.441 19.1526 130.845 15.9316 130.845 12.0842C130.845 8.23685 133.262 5.0158 137.558 5.0158C141.227 5.0158 143.554 7.43159 143.554 10.8316C143.554 11.5474 143.465 12.2632 143.375 12.7105H134.246C134.425 14.8579 135.947 16.1105 138.184 16.1105C139.616 16.1105 140.78 15.4842 141.496 14.5895L143.823 16.4684C142.57 18.079 140.601 19.1526 138.095 19.1526ZM134.425 10.2947H140.332C140.243 9.04211 139.348 7.78948 137.558 7.78948C135.947 7.78948 134.873 8.59474 134.425 10.2947Z" fill="#263D75"/>
<path d="M64.7944 24.1632H70.3434C74.3709 24.1632 76.7874 26.221 76.7874 29.5316C76.7874 31.6789 75.7134 33.3789 73.9234 34.1842L79.6514 42.2368H75.2659L70.4329 34.9H68.5534V42.2368H64.8839C64.7944 42.3263 64.7944 24.1632 64.7944 24.1632ZM68.4639 27.2947V31.8579H70.5224C72.0439 31.8579 72.9389 31.0526 72.9389 29.5316C72.9389 28.1895 72.0439 27.2947 70.5224 27.2947H68.4639ZM87.6169 42.7737C82.9629 42.7737 80.3674 39.5526 80.3674 35.7053C80.3674 31.8579 82.7839 28.6368 87.0799 28.6368C90.7494 28.6368 93.0764 31.0526 93.0764 34.4526C93.0764 35.1684 92.9869 35.8842 92.8974 36.3316H83.7684C83.9474 38.4789 85.4689 39.7316 87.7064 39.7316C89.1384 39.7316 90.3019 39.1053 91.0179 38.2105L93.3449 40.0895C92.0919 41.7895 90.1229 42.7737 87.6169 42.7737ZM83.9474 33.9158H89.8544C89.7649 32.6631 88.8699 31.4105 87.0799 31.4105C85.4689 31.5 84.3949 32.2158 83.9474 33.9158ZM85.7374 27.2053L88.4224 22.9105H92.0024L88.8699 27.2053C88.9594 27.2053 85.7374 27.2053 85.7374 27.2053ZM96.2984 29.2632H99.6099V30.3368C100.505 29.4421 101.758 28.8158 103.458 28.8158C106.322 28.8158 108.56 30.7842 108.56 34.6316V42.4158H105.248V34.6316C105.248 32.9316 104.264 31.7684 102.653 31.7684C100.952 31.7684 100.147 32.8421 99.6099 33.7368V42.2368H96.2984V29.2632ZM125.654 35.7947C125.654 39.7316 122.79 42.8631 118.494 42.8631C114.288 42.8631 111.334 39.7316 111.334 35.7947C111.334 31.8579 114.198 28.7263 118.494 28.7263C122.701 28.7263 125.654 31.8579 125.654 35.7947ZM122.164 35.7947C122.164 33.5579 120.553 31.8579 118.494 31.8579C116.346 31.8579 114.735 33.5579 114.735 35.7947C114.735 38.0316 116.346 39.7316 118.494 39.7316C120.642 39.7316 122.164 38.0316 122.164 35.7947ZM130.129 29.2632L133.53 38.5684L136.931 29.2632H140.511L135.768 42.3263H131.472L126.639 29.2632H130.129ZM142.122 31.5895L144.449 24.1632H148.208L145.165 31.5895H142.122Z" fill="#D73A34"/>
<path fill-rule="evenodd" clip-rule="evenodd" d="M40.2777 32.3947C39.8302 32.3052 39.4722 32.3947 39.0247 32.3947C38.5772 32.4842 38.2192 32.5737 37.7717 32.7526C37.4137 32.9316 36.9662 33.2 36.6977 33.4684C36.3397 33.7368 36.0712 34.1842 35.9817 34.5421H35.8027C35.8027 34.0052 35.9817 33.5579 36.2502 33.2C36.5187 32.8421 36.8767 32.4842 37.3242 32.1263C38.2192 31.5 39.2037 31.2316 40.2777 31.2316C40.8147 31.2316 41.3517 31.321 41.8887 31.4105C42.0677 31.5 42.2467 31.5 42.3362 31.5895C41.9782 30.7842 41.6202 30.0684 41.1727 29.3526C38.2192 24.8789 32.8492 22.2842 27.4792 22.1947C22.1092 22.1052 16.8287 24.2526 12.8012 27.7421L13.1592 27.5631C13.4277 27.3842 13.6962 27.2052 13.9647 27.1158L13.1592 27.7421C11.1007 29.0842 10.2057 31.8579 9.66875 34.4526C9.13175 37.1368 8.59475 39.9105 8.77375 42.5947C8.95275 45.3684 10.0267 48.1421 12.0852 49.9316C14.2332 51.8105 17.1867 52.4368 20.0507 52.6158C24.1677 52.8842 28.3743 52.2579 32.3122 50.9158C35.8027 49.6631 39.2037 47.7842 41.3517 44.7421C43.4997 41.6105 44.0367 37.5842 43.0522 33.9158C42.8732 33.7368 42.6047 33.5579 42.4257 33.4684C41.7992 33.021 41.1727 32.4842 40.2777 32.3947ZM30.4327 35.1684C30.3432 34.6316 29.9853 34.2737 29.6273 33.9158C29.2693 33.5579 28.8217 33.2895 28.3742 33.1105C27.9267 32.9316 27.3897 32.7526 26.9422 32.7526C26.4947 32.6631 25.9577 32.6631 25.5102 32.7526C24.5257 32.9316 23.8097 33.4684 23.0042 33.9158C22.1987 34.4526 21.5722 35.1684 20.8562 36.0631H20.6772C20.5877 35.4368 20.6772 34.9 20.9457 34.3631C21.2142 33.8263 21.4827 33.2895 21.9302 32.8421C22.3777 32.3947 22.9147 32.0368 23.5412 31.8579C24.1677 31.6789 24.7942 31.5895 25.3312 31.5895C26.5842 31.5895 27.7477 31.8579 28.7322 32.5737C29.1797 32.9316 29.6272 33.2895 29.9852 33.7368C30.3432 34.1842 30.6117 34.721 30.6117 35.2579C30.6117 35.1684 30.4327 35.1684 30.4327 35.1684ZM22.6462 7.34209C22.0197 7.78946 21.4827 8.23683 20.8562 8.68419L19.1557 10.1158C16.8287 12.0842 14.8597 14.321 12.8012 16.4684C10.7427 18.6158 8.68425 20.7631 6.62575 23C4.65675 25.2368 2.59825 27.4737 0.71875 29.7105L0.89775 29.8895C3.04575 27.8316 5.19375 25.6842 7.34175 23.7158C9.48975 21.6579 11.7272 19.6 13.8752 17.6316C16.1127 15.5737 18.4397 13.7842 20.4982 11.6368C21.5722 10.5631 22.5567 9.48946 23.6307 8.41577C24.6152 7.34209 25.5997 6.17893 26.5842 5.01577L26.4947 4.83683C25.0627 5.55262 23.8097 6.35788 22.6462 7.34209ZM55.7612 31.6789C53.7027 29.0842 51.4652 26.5789 49.1382 24.2526C46.8112 21.9263 44.3052 19.7789 41.8887 17.5421L34.6392 10.8316C32.2227 8.59472 29.7167 6.35788 27.3002 4.21051L27.1212 4.38946C29.3587 6.80525 31.6857 9.13156 33.9232 11.5474L40.8147 18.7052C43.1417 21.0316 45.2897 23.5368 47.7062 25.7737C50.1227 28.0105 52.6287 30.1579 55.3137 32.1263L55.7612 31.6789C55.8507 31.7684 55.8507 31.7684 55.7612 31.6789Z" fill="#263D75"/>
</svg>
