<svg width="86" height="86" viewBox="0 0 86 86" fill="none" xmlns="http://www.w3.org/2000/svg">
<path d="M42.9587 85.9174C19.2333 85.9174 0 66.6842 0 42.9587C0 19.2333 19.2333 0 42.9587 0C66.6842 0 85.9174 19.2333 85.9174 42.9587C85.8906 66.673 66.673 85.8906 42.9587 85.9174ZM42.9587 2.36129C20.5376 2.36129 2.36177 20.5374 2.36177 42.9586C2.36177 65.3797 20.5377 83.5556 42.9589 83.5556C65.38 83.5556 83.5561 65.3799 83.5561 42.9587C83.5308 20.5479 65.3695 2.38673 42.9587 2.36129Z" fill="#2FAC66"/>
<path d="M42.9584 64.8278C34.113 64.8278 26.1387 59.4995 22.7537 51.3274C19.3688 43.1554 21.2398 33.749 27.4945 27.4944C33.7491 21.2398 43.1556 19.3688 51.3276 22.7539C59.4996 26.1389 64.8278 34.1133 64.8278 42.9587C64.8141 55.0311 55.0308 64.8143 42.9584 64.8278ZM42.9584 21.9745C31.3692 21.9745 21.9743 31.3693 21.9743 42.9585C21.9743 54.5477 31.3692 63.9425 42.9584 63.9425C54.5476 63.9425 63.9424 54.5477 63.9424 42.9585C63.9292 31.3748 54.542 21.9878 42.9584 21.9745Z" fill="#2FAC66"/>
<path d="M57.2048 50.493L64.3948 38.0393L71.1433 41.9354L63.9533 54.3891L57.2048 50.493Z" fill="#E20E18"/>
<path d="M50.4565 46.5969L57.6465 34.1432L64.395 38.0393L57.205 50.493L50.4565 46.5969Z" fill="white"/>
<path d="M43.7085 42.7009L50.8985 30.2472L57.6469 34.1434L50.457 46.5971L43.7085 42.7009Z" fill="#253574"/>
<path d="M51.1902 31.3359L70.0544 42.2271L63.6614 53.3005L44.7972 42.4093L51.1902 31.3359ZM50.8985 30.2473L43.7085 42.701L63.9533 54.3894L71.1433 41.9357L50.8985 30.2473Z" fill="#253574"/>
<path d="M36.8655 54.114L51.1566 29.3517L51.9236 29.7944L37.6325 54.5567L36.8655 54.114Z" fill="#253574"/>
<path d="M14.7737 41.8807L35.0186 30.1924L42.2086 42.646L21.9638 54.3343L14.7737 41.8807Z" fill="#253574"/>
<path d="M30.646 47.1408L30.8997 46.5944L31.477 46.6614L31.039 46.2751L31.3017 45.7468L30.7952 46.0399L30.3605 45.6603L30.4716 46.2262L29.9585 46.5222L30.531 46.5688L30.646 47.1408Z" fill="#FFE910"/>
<path d="M26.1003 39.0141L26.3516 38.4767L26.9308 38.5346L26.4989 38.146L26.756 37.62L26.249 37.9136L25.8123 37.543L25.9264 38.0999L25.4185 38.3931L25.9872 38.4334L26.1003 39.0141Z" fill="#FFE910"/>
<path d="M24.1455 45.4721L24.3968 44.9347L24.9879 44.9856L24.5555 44.5979L24.8263 44.08L24.3122 44.376L23.8666 44.0035L23.9777 44.5694L23.4646 44.8659L24.0272 44.8948L24.1455 45.4721Z" fill="#FFE910"/>
<path d="M32.5713 40.592L32.8226 40.0546L33.4075 40.1088L32.9784 39.7111L33.2398 39.206L32.7318 39.4997L32.2923 39.1234L32.3983 39.693L31.8904 39.9857L32.4529 40.0147L32.5713 40.592Z" fill="#FFE910"/>
<path d="M28.5597 38.3322L28.8172 37.792L29.4021 37.8467L28.9697 37.458L29.231 36.9372L28.7231 37.2309L28.2798 36.8484L28.3886 37.4243L27.875 37.7203L28.4452 37.7607L28.5597 38.3322Z" fill="#FFE910"/>
<path d="M30.9158 38.9642L31.1733 38.423L31.7582 38.4772L31.323 38.0833L31.5839 37.5635L31.0759 37.8562L30.636 37.4803L30.7357 38.0533L30.2288 38.3455L30.8037 38.3831L30.9158 38.9642Z" fill="#FFE910"/>
<path d="M33.0487 42.9235L33.3034 42.3923L33.8935 42.4431L33.4611 42.0545L33.7258 41.5256L33.2117 41.8221L32.7712 41.4453L32.8772 42.0155L32.364 42.3115L32.937 42.3571L33.0487 42.9235Z" fill="#FFE910"/>
<path d="M32.3869 45.3206L32.6406 44.7742L33.2293 44.8345L32.7936 44.4397L33.0602 43.9166L32.5527 44.2097L32.107 43.8367L32.2125 44.4064L31.7051 44.6991L32.2743 44.7395L32.3869 45.3206Z" fill="#FFE910"/>
<path d="M28.3035 47.6782L28.5572 47.1318L29.1506 47.1888L28.7102 46.7973L28.9767 46.2747L28.4631 46.5702L28.0236 46.1944L28.1291 46.7636L27.615 47.0601L28.1852 47.1009L28.3035 47.6782Z" fill="#FFE910"/>
<path d="M26.0016 47.0078L26.2562 46.4761L26.8378 46.5246L26.4088 46.1416L26.6725 45.6128L26.1593 45.9093L25.7227 45.5391L25.8248 46.1022L25.3169 46.3958L25.889 46.4414L26.0016 47.0078Z" fill="#FFE910"/>
<path d="M23.5279 43.2295L23.7787 42.6921L24.3703 42.7434L23.9346 42.3486L24.2011 41.8259L23.6875 42.1219L23.2423 41.749L23.3473 42.3187L22.8403 42.6113L23.4095 42.6522L23.5279 43.2295Z" fill="#FFE910"/>
<path d="M24.1193 40.9118L24.3707 40.3739L24.9556 40.4285L24.5237 40.0399L24.7845 39.5201L24.2776 39.8128L23.8276 39.4341L23.9431 40.0061L23.4294 40.3022L23.9991 40.343L24.1193 40.9118Z" fill="#FFE910"/>
<path d="M34.0012 29.7957L34.7681 29.3529L49.0634 54.1128L48.2964 54.5555L34.0012 29.7957Z" fill="#253574"/>
<path d="M10.5955 27.3763L13.6649 22.0069L15.2174 22.8945L13.2166 26.3954L15.4011 27.6443L17.1012 24.6699L18.6544 25.5577L16.9543 28.532L20.876 30.7739L19.8074 32.6429L10.5955 27.3763Z" fill="#2FAC66"/>
<path d="M17.3132 17.6917L19.8049 15.6162C21.598 14.1221 23.4705 14.1207 24.7315 15.6343C25.5292 16.5073 25.7042 17.7825 25.1714 18.8382L30.7282 20.323L28.7834 21.9429L23.8613 20.4622L23.0111 21.1696L25.7564 24.4649L24.103 25.8425L17.3132 17.6917ZM20.1111 17.6887L21.8667 19.796L22.798 19.0197C23.2038 18.7153 23.4087 18.2119 23.3309 17.7106C23.2531 17.2093 22.9052 16.7918 22.4262 16.6247C21.9472 16.4576 21.4152 16.5682 21.0424 16.9124L20.1111 17.6887Z" fill="#2FAC66"/>
<path d="M32.5777 8.63578L35.306 7.92493L41.8681 17.181L39.653 17.758L37.9747 15.3443L33.8671 16.4138L33.5796 19.3395L31.3645 19.9168L32.5777 8.63578ZM36.8671 13.7377L34.4534 10.2455L34.0505 14.4711L36.8671 13.7377Z" fill="#2FAC66"/>
<path d="M45.5192 6.89764L48.2204 7.4593L51.304 15.9358L52.8661 8.42517L54.9738 8.86391L52.8128 19.2531L50.1114 18.6912L47.0281 10.2155L45.4659 17.7254L43.3584 17.2871L45.5192 6.89764Z" fill="#2FAC66"/>
<path d="M63.2368 22.7923L63.7646 24.8664C62.0703 25.3171 60.2627 24.9215 58.9116 23.8044C56.8722 22.1668 56.236 19.3367 57.3784 16.9839C58.5207 14.6311 61.1381 13.3807 63.6862 13.9705C66.2344 14.5603 68.0362 16.8336 68.0286 19.449L65.8797 19.4351C65.9581 18.3285 65.478 17.2559 64.6005 16.5771C63.0289 15.3403 60.9446 15.685 59.6885 17.2803C58.4325 18.8756 58.5865 20.9838 60.1581 22.2203C61.0239 22.9142 62.1795 23.1289 63.2368 22.7923Z" fill="#2FAC66"/>
<path d="M72.7726 22.8512L75.7654 28.2619L74.2005 29.1275L72.2494 25.6002L70.0479 26.8172L71.7055 29.8142L70.1407 30.68L68.4831 27.6831L66.096 29.0027L68.0471 32.5307L66.4821 33.3958L63.4895 27.9856L72.7726 22.8512Z" fill="#2FAC66"/>
<path d="M18.3881 50.9985L19.8325 53.9022C20.8718 55.9916 20.4417 57.8142 18.6776 58.6916C17.6442 59.2664 16.3629 59.1423 15.459 58.3797L12.7309 63.4439L11.6037 61.1777L14.1814 56.7304L13.6887 55.7402L9.84878 57.6503L8.89038 55.7232L18.3881 50.9985ZM17.7454 53.7222L15.2898 54.9439L15.8297 56.0292C16.0331 56.493 16.4753 56.8071 16.9802 56.8466C17.4852 56.886 17.9708 56.6443 18.2438 56.2177C18.5168 55.7912 18.5328 55.2489 18.2854 54.807L17.7454 53.7222Z" fill="#2FAC66"/>
<path d="M23.1321 59.3895L27.5809 63.6833L26.339 64.9705L23.4383 62.1712L21.6913 63.9808L24.1557 66.3597L22.914 67.6459L20.4495 65.2679L18.5551 67.2307L21.4556 70.03L20.2135 71.3167L15.7644 67.023L23.1321 59.3895Z" fill="#2FAC66"/>
<path d="M29.4434 64.8332L31.378 65.7746L27.5918 73.555L31.2159 75.3186L30.3606 77.0759L24.8015 74.3707L29.4434 64.8332Z" fill="#2FAC66"/>
<path d="M39.4793 68.3439L42.2886 68.5759L45.4172 79.4803L43.1365 79.2924L42.3517 76.4592L38.1223 76.1094L36.8827 78.7746L34.6021 78.5862L39.4793 68.3439ZM41.8381 74.5764L40.7168 70.4839L38.9383 74.3365L41.8381 74.5764Z" fill="#2FAC66"/>
<path d="M47.1868 68.6565L49.7766 67.7072L56.8694 73.2733L54.2297 66.0744L56.2499 65.3332L59.9019 75.2925L57.3124 76.2423L50.2192 70.6758L52.8592 77.8751L50.839 78.6157L47.1868 68.6565Z" fill="#2FAC66"/>
<path d="M68.7132 63.9279L70.8353 63.6537C71.079 65.39 70.4686 67.137 69.1967 68.3438C67.3253 70.1715 64.4388 70.4626 62.2402 69.0452C60.0417 67.6278 59.1152 64.8785 60.0075 62.4195C60.8999 59.9606 63.3738 58.4453 65.9698 58.7677L65.6974 60.8998C64.6082 60.6889 63.4856 61.0362 62.7059 61.8255C61.2887 63.2375 61.3803 65.3482 62.8134 66.7871C64.2464 68.2259 66.3572 68.3271 67.7747 66.9154C68.5672 66.139 68.9194 65.018 68.7132 63.9279Z" fill="#2FAC66"/>
<path d="M65.0964 56.0948L67.6369 50.4572L69.2673 51.1912L67.6111 54.8671L69.9049 55.9009L71.312 52.7781L72.9422 53.5121L71.5354 56.6354L74.0224 57.7559L75.6785 54.0806L77.309 54.8155L74.7685 60.4527L65.0964 56.0948Z" fill="#2FAC66"/>
</svg>
