<svg width="121" height="56" viewBox="0 0 121 56" fill="none" xmlns="http://www.w3.org/2000/svg">
<g clip-path="url(#clip0_202_13475)">
<path d="M10.8736 10.6454L10.9613 10.5762C10.9338 10.6001 10.9032 10.6202 10.8705 10.636M15.3077 9.15203L15.2732 9.17404C15.292 9.17404 15.3077 9.17404 15.3077 9.15203ZM13.9038 10.7051C13.5408 10.9695 13.1499 11.193 12.7381 11.3717C12.2251 11.5853 11.7304 11.8408 11.259 12.1356H0.0405273V0H15.8436C15.638 0.0668516 15.4362 0.14451 15.2388 0.232652C14.9711 0.329896 14.729 0.486847 14.5306 0.691669C14.3391 0.903841 14.193 1.15315 14.1013 1.42421C13.8342 1.61416 13.6187 1.86815 13.4745 2.16304C13.2708 2.55289 12.97 2.89558 13.017 3.33259C13.0609 3.69728 13.1549 4.04312 13.2207 4.43297C13.2428 4.5647 13.2732 4.6949 13.3116 4.82282C13.3617 4.96115 13.3116 5.12149 13.3805 5.23467C13.4495 5.34786 13.4056 5.39816 13.4965 5.44217V5.53335C13.5215 5.5585 13.5215 5.58051 13.5654 5.58051V5.65911C13.7686 5.86702 13.9454 6.09934 14.0919 6.35078C14.1389 6.48596 13.8631 6.4168 13.7503 6.36964C13.5471 6.24416 13.3625 6.0907 13.2019 5.91377C13.1903 5.91898 13.1803 5.92732 13.1731 5.93786C13.1659 5.9484 13.1618 5.96074 13.1612 5.9735C13.2552 6.13384 13.5936 6.34134 13.4119 6.45453C13.321 6.50168 13.205 6.38536 13.1142 6.47968C13.0922 6.52369 13.1142 6.57085 13.1142 6.61801C12.9763 6.52369 12.8415 6.57085 12.7036 6.52369C12.5658 6.47653 12.5877 6.31934 12.4749 6.31934C12.1859 6.24243 11.8916 6.18778 11.5943 6.15585C11.1932 6.08355 10.784 6.06767 10.3785 6.10869C10.2028 6.14035 10.0353 6.20737 9.88612 6.30571C9.73694 6.40405 9.60915 6.53167 9.51045 6.68089V6.7532C9.67026 6.77206 9.74234 6.63687 9.87709 6.58971C10.1058 6.5457 10.3127 6.45138 10.5414 6.40737C10.8607 6.31744 11.1906 6.27092 11.5223 6.26903C11.599 6.25647 11.6774 6.25647 11.7541 6.26903C11.3541 6.27594 10.9584 6.35363 10.5853 6.49854C10.3104 6.54553 10.0414 6.62249 9.78308 6.72805C10.3812 6.70914 10.9781 6.79423 11.5473 6.97956C11.748 7.04801 11.9396 7.14093 12.1177 7.25623C12.1886 7.32479 12.2663 7.38589 12.3495 7.43858C12.4085 7.47119 12.4739 7.49035 12.541 7.4947C12.6082 7.49905 12.6755 7.48847 12.7381 7.46373H12.8541C13.202 7.40927 13.5278 7.25785 13.7942 7.02672C13.7942 7.04873 13.8192 7.04873 13.8412 7.04873C13.8069 7.24393 13.7379 7.43136 13.6375 7.60207C13.6375 7.62407 13.6124 7.66809 13.6594 7.69324H13.7033C13.6813 7.69324 13.6594 7.69324 13.6594 7.71525C13.6594 7.73726 13.7284 7.71525 13.7472 7.75926C13.635 7.76875 13.5303 7.81907 13.4526 7.90074C13.4526 7.92275 13.4996 7.92275 13.5215 7.92275C13.4745 7.96676 13.4056 7.94476 13.3836 7.99192C13.3965 8.00231 13.4115 8.00981 13.4275 8.01392C13.4056 8.01392 13.3836 8.01392 13.3836 8.03593V8.1051C13.3147 8.1051 13.2896 8.14911 13.2489 8.17426C13.3398 8.24343 13.4056 8.17426 13.4996 8.17426C13.2489 8.26544 13.0389 8.40377 12.7914 8.47294C12.7444 8.47294 12.7914 8.54211 12.7444 8.54211C12.8102 8.58612 12.8603 8.51696 12.9261 8.51696C12.6128 8.70245 12.2994 8.86279 11.9422 9.07029C11.9173 9.09455 11.9018 9.12684 11.8983 9.16146H11.8043C11.7604 9.18347 11.7823 9.25264 11.7353 9.29665C11.8513 9.36897 11.9892 9.20548 12.0487 9.29665C12.0706 9.29665 12.0017 9.32181 11.9578 9.32181C11.914 9.32181 11.9328 9.36897 11.9108 9.36897H11.8419C11.7949 9.41298 11.751 9.43813 11.751 9.50416C11.704 9.50416 11.6601 9.50415 11.6351 9.55131C12.1396 9.48215 12.666 9.52931 13.1455 9.27779C13.5232 9.08619 13.8638 8.82855 14.1514 8.51696C14.1643 8.5294 14.1721 8.54621 14.1733 8.56411C14.1078 8.77869 13.972 8.9648 13.7879 9.0923C13.6531 9.16146 13.5623 9.27779 13.4463 9.32181L13.2426 9.46014C12.3934 9.75881 11.3875 9.62048 10.6542 10.1927C10.6542 10.1707 10.6323 10.1707 10.6104 10.1707C10.5884 10.1707 10.4944 10.2398 10.4725 10.287C10.4708 10.2921 10.4708 10.2976 10.4725 10.3027C10.4793 10.3109 10.488 10.3172 10.4979 10.321C10.5077 10.3249 10.5184 10.3261 10.5289 10.3247L10.5665 10.3027C10.6794 10.2275 10.8016 10.1672 10.93 10.1235L10.8924 10.155C10.8046 10.2053 10.72 10.2587 10.6323 10.3027C10.5713 10.3365 10.518 10.3825 10.4756 10.4379C10.4829 10.4407 10.4888 10.4462 10.4923 10.4531C10.4957 10.4601 10.4965 10.4681 10.4944 10.4756C10.4853 10.4882 10.4779 10.5019 10.4725 10.5165C10.4715 10.5249 10.4715 10.5333 10.4725 10.5417L10.4411 10.592C10.442 10.5982 10.442 10.6046 10.4411 10.6108V10.6391V10.658V10.6768V10.6989H10.4662H10.5007C10.5853 10.6989 10.6292 10.5982 10.6824 10.5479C10.7172 10.5203 10.7539 10.4951 10.7921 10.4725C10.7921 10.4725 10.7921 10.4725 10.7921 10.4914C10.7921 10.5102 10.7921 10.5071 10.7921 10.5134C10.7921 10.5196 10.767 10.5542 10.7514 10.5731C10.7357 10.592 10.7514 10.6045 10.7764 10.5982C10.6382 10.6808 10.509 10.7777 10.391 10.8875C10.3959 10.885 10.4012 10.8837 10.4067 10.8837C10.4121 10.8837 10.4175 10.885 10.4223 10.8875C10.4259 10.892 10.4278 10.8975 10.4278 10.9032C10.4278 10.9089 10.4259 10.9145 10.4223 10.9189L10.3221 11.0573C10.302 11.094 10.28 11.1297 10.2563 11.1642C10.2375 11.1956 10.2187 11.2302 10.1967 11.2616V11.2836C10.2193 11.2898 10.2431 11.2898 10.2657 11.2836C10.391 11.1673 10.5101 11.0478 10.6354 10.9284C10.6467 10.9316 10.6586 10.9316 10.6699 10.9284C10.784 10.8095 10.9112 10.704 11.0491 10.614C11.1089 10.5786 11.1619 10.5328 11.2058 10.4788L11.2402 10.4379H11.2559C11.3895 10.3635 11.5315 10.3054 11.6789 10.265H11.704C11.9789 10.2003 12.2572 10.1509 12.5376 10.1172C12.7279 10.1319 12.9193 10.1246 13.1079 10.0952C13.252 10.0606 13.3837 9.97889 13.5215 9.93488V9.97889C13.8631 9.84056 14.1169 9.54188 14.4616 9.4287C14.4867 9.4287 14.5306 9.47272 14.5776 9.45071C14.6653 9.34163 14.7766 9.25406 14.9032 9.19467C15.0297 9.13529 15.168 9.10565 15.3077 9.10802C15.3077 9.13002 15.3077 9.15203 15.3328 9.15203L15.0414 9.36897C15.0194 9.39097 15.0414 9.41298 15.0664 9.41298C15.1792 9.36897 15.2482 9.27779 15.3798 9.23063C15.3547 9.25264 15.3547 9.29665 15.3359 9.32181C15.2476 9.38264 15.1638 9.44989 15.0852 9.52302C14.811 9.76305 14.5554 10.0237 14.3206 10.3027C14.189 10.4442 14.0605 10.5825 13.9289 10.7146M10.3879 9.07029C10.5508 9.00112 10.7357 9.07029 10.8705 8.93196C10.8234 8.8848 10.7545 8.90681 10.7106 8.84078C10.6668 8.77476 10.5947 8.86279 10.5508 8.8848C10.4568 8.93196 10.297 8.93196 10.2751 9.04514C10.2531 9.0923 10.344 9.07029 10.3879 9.07029ZM6.89384 8.56411C7.39871 7.95305 7.99366 7.42295 8.65809 6.99214C8.70196 6.97013 8.58915 7.06131 8.68003 7.0393C8.97773 6.97013 9.0686 6.67146 9.20648 6.44195C9.40077 6.1307 9.71414 6.01752 9.93349 5.766C9.935 5.77822 9.93351 5.79063 9.92913 5.80214C9.92476 5.81365 9.91765 5.82391 9.90842 5.83202C9.9173 5.84114 9.9281 5.84813 9.94003 5.85249C9.95197 5.85684 9.96473 5.85844 9.97736 5.85717C10.0714 5.78801 10.1842 5.81002 10.2531 5.71884C10.0632 5.64306 9.85331 5.6342 9.65773 5.69369C9.17143 5.94816 8.73676 6.2915 8.37606 6.70604C8.15243 6.95624 7.89001 7.16857 7.59891 7.33483C7.39484 7.74803 7.15025 8.13982 6.86877 8.50438C6.86966 8.52175 6.87628 8.53834 6.88757 8.55154M8.78971 7.03616C8.78971 7.01415 8.78971 6.99214 8.76464 6.99214C8.71888 7.00772 8.678 7.03509 8.6461 7.0715C8.6142 7.10792 8.5924 7.15211 8.58288 7.19964C8.58288 7.22165 8.60795 7.22165 8.62676 7.22165C8.66795 7.20352 8.70131 7.17117 8.72077 7.13047C8.7427 7.08646 8.76464 7.08331 8.78971 7.03616ZM9.85202 10.4756C9.87082 10.4316 9.7486 10.4411 9.7298 10.4568C9.71083 10.4711 9.69395 10.488 9.67966 10.5071C9.65062 10.5388 9.61919 10.5682 9.58566 10.5951C9.52925 10.6486 9.47598 10.7051 9.41644 10.7586C9.3569 10.812 9.50418 10.8089 9.52925 10.7837L9.61699 10.7051H9.65146C9.71729 10.6776 9.77617 10.6357 9.82381 10.5825C9.84262 10.5637 9.82381 10.5511 9.79248 10.5448C9.81699 10.5275 9.83733 10.505 9.85202 10.4788M9.44151 10.2901C9.62953 10.1707 9.81755 10.0449 10.0244 9.93173C9.96216 9.89439 9.88973 9.87788 9.81755 9.88457C9.70473 9.90972 9.56685 9.84056 9.45404 9.88457C9.16261 10.0198 8.79597 10.0103 8.57662 10.2241C8.55753 10.2407 8.54068 10.2597 8.52648 10.2807C8.50469 10.3 8.48166 10.3179 8.45754 10.3342C8.4168 10.3719 8.37606 10.4096 8.33846 10.4505C8.31966 10.4505 8.30712 10.4819 8.28519 10.4976C8.26325 10.5134 8.30399 10.5479 8.32592 10.5322C8.34786 10.5165 8.3792 10.4788 8.41053 10.4568C8.3758 10.4941 8.34532 10.5353 8.31966 10.5794C8.32086 10.5846 8.32086 10.5899 8.31966 10.5951V10.6297V10.6548C8.32114 10.66 8.32114 10.6654 8.31966 10.6706C8.3143 10.6887 8.30802 10.7065 8.30085 10.724C8.30085 10.724 8.28519 10.7554 8.27579 10.768C8.26638 10.7806 8.25385 10.8026 8.24445 10.8183L8.17237 10.9126L8.15671 10.9315L8.1191 10.9818L8.09403 11.0101L8.02196 11.0918C8.02809 11.1051 8.03543 11.1177 8.04389 11.1296C8.04998 11.1317 8.05661 11.1317 8.0627 11.1296C8.06903 11.1219 8.0743 11.1135 8.07837 11.1044C8.11917 11.0535 8.16425 11.0062 8.21311 10.9629C8.2399 10.9382 8.26815 10.9151 8.29772 10.8938H8.31339L8.35099 10.8749L8.3886 10.8561C8.3886 10.8812 8.4262 10.8812 8.44187 10.8718L8.47007 10.8435C8.48887 10.8183 8.50454 10.8057 8.52021 10.7869C8.53314 10.7781 8.54475 10.7675 8.55468 10.7554C8.56349 10.7434 8.57405 10.7328 8.58602 10.724C8.6537 10.6549 8.7307 10.5956 8.81477 10.5479C8.81995 10.5433 8.82664 10.5407 8.83358 10.5407C8.84051 10.5407 8.84721 10.5433 8.85238 10.5479C8.95579 10.5008 9.0592 10.4568 9.16574 10.4002C9.27229 10.3436 9.34123 10.2839 9.42584 10.2241M9.89275 8.62699C9.93717 8.65557 9.98883 8.67076 10.0416 8.67076C10.0944 8.67076 10.146 8.65557 10.1905 8.62699C10.2601 8.58811 10.3399 8.57165 10.4192 8.57983C10.4411 8.57983 10.4411 8.53582 10.4411 8.51067C10.5008 8.53003 10.5634 8.53855 10.626 8.53582C11.167 8.44305 11.6936 8.2803 12.1929 8.05165C11.5943 7.59263 10.8423 7.42286 10.134 7.22794C10.203 7.22794 10.2688 7.29396 10.3377 7.22794C10.2249 7.13676 10.087 7.18078 9.9711 7.11161C9.99616 7.11161 10.0432 7.13676 10.0651 7.08646C9.88728 7.0231 9.70356 6.97781 9.51672 6.95127C9.56922 6.94086 9.61633 6.91206 9.64962 6.87002C9.68291 6.82798 9.70023 6.77543 9.69847 6.72176C9.69847 6.69661 9.65146 6.69661 9.62953 6.69661C9.35674 6.87236 9.16243 7.14731 9.0874 7.46373C9.25035 7.55176 9.43211 7.48574 9.59192 7.51089C9.52298 7.57691 9.40704 7.57691 9.31929 7.60207C9.23155 7.62722 9.18141 7.66809 9.20335 7.71525C9.21659 7.73117 9.23393 7.74313 9.25349 7.74983C9.19942 7.7624 9.15032 7.79086 9.11247 7.83157C9.20335 7.90074 9.29422 7.85358 9.38823 7.85358C9.38823 7.90074 9.43211 7.90074 9.45718 7.92275C9.35649 7.9583 9.27341 8.03152 9.22528 8.12711C9.18141 8.24343 9.06547 8.29059 8.99966 8.38177V8.44779C8.75675 8.62148 8.53392 8.82184 8.33533 9.04514C8.35726 9.04514 8.35726 9.07029 8.35726 9.0923C8.35726 9.11431 8.21938 9.18347 8.19744 9.25264C8.17551 9.32181 8.19744 9.29665 8.21938 9.29665C8.49514 9.20548 8.69883 9.00112 8.95266 8.90681C9.13441 8.86279 9.26602 8.74961 9.43211 8.70245C9.59819 8.65529 9.6828 8.63328 9.79561 8.61127C9.79561 8.63328 9.79561 8.65529 9.82068 8.65529H10.0024C9.9805 8.70245 9.88962 8.68044 9.91156 8.70245" fill="#000091"/>
<path d="M33.4359 0H20.4125C20.4566 0.0129632 20.4988 0.032008 20.5378 0.0565911L20.8512 0.232652C21.0347 0.310361 21.1931 0.437713 21.3087 0.600494C21.3445 0.643496 21.3694 0.694516 21.3814 0.74924C21.3934 0.803963 21.3921 0.860781 21.3776 0.914889C21.3306 1.02807 21.3087 1.22928 21.1927 1.25758C21.041 1.32012 20.8743 1.33652 20.7133 1.30474C20.6187 1.30053 20.5251 1.28469 20.4344 1.25758C20.7863 1.37455 21.096 1.59332 21.3244 1.88637C21.3494 1.93353 21.4403 1.95554 21.5312 1.95554C21.5531 1.95554 21.5531 2.00269 21.5531 2.0247C21.5061 2.07186 21.4622 2.09387 21.4842 2.16304H21.5531C21.6691 2.11902 21.6471 1.88637 21.8038 1.95554C21.8612 1.98963 21.9029 2.04503 21.9199 2.10975C21.9369 2.17447 21.9279 2.24331 21.8947 2.30137C21.8091 2.37914 21.7179 2.45059 21.622 2.51516C21.6113 2.5405 21.6057 2.56777 21.6057 2.59533C21.6057 2.62288 21.6113 2.65015 21.622 2.6755C21.6803 2.75702 21.7199 2.85041 21.738 2.94902C21.8038 3.10936 21.8289 3.29486 21.8947 3.4552C22.0064 3.78731 22.0615 4.13593 22.0576 4.48641C22.0576 4.67191 21.9636 4.83225 22.0357 5.01774C22.0957 5.18937 22.1801 5.35139 22.2864 5.49876C22.3774 5.61502 22.4611 5.73682 22.5371 5.86346C22.675 6.09611 22.9257 6.32248 22.8097 6.59915C22.7439 6.76263 22.4963 6.73748 22.3334 6.82865C22.1704 6.91983 22.3083 7.12733 22.3773 7.24366C22.4932 7.45116 22.2425 7.58635 22.0639 7.65551C22.1109 7.72468 22.2018 7.69953 22.2268 7.74669C22.2456 7.86301 22.3616 7.93218 22.2927 8.04536C22.2237 8.15854 21.926 8.25286 22.0639 8.45722C22.0968 8.53819 22.1119 8.62535 22.1081 8.71271C22.1043 8.80008 22.0818 8.88559 22.042 8.9634C22.0075 9.05068 21.9519 9.12799 21.8803 9.18836C21.8086 9.24873 21.7231 9.29027 21.6314 9.30923C21.49 9.35072 21.3408 9.35826 21.1959 9.33124C21.1536 9.30626 21.1067 9.29022 21.058 9.28408C20.678 9.20712 20.2941 9.15149 19.9079 9.11745C19.8001 9.13455 19.6948 9.16518 19.5946 9.20862C19.4961 9.2838 19.4039 9.36686 19.3188 9.457C19.2994 9.4754 19.2816 9.49538 19.2655 9.51673L19.2373 9.54817L19.2154 9.57332C19.1512 9.6581 19.0916 9.74626 19.0368 9.83741V9.85628L19.018 9.88772C18.9459 10.0216 18.8881 10.1629 18.8456 10.309C18.6889 10.834 18.7579 11.2836 18.8676 11.3937C18.8989 11.4251 19.6228 11.6483 20.121 11.8747C20.3068 11.9532 20.4869 12.0446 20.66 12.1482H33.4359V0Z" fill="#E1000F"/>
<path d="M21.1898 4.42981C21.2806 4.45497 21.4154 4.45497 21.4154 4.49898C21.3746 4.68447 21.102 4.72849 20.961 4.91084H20.8921C20.8231 4.958 20.8451 5.07432 20.7761 5.07432C20.7077 5.05856 20.636 5.06631 20.5724 5.09633C20.6132 5.14546 20.6654 5.18378 20.7244 5.20791C20.7834 5.23203 20.8475 5.24122 20.9109 5.23466C20.9311 5.24006 20.949 5.25185 20.962 5.26828C20.9749 5.2847 20.9823 5.30489 20.9829 5.32584C20.9918 5.32592 21.0006 5.32363 21.0083 5.31921C21.016 5.31479 21.0224 5.3084 21.0268 5.30069C21.0519 5.30069 21.0738 5.30069 21.0738 5.32584V5.41701C21.0049 5.50819 20.8921 5.46417 20.8012 5.48618C20.9725 5.53326 21.1532 5.53326 21.3245 5.48618C21.4655 5.44217 21.3245 5.20951 21.4154 5.09633C21.3746 5.09633 21.4154 5.02716 21.3747 5.02716C21.413 4.97508 21.4584 4.92853 21.5094 4.88883C21.5363 4.88961 21.5629 4.88371 21.587 4.87164C21.6111 4.85957 21.6318 4.84171 21.6473 4.81966C21.6473 4.77565 21.5533 4.75364 21.5783 4.70648C21.7131 4.61531 21.829 4.47697 21.782 4.33864C21.7632 4.27262 21.5783 4.27262 21.4687 4.22231C21.3381 4.19749 21.2033 4.20614 21.077 4.24747C20.9604 4.26673 20.846 4.29726 20.7354 4.33864C20.5793 4.39227 20.4324 4.46968 20.2998 4.56815C20.4642 4.5092 20.6329 4.46296 20.8043 4.42981C20.9334 4.41408 21.0638 4.41408 21.1929 4.42981" fill="#808080"/>
<path d="M0 18.2349H2.29384L4.50934 22.0548L6.72483 18.2349H9.01867V27.3272H7.17921V20.8004L5.158 24.2084H3.86067L1.83946 20.8004V27.3272H0V18.2349Z" fill="black"/>
<path d="M11.5444 18.2349H13.3839V27.3272H11.5444V18.2349Z" fill="black"/>
<path d="M15.9253 18.2349H18.2849L22.3399 24.8057V18.2349H24.1794V27.3272H21.8197L17.7648 20.7501V27.3272H15.9253V18.2349Z" fill="black"/>
<path d="M26.7178 18.2349H28.5604V27.3272H26.7178V18.2349Z" fill="black"/>
<path d="M31.6156 24.8372C31.8439 25.1643 32.1434 25.435 32.4914 25.6289C32.8394 25.8228 33.2268 25.9348 33.6243 25.9564C34.3513 25.9564 34.7931 25.5666 34.7931 24.9158C34.7931 23.2401 30.6723 23.6928 30.6723 20.6117C30.6723 19.1686 31.8631 17.9739 33.5992 17.9739C34.2084 17.969 34.8108 18.1031 35.3608 18.3662C35.9108 18.6293 36.3939 19.0144 36.7736 19.4925L35.4261 20.7155C34.8965 20.0238 34.298 19.5711 33.6117 19.5711C33.3528 19.5457 33.0945 19.6244 32.8935 19.7901C32.6925 19.9558 32.5654 20.1948 32.54 20.4545C32.54 20.4797 32.54 20.5048 32.54 20.5331C32.5369 22.1931 36.6639 21.7247 36.6639 24.8372C36.6388 26.5538 35.3164 27.5819 33.6462 27.5819C33.007 27.6105 32.37 27.4876 31.7869 27.2233C31.2038 26.9589 30.691 26.5604 30.29 26.0602L31.6156 24.8372Z" fill="black"/>
<path d="M37.6543 18.2349H45.0936V19.9106H42.3046V27.3272H40.4558V19.9043H37.6543V18.2349Z" fill="black"/>
<path d="M46.7134 18.2349H51.9999V19.7691H48.5528V21.9259H51.4828V23.4538H48.5528V25.7804H51.9999V27.3146H46.7134V18.2349ZM46.8669 15.6977H48.7471L50.2105 17.452H48.5403L46.8669 15.6977Z" fill="black"/>
<path d="M54.1372 18.2349H56.9105C58.9066 18.2349 60.1382 19.2598 60.1382 20.9513C60.1611 21.4464 60.0331 21.9367 59.771 22.3569C59.509 22.7771 59.1255 23.1071 58.6716 23.3029L61.5107 27.3335H59.3454L56.923 23.6551H55.9829V27.3335H54.1435L54.1372 18.2349ZM55.9767 19.7691V22.1208H57.0139C57.7911 22.1208 58.2454 21.6649 58.2454 20.9261C58.2454 20.1873 57.7911 19.7691 57.0139 19.7691H55.9767Z" fill="black"/>
<path d="M62.6733 18.2349H67.9598V19.7691H64.5128V21.9259H67.4428V23.4538H64.5128V25.7804H67.9598V27.3146H62.6733V18.2349Z" fill="black"/>
<path d="M0 31.4395H3.56297C6.43967 31.4395 8.38254 33.5302 8.38254 35.9888C8.38254 38.4473 6.43967 40.5381 3.56297 40.5381H0V31.4395ZM1.83946 33.1152V38.8623H3.58804C3.96417 38.8675 4.33763 38.7983 4.68709 38.6586C5.03656 38.519 5.35518 38.3117 5.62478 38.0485C5.89438 37.7853 6.10967 37.4714 6.25836 37.1248C6.40705 36.7781 6.48623 36.4054 6.49138 36.0281C6.49652 35.6507 6.42753 35.276 6.28834 34.9254C6.14916 34.5748 5.9425 34.2551 5.68018 33.9846C5.41785 33.7142 5.105 33.4982 4.75947 33.349C4.41394 33.1998 4.04251 33.1204 3.66638 33.1152H1.83946Z" fill="black"/>
<path d="M10.1592 31.4395H15.4457V32.9737H11.9986V35.1305H14.9286V36.6647H11.9986V38.985H15.4457V40.5192H10.1592V31.4395Z" fill="black"/>
<path d="M20.9517 31.4395H22.7911V38.8623H26.2381V40.5381H20.9517V31.4395Z" fill="black"/>
<path d="M30.1523 31.4395H32.562L36.0091 40.5381H34.0537L33.1856 38.1738H29.5443L28.6763 40.5381H26.7178L30.1523 31.4395ZM32.5903 36.5924L31.3368 33.1749L30.0833 36.5924H32.5903Z" fill="black"/>
<path d="M39.8319 31.4395H47.2712V33.1152H44.4697V40.5381H42.6177V33.1089H39.8193L39.8319 31.4395Z" fill="black"/>
<path d="M48.8853 31.4395H51.6585C53.6547 31.4395 54.8862 32.4644 54.8862 34.1559C54.909 34.6505 54.7812 35.1404 54.5198 35.5605C54.2584 35.9806 53.8758 36.3109 53.4228 36.5075L56.2431 40.5381H54.0809L51.6585 36.8596H50.7184V40.5381H48.8853V31.4395ZM50.7278 32.9737V35.3254H51.762C52.5422 35.3254 52.9935 34.8695 52.9935 34.1307C52.9935 33.3919 52.5422 32.9737 51.762 32.9737H50.7278Z" fill="black"/>
<path d="M59.7214 31.4395H62.1312L65.5782 40.5381H63.6134L62.7454 38.1738H59.1135L58.2454 40.5381H56.29L59.7214 31.4395ZM62.1719 36.5987L60.9185 33.1812L59.665 36.5987H62.1719Z" fill="black"/>
<path d="M66.9663 31.4395H69.3228L73.3809 38.0166V31.4395H75.2078V40.5381H72.8482L68.8058 33.9546V40.5318H66.9663V31.4395Z" fill="black"/>
<path d="M78.2789 38.0418C78.5071 38.369 78.8065 38.6399 79.1545 38.8338C79.5026 39.0277 79.89 39.1396 80.2875 39.161C81.0114 39.161 81.4533 38.7712 81.4533 38.1204C81.4533 36.4446 77.3325 36.8974 77.3325 33.8163C77.3325 32.3732 78.5233 31.1785 80.2593 31.1785C80.8686 31.1733 81.4711 31.3074 82.0211 31.5705C82.5711 31.8336 83.0542 32.2188 83.4337 32.697L82.0863 33.92C81.5567 33.2284 80.9613 32.7756 80.275 32.7756C80.1468 32.7626 80.0172 32.7752 79.8938 32.8126C79.7704 32.85 79.6556 32.9116 79.556 32.9937C79.4564 33.0758 79.3739 33.1769 79.3134 33.2911C79.2529 33.4053 79.2155 33.5303 79.2033 33.6591C79.2017 33.6853 79.2017 33.7115 79.2033 33.7377C79.2033 35.3883 83.3241 34.9198 83.3241 38.0386C83.299 39.7552 81.9766 40.7833 80.3063 40.7833C79.6671 40.8119 79.0302 40.6891 78.4471 40.4247C77.864 40.1603 77.3512 39.7619 76.9502 39.2616L78.2789 38.0418Z" fill="black"/>
<path d="M85.2354 31.4395H87.0779V40.5381H85.2354V31.4395Z" fill="black"/>
<path d="M88.6826 31.4395H96.1219V33.1152H93.3236V40.5381H91.5029V33.1089H88.6826V31.4395Z" fill="black"/>
<path d="M97.77 31.4395H99.6095V40.5381H97.77V31.4395Z" fill="black"/>
<path d="M110.985 35.9825C110.989 36.9383 110.711 37.874 110.185 38.6711C109.659 39.4683 108.91 40.0911 108.031 40.4607C107.153 40.8304 106.184 40.9303 105.249 40.7479C104.314 40.5654 103.454 40.1088 102.777 39.4358C102.101 38.7628 101.638 37.9036 101.449 36.9668C101.259 36.0301 101.35 35.058 101.711 34.1734C102.072 33.2889 102.687 32.5316 103.477 31.9973C104.267 31.4631 105.197 31.176 106.15 31.1722H106.178C106.797 31.1581 107.413 31.2669 107.991 31.4924C108.568 31.718 109.095 32.0558 109.542 32.4864C109.989 32.9171 110.346 33.4321 110.594 34.0019C110.841 34.5717 110.974 35.1849 110.985 35.8064V35.9825ZM109.105 35.9825C109.105 34.2407 107.886 32.9014 106.19 32.9014C104.495 32.9014 103.26 34.2407 103.26 35.9825C103.26 37.7242 104.479 39.0636 106.19 39.0636C107.901 39.0636 109.092 37.7274 109.092 35.9825H109.105Z" fill="black"/>
<path d="M112.746 31.4395H115.106L119.161 38.0166V31.4395H121V40.5381H118.641L114.586 33.9546V40.5318H112.746V31.4395Z" fill="black"/>
<path d="M0 44.6441H5.28648V46.1752H1.83946V48.3351H4.76943V49.8693H1.83946V52.1895H5.28648V53.7238H0V44.6441ZM1.78932 43.8612L3.25274 42.1069H5.13293L3.44703 43.8549L1.78932 43.8612Z" fill="black"/>
<path d="M7.42383 44.6441H9.78347L13.8384 51.2149V44.6441H15.6685V53.7427H13.3214L9.26642 47.1592V53.7364H7.42383V44.6441Z" fill="black"/>
<path d="M18.2192 44.6441H23.5026V46.1752H20.0556V48.3351H22.9855V49.8693H20.0556V52.1895H23.5026V53.7238H18.2192V44.6441Z" fill="black"/>
<path d="M25.6426 44.6441H28.4159C30.412 44.6441 31.6435 45.669 31.6435 47.3604C31.6663 47.8551 31.5385 48.345 31.2771 48.7651C31.0157 49.1852 30.6331 49.5155 30.1801 49.7121L33.0004 53.7427H30.8382L28.4127 50.0642H27.4726V53.7427H25.6426V44.6441ZM27.482 46.1752V48.53H28.5161C29.2933 48.53 29.7477 48.0741 29.7477 47.3321C29.7477 46.6436 29.2933 46.1752 28.5161 46.1752H27.482Z" fill="black"/>
<path d="M40.4683 51.4759V49.9039H38.1619V48.3319H42.3046V52.155C41.8365 52.753 41.2353 53.2326 40.549 53.5553C39.8627 53.878 39.1106 54.0348 38.353 54.013C35.4105 54.013 33.4019 51.8123 33.4019 49.2028C33.4074 48.1954 33.7247 47.2146 34.3101 46.3961C34.8954 45.5776 35.7198 44.9617 36.6692 44.6337C37.6186 44.3058 38.6461 44.2818 39.6096 44.5653C40.5732 44.8488 41.4251 45.4256 42.0476 46.216L40.5967 47.3479C40.3365 46.9571 39.9834 46.6375 39.5692 46.4179C39.1551 46.1984 38.693 46.0858 38.2246 46.0903C36.5167 46.0903 35.2977 47.4296 35.2977 49.1714C35.2865 49.5649 35.3526 49.9567 35.4923 50.3246C35.6321 50.6924 35.8427 51.029 36.1122 51.3152C36.3817 51.6013 36.7048 51.8314 37.0629 51.9922C37.421 52.153 37.8073 52.2414 38.1995 52.2524H38.3562C39.1333 52.2744 39.8893 51.9965 40.4683 51.4759Z" fill="black"/>
<path d="M44.354 44.6441H49.6405V46.1752H46.1935V48.3351H49.1234V49.8693H46.1935V52.1895H49.6405V53.7238H44.354V44.6441ZM46.1433 43.8612L47.6067 42.1069H49.4869L47.801 43.8612H46.1433Z" fill="black"/>
<path d="M50.8467 44.6441H58.286V46.3198H55.4845V53.7427H53.645V46.3135H50.8467V44.6441Z" fill="black"/>
<path d="M59.9032 44.6441H61.7332V53.7427H59.8906L59.9032 44.6441Z" fill="black"/>
<path d="M73.7945 54.3903C74.0151 54.3935 74.2345 54.3584 74.4432 54.2865V55.8585C74.1385 55.9804 73.8121 56.0382 73.4843 56.0283C72.4224 55.9968 71.4103 55.5698 70.6452 54.8304L69.5672 53.8401C68.4528 54.1075 67.2792 53.9522 66.2721 53.4039C65.2649 52.8557 64.4954 51.9532 64.1113 50.8701C63.7273 49.787 63.756 48.5997 64.1918 47.5365C64.6276 46.4733 65.4398 45.6092 66.4722 45.1105C67.5046 44.6118 68.6843 44.5136 69.7845 44.8349C70.8847 45.1561 71.8277 45.874 72.4322 46.8506C73.0366 47.8273 73.2599 48.9936 73.059 50.1254C72.8582 51.2572 72.2473 52.2745 71.344 52.9818L71.8861 53.5037C72.5912 54.1388 73.2117 54.3903 73.7945 54.3903ZM71.2406 49.2028C71.2406 47.461 70.0247 46.1217 68.3263 46.1217C66.6278 46.1217 65.3994 47.461 65.3994 49.2028C65.3994 50.9445 66.6153 52.2838 68.3263 52.2838C70.0373 52.2838 71.2406 50.9445 71.2406 49.2028Z" fill="black"/>
<path d="M80.1435 44.6441H81.983V50.1806C81.983 52.5731 80.5854 54.0036 78.3041 54.0036C76.0228 54.0036 74.6377 52.5731 74.6377 50.1806V44.6441H76.4772V50.3378C76.4772 51.5576 77.1634 52.2744 78.3166 52.2744C79.4698 52.2744 80.1435 51.5576 80.1435 50.3378V44.6441Z" fill="black"/>
<path d="M84.2642 44.6441H89.5506V46.1752H86.1036V48.3351H89.0336V49.8693H86.1036V52.1895H89.5506V53.7238H84.2642V44.6441Z" fill="black"/>
</g>
<defs>
<clipPath id="clip0_202_13475">
<rect width="121" height="56" fill="white"/>
</clipPath>
</defs>
</svg>
