<svg width="93" height="80" viewBox="0 0 93 80" fill="none" xmlns="http://www.w3.org/2000/svg">
<path d="M92.65 56.34C75.177 -21.502 41.04 45.93 0 20.76V30.329C32.596 49.548 62.797 -9.91801 73.32 56.325H92.65V56.34Z" fill="#E4004A"/>
<path d="M77.3671 64.101H75.1931L74.7481 65.577H73.5901L75.7001 59.467H76.9701L79.0021 65.577H77.8121L77.3671 64.101ZM77.1291 63.244L76.3361 60.387H76.3201L75.4471 63.244H77.1291ZM79.9221 61.816C79.9221 61.53 79.9061 61.276 79.8901 61.07H80.9381C80.9541 61.292 80.9701 61.53 80.9701 61.752H81.0011C81.1611 61.482 81.4781 60.99 82.2391 60.99C83.2871 60.99 83.6041 61.752 83.6041 62.657V65.561H82.4771V62.863C82.4771 62.181 82.3031 61.879 81.8271 61.879C81.2391 61.879 81.0331 62.355 81.0331 62.927V65.545H79.9231V61.815L79.9221 61.816ZM89.2381 59.467H90.2861V61.752H90.3011C90.4611 61.482 90.7781 60.99 91.5391 60.99C92.6031 60.99 92.9041 61.752 92.9041 62.657V65.561H91.7771V62.863C91.7771 62.165 91.6031 61.879 91.1431 61.879C90.5551 61.879 90.3491 62.355 90.3491 62.927V65.545H89.2221V59.468L89.2381 59.467ZM84.8421 61.34C85.3017 61.1161 85.8069 61.0018 86.3181 61.006C87.7621 61.006 88.0951 61.689 88.0951 62.816V64.783C88.0951 65.101 88.1271 65.403 88.1591 65.577H87.1431C87.0961 65.3741 87.075 65.1662 87.0801 64.958H87.0641C86.7941 65.323 86.4291 65.64 85.7621 65.64C85.0321 65.64 84.3661 65.164 84.3661 64.323C84.3661 63.101 85.3971 62.8 86.8101 62.8H87.0321V62.625C87.0321 62.181 86.8101 61.768 86.1591 61.768C85.5881 61.768 85.0961 62.038 84.8891 62.212L84.8421 61.34ZM87.0481 63.371H86.9531C86.0011 63.371 85.4291 63.561 85.4291 64.212C85.4291 64.625 85.7151 64.895 86.1431 64.895C86.8101 64.895 87.0631 64.418 87.0631 63.609V63.371H87.0481ZM22.5351 47.517H18.6471L17.8371 50.056H15.7601L19.5531 39.502H21.8201L25.4701 50.056H23.3301L22.5361 47.516L22.5351 47.517ZM22.0911 46.025L20.6621 41.089H20.6311L19.0751 46.025H22.0911ZM26.7401 51.262C27.2171 51.5 28.1531 51.928 29.2001 51.928C31.1051 51.928 31.4071 50.706 31.4071 49.484V48.739H31.3751C31.0581 49.342 30.4861 50.056 29.1691 50.056C28.0101 50.056 26.2491 49.326 26.2491 46.183C26.2491 44.041 27.0741 42.153 29.2641 42.153C30.4861 42.153 31.0421 42.803 31.4701 43.485H31.5341C31.5341 43.073 31.5811 42.676 31.5971 42.279H33.4221C33.3901 42.676 33.3591 43.089 33.3591 43.501V49.246C33.3591 51.675 32.5651 53.42 29.5021 53.42C28.5239 53.4187 27.5529 53.2523 26.6301 52.928L26.7401 51.262ZM29.6451 48.675C30.9151 48.675 31.4231 47.834 31.4231 46.056C31.4231 44.422 30.7561 43.549 29.8031 43.565C28.7561 43.581 28.3431 44.485 28.3431 46.072C28.3281 47.897 28.9631 48.675 29.6451 48.675ZM41.3261 49.659C40.5323 49.9937 39.6796 50.1664 38.8181 50.167C36.1361 50.167 34.9621 48.374 34.9621 46.263C34.9621 43.93 36.2791 42.136 38.4051 42.136C40.2151 42.136 41.7551 43.12 41.7551 46.295V46.66H36.9141C36.9141 47.993 37.4851 48.786 39.0401 48.786C40.2781 48.786 40.8651 48.437 41.2301 48.183L41.3261 49.659ZM39.8021 45.485C39.8021 44.12 39.3101 43.422 38.4051 43.422C37.3421 43.422 36.9141 44.469 36.9141 45.485H39.8021ZM43.4051 43.549C43.4051 43.073 43.3891 42.613 43.3411 42.263H45.2141C45.2301 42.66 45.2771 43.057 45.2771 43.453H45.3251H45.3091C45.6111 42.993 46.1661 42.136 47.5311 42.136C49.4351 42.136 49.9911 43.454 49.9911 45.025V50.04H47.9751V45.374C47.9751 44.184 47.6581 43.676 46.8171 43.676C45.7691 43.676 45.3881 44.517 45.3881 45.501V50.04H43.4051V43.548V43.549ZM57.3391 49.849C56.8631 50.024 56.1641 50.167 55.3551 50.167C52.5941 50.167 51.4191 48.374 51.4191 46.167C51.4191 43.946 52.6571 42.137 55.4661 42.137C56.1011 42.137 56.8461 42.311 57.2121 42.454L57.1011 43.93C56.7361 43.771 56.2441 43.549 55.6881 43.549C54.1651 43.549 53.4981 44.501 53.4981 46.168C53.4981 47.612 54.2441 48.738 55.7831 48.738C56.2751 48.738 56.9261 48.532 57.2121 48.358L57.3391 49.849ZM64.6701 49.659C63.8827 49.9939 63.0358 50.1667 62.1801 50.167C59.4811 50.167 58.3071 48.374 58.3071 46.263C58.3071 43.93 59.6241 42.136 61.7511 42.136C63.5601 42.136 65.0991 43.12 65.0991 46.295V46.66H60.2751C60.2751 47.993 60.8461 48.786 62.4011 48.786C63.6391 48.786 64.2111 48.437 64.5911 48.183L64.6701 49.659ZM63.1471 45.485C63.1471 44.12 62.6551 43.422 61.7511 43.422C60.6871 43.422 60.2591 44.469 60.2591 45.485H63.1471ZM9.6641 58.038C10.3164 57.7391 11.0266 57.5875 11.7441 57.594C13.7911 57.594 14.2671 58.514 14.2671 60.054V62.72C14.2671 63.165 14.3141 63.561 14.3471 63.8H12.9171C12.8381 63.561 12.8231 63.26 12.8231 62.958H12.7911C12.3941 63.45 11.9021 63.895 10.9501 63.895C9.9341 63.895 8.9821 63.244 8.9821 62.101C8.9821 60.435 10.4421 60.022 12.4421 60.022H12.7591V59.8C12.7591 59.197 12.4421 58.642 11.5371 58.642C10.7441 58.642 10.0451 59.007 9.7441 59.229L9.6641 58.038ZM12.7741 60.816H12.6321C11.2831 60.816 10.4741 61.07 10.4741 61.974C10.4741 62.53 10.8711 62.911 11.4891 62.911C12.4261 62.911 12.7751 62.26 12.7751 61.165V60.815L12.7741 60.816ZM16.2191 56.42L17.8061 55.975V57.689H19.1231V58.769H17.8061V61.943C17.8061 62.593 18.0601 62.783 18.5201 62.783C18.8061 62.783 19.0121 62.704 19.1231 62.657V63.704C18.8851 63.815 18.5361 63.911 18.0601 63.911C16.8851 63.911 16.2191 63.403 16.2191 62.133V58.784H15.1701V57.705H16.2201L16.2191 56.42ZM20.4881 55.087H22.1231V56.531H20.4881V55.087ZM20.5201 57.689H22.1071V63.815H20.5201V57.689ZM26.2491 57.594C27.5981 57.594 29.1371 58.244 29.1371 60.736C29.1371 63.307 27.5971 63.895 26.2491 63.895C24.9161 63.895 23.3601 63.292 23.3601 60.736C23.3601 58.245 24.9161 57.594 26.2491 57.594ZM26.2491 62.847C27.2651 62.847 27.5031 61.752 27.5031 60.737C27.5031 59.721 27.2651 58.642 26.2491 58.642C25.2331 58.642 24.9951 59.721 24.9951 60.736C24.9951 61.768 25.2331 62.847 26.2491 62.847ZM30.3911 58.689C30.3911 58.309 30.3751 57.959 30.3431 57.674H31.8201C31.8361 57.991 31.8681 58.308 31.8681 58.61H31.9001H31.8841C32.1221 58.245 32.5661 57.578 33.6301 57.578C35.1211 57.578 35.5661 58.61 35.5661 59.848V63.799H33.9791V60.133C33.9791 59.197 33.7251 58.8 33.0741 58.8C32.2331 58.8 31.9471 59.451 31.9471 60.229V63.799H30.3601V58.689H30.3911ZM2.6501 58.689C2.6501 58.309 2.6341 57.959 2.6021 57.674H4.0781C4.0941 57.991 4.1261 58.308 4.1261 58.61H4.1571H4.1421C4.3801 58.245 4.8081 57.578 5.8871 57.578C7.3791 57.578 7.8231 58.61 7.8231 59.848V63.799H6.2681V60.133C6.2681 59.197 6.0141 58.8 5.3641 58.8C4.5221 58.8 4.2371 59.451 4.2371 60.229V63.799H2.6501V58.689ZM37.3901 58.038C38.0421 57.7392 38.7519 57.5876 39.4691 57.594C41.5161 57.594 41.9761 58.514 41.9761 60.054V62.72C41.9761 63.165 42.0241 63.561 42.0721 63.8H40.6431C40.5631 63.561 40.5481 63.26 40.5481 62.958H40.5321C40.1351 63.45 39.6431 63.895 38.6921 63.895C37.6601 63.895 36.7231 63.244 36.7231 62.101C36.7231 60.435 38.1671 60.022 40.1831 60.022H40.5001V59.8C40.5001 59.197 40.1831 58.642 39.2781 58.642C38.4851 58.642 37.7871 59.007 37.4691 59.229L37.3891 58.039L37.3901 58.038ZM40.5001 60.816H40.3581C39.0081 60.816 38.1991 61.07 38.1991 61.974C38.1991 62.53 38.5961 62.911 39.1991 62.911C40.1511 62.911 40.4851 62.26 40.4851 61.165V60.815L40.5001 60.816ZM43.5471 54.896H45.1341V63.799H43.5471V54.896ZM51.4351 63.514C51.1021 63.641 50.4191 63.911 49.4671 63.911C47.3401 63.911 46.4361 62.498 46.4361 60.848C46.4361 59.023 47.4671 57.61 49.1501 57.61C50.5621 57.61 51.7841 58.388 51.7841 60.88V61.165H47.9751C47.9751 62.212 48.4201 62.847 49.6421 62.847C50.6101 62.847 51.0701 62.577 51.3721 62.371L51.4351 63.514ZM50.2451 60.213C50.2451 59.133 49.8641 58.578 49.1501 58.578C48.3241 58.578 47.9751 59.403 47.9751 60.213H50.2451ZM7.9661 70.465V78.21C7.9661 78.638 7.9821 79.02 8.0141 79.241H6.5541C6.5221 79.067 6.5061 78.718 6.5061 78.305H6.4741C6.2211 78.813 5.7601 79.336 4.7441 79.336C3.1421 79.336 2.4751 77.908 2.4751 76.242C2.4751 74.274 3.3161 73.132 4.7131 73.132C5.6491 73.132 6.1571 73.623 6.3951 74.083H6.4271V70.465H7.9671H7.9661ZM5.0621 78.273C5.9821 78.273 6.3001 77.353 6.3001 76.21C6.3001 75.036 5.9501 74.179 5.0941 74.179C4.2211 74.179 3.9191 74.956 3.9191 76.162C3.9191 77.575 4.1571 78.273 5.0621 78.273ZM17.8221 67.91H19.8381V79.241H17.8221V67.91ZM21.7901 68.338H23.4081V69.592L23.0911 72.084H21.7891L21.7901 68.338ZM34.3271 71.909C34.8981 71.671 35.6921 71.338 36.9771 71.338C39.5801 71.338 40.1831 72.528 40.1831 74.464V77.861C40.1831 78.431 40.2461 78.94 40.2941 79.241H38.4701C38.3751 78.94 38.3591 78.559 38.3591 78.178H38.3271C37.8191 78.813 37.1841 79.352 35.9941 79.352C34.6931 79.352 33.4871 78.527 33.4871 77.067C33.4871 74.957 35.3441 74.417 37.8831 74.417H38.2801V74.131C38.2801 73.353 37.8831 72.655 36.7241 72.655C35.7241 72.655 34.8201 73.115 34.4391 73.417L34.3271 71.909ZM38.2941 75.432H38.1201C36.4061 75.432 35.3741 75.766 35.3741 76.908C35.3741 77.623 35.8821 78.098 36.6601 78.098C37.8661 78.098 38.2941 77.273 38.2941 75.877V75.432ZM44.0871 67.91V72.576H44.1191C44.4041 71.973 45.0711 71.338 46.2771 71.338C48.0871 71.338 49.1661 72.814 49.1661 75.353C49.1661 77.511 48.3091 79.353 46.2301 79.353C44.9281 79.353 44.3251 78.686 44.0081 78.019H43.9601C43.9601 78.543 43.9281 79.003 43.8971 79.225H42.0081C42.0561 78.94 42.0721 78.448 42.0721 77.892V67.894H44.0871V67.91ZM45.6741 77.988C46.8481 77.988 47.1501 77.083 47.1501 75.29C47.1501 73.734 46.7531 72.719 45.6421 72.719C44.5471 72.719 44.0871 73.829 44.0871 75.337C44.0871 76.797 44.5001 77.988 45.6741 77.988ZM50.8321 68.148H52.9111V69.988H50.8311L50.8321 68.148ZM50.8641 71.465H52.8791V79.241H50.8641V71.465ZM55.6401 69.862L57.6561 69.291V71.465H59.3231V72.83H57.6561V76.877C57.6561 77.702 57.9741 77.956 58.5611 77.956C58.9101 77.956 59.1801 77.861 59.3231 77.781V79.114C59.0211 79.257 58.5771 79.368 57.9731 79.368C56.4821 79.368 55.6411 78.733 55.6411 77.098V72.83H54.3081V71.465H55.6411L55.6401 69.862ZM61.3061 71.909C61.8781 71.671 62.6711 71.338 63.9561 71.338C66.5591 71.338 67.1621 72.528 67.1621 74.464V77.861C67.1621 78.431 67.2261 78.94 67.2741 79.241H65.4481C65.3531 78.94 65.3381 78.559 65.3381 78.178H65.3061C64.7981 78.813 64.1631 79.352 62.9731 79.352C61.6711 79.352 60.4651 78.527 60.4651 77.067C60.4651 74.957 62.3221 74.417 64.8611 74.417H65.2741V74.131C65.2741 73.353 64.8611 72.655 63.7191 72.655C62.7031 72.655 61.8301 73.115 61.4331 73.417L61.3061 71.909ZM65.2741 75.432H65.0991C63.3851 75.432 62.3541 75.766 62.3541 76.908C62.3541 77.623 62.8621 78.098 63.6391 78.098C64.8451 78.098 65.2741 77.273 65.2741 75.877V75.432ZM69.4321 69.862L71.4471 69.291V71.465H73.1141V72.83H71.4471V76.877C71.4471 77.702 71.7651 77.956 72.3521 77.956C72.7171 77.956 72.9711 77.861 73.1141 77.781V79.114C72.8121 79.257 72.3681 79.368 71.7641 79.368C70.2741 79.368 69.4321 78.733 69.4321 77.098V72.83H68.0991V71.465H69.4321V69.862ZM25.5821 67.91H27.4871V72.703H27.5181C27.8041 72.227 28.3911 71.401 29.7561 71.401C31.6761 71.401 32.2481 72.703 32.2481 74.258V79.241H30.2161V74.608C30.2161 73.418 29.8831 72.926 29.0581 72.926C27.9951 72.926 27.6141 73.751 27.6141 74.736V79.242H25.5821V67.91ZM14.1561 78.971C13.8221 79.098 13.1561 79.352 12.2191 79.352C10.1401 79.352 9.2201 77.956 9.2201 76.337C9.2201 74.544 10.2361 73.147 11.8861 73.147C13.2831 73.147 14.4731 73.909 14.4731 76.369V76.654H10.7431C10.7431 77.686 11.1881 78.304 12.3941 78.304C13.3461 78.304 13.8071 78.035 14.0921 77.829L14.1561 78.971ZM12.9661 75.734C12.9661 74.671 12.5851 74.131 11.8861 74.131C11.0611 74.131 10.7281 74.941 10.7281 75.734H12.9661ZM80.7631 9.856C80.7631 11.412 79.3351 12.666 77.5581 12.666H68.1781C66.4011 12.666 64.9721 11.412 64.9721 9.856V2.81C64.9721 1.255 66.4171 0 68.1781 0H77.5581C79.3191 0 80.7631 1.255 80.7631 2.81V9.856Z" fill="#55849D"/>
</svg>
